<svg width="276" height="276" viewBox="0 0 276 276" fill="none" xmlns="http://www.w3.org/2000/svg">
<circle cx="138" cy="138" r="138" fill="#3494CE"/>
<path d="M214.931 171.51H202.638C202.638 171.51 200.853 171.51 199.862 172.897C198.871 174.285 198.871 175.475 198.871 175.475H137.802V218.699C137.802 218.699 150.49 217.988 158.422 216.32C166.762 214.566 172.07 213.066 179.44 208.785C186.502 204.684 190.652 201.563 194.707 195.303C197.905 190.366 199.466 183.406 199.466 183.406C199.466 183.406 199.862 184.596 201.647 184.596H203.828H214.931C214.931 184.596 218.5 183.803 218.5 178.053C218.5 172.303 214.931 171.51 214.931 171.51Z" fill="#BDBFC1"/>
<path d="M60.6725 171.51H72.9656C72.9656 171.51 74.75 171.51 75.7414 172.897C76.7328 174.285 76.7328 175.475 76.7328 175.475H137.802V218.699C137.802 218.699 125.114 217.988 117.181 216.32C108.841 214.566 103.533 213.066 96.1638 208.785C89.1015 204.684 84.9519 201.563 80.8966 195.303C77.6989 190.366 76.138 183.406 76.138 183.406C76.138 183.406 75.7414 184.596 73.9569 184.596H71.7759H60.6725C60.6725 184.596 57.1035 183.803 57.1035 178.053C57.1035 172.303 60.6725 171.51 60.6725 171.51Z" fill="#C8C9C9"/>
<path d="M146.851 156.722H110.116V152.776H146.851V156.722Z" fill="#A9ABAE"/>
<path d="M92.9919 167.716C85.9979 167.716 80.3281 162.047 80.3281 155.053C80.3281 148.058 85.9979 142.389 92.9919 142.389H94.5781C101.572 142.389 107.242 148.058 107.242 155.053C107.242 162.047 101.572 167.716 94.5781 167.716H92.9919Z" stroke="#A9ABAE" stroke-width="6"/>
<path d="M151.709 161.276C148.021 161.276 145.03 158.286 145.03 154.597H199.07C199.07 158.286 196.08 161.276 192.391 161.276H151.709Z" fill="#373435"/>
<path d="M151.709 147.918C148.021 147.918 145.03 150.908 145.03 154.597H199.07C199.07 150.908 196.08 147.918 192.391 147.918H151.709Z" fill="#4B4B4D"/>
<ellipse cx="192.694" cy="154.597" rx="3.03595" ry="3.03594" transform="rotate(-90 192.694 154.597)" fill="white"/>
<rect x="84.918" y="161.276" width="2.12515" height="20.6444" rx="1.06258" transform="rotate(-90 84.918 161.276)" fill="#A9ABAE"/>
<rect x="84.918" y="156.115" width="2.12517" height="20.6444" rx="1.06258" transform="rotate(-90 84.918 156.115)" fill="#A9ABAE"/>
<rect x="84.918" y="150.954" width="2.12512" height="20.6444" rx="1.06256" transform="rotate(-90 84.918 150.954)" fill="#A9ABAE"/>
<path d="M138.255 138.595V57.1035H64.8928C64.8928 57.1035 58.548 58.4914 60.1342 69.0001C61.7204 79.5087 72.8239 79.5087 72.8239 79.5087C72.8239 79.5087 74.8066 92.9914 83.3325 105.483C91.8583 117.974 111.289 125.509 111.289 125.509L106.332 135.819C106.332 135.819 106.027 136.92 106.729 137.802C107.404 138.65 108.315 138.595 108.315 138.595H138.255Z" fill="#C8C9C9"/>
<path d="M138.255 138.595V57.1035H211.617C211.617 57.1035 217.962 58.4914 216.376 69.0001C214.789 79.5087 203.686 79.5087 203.686 79.5087C203.686 79.5087 201.703 92.9914 193.177 105.483C184.651 117.974 165.22 125.509 165.22 125.509L170.177 135.819C170.177 135.819 170.483 136.92 169.781 137.802C169.106 138.65 168.195 138.595 168.195 138.595H138.255Z" fill="#BDBFC1"/>
<circle cx="100.583" cy="76.5345" r="3.56897" fill="white"/>
<circle cx="121.204" cy="76.5345" r="3.56897" fill="white"/>
<circle cx="109.307" cy="90.0172" r="3.56897" fill="white"/>
<ellipse cx="88.6861" cy="90.0172" rx="3.56895" ry="3.56897" fill="white"/>
<circle cx="100.583" cy="102.31" r="3.56897" fill="white"/>
<circle cx="121.204" cy="102.31" r="3.56897" fill="white"/>
<circle cx="127.548" cy="90.8104" r="3.56897" fill="white"/>
<ellipse cx="139.445" cy="76.5345" rx="3.56896" ry="3.56897" fill="white"/>
<ellipse cx="139.445" cy="101.517" rx="3.56896" ry="3.56897" fill="white"/>
<ellipse cx="148.169" cy="90.0172" rx="3.56895" ry="3.56897" fill="white"/>
<ellipse cx="158.876" cy="76.5345" rx="3.56897" ry="3.56897" fill="white"/>
<ellipse cx="178.307" cy="76.5345" rx="3.56898" ry="3.56897" fill="white"/>
<ellipse cx="167.6" cy="90.8104" rx="3.56895" ry="3.56897" fill="white"/>
<ellipse cx="178.307" cy="102.31" rx="3.56898" ry="3.56897" fill="#C4C4C4"/>
<ellipse cx="158.876" cy="102.31" rx="3.56897" ry="3.56897" fill="white"/>
<ellipse cx="187.031" cy="90.8104" rx="3.56897" ry="3.56897" fill="white"/>
</svg>
