<svg width="276" height="276" viewBox="0 0 276 276" fill="none" xmlns="http://www.w3.org/2000/svg">
<circle cx="138" cy="138" r="138" fill="#3494CE"/>
<g filter="url(#filter0_d)">
<path d="M132.953 93.5749C133.061 94.2004 133.117 94.8491 133.118 95.5035C133.119 95.6978 133.267 95.8594 133.46 95.8766C138.261 96.2985 142.274 99.7181 143.449 104.387C143.481 104.515 143.579 104.617 143.706 104.655C143.742 104.665 143.777 104.67 143.812 104.67C143.906 104.67 143.998 104.635 144.068 104.569C146.024 102.745 148.458 101.648 151.108 101.399C151.296 101.381 151.442 101.226 151.447 101.037C151.618 95.7788 153.756 90.8336 157.469 87.1132C157.546 87.0356 157.627 86.9632 157.706 86.8867C156.885 81.651 154.472 76.6196 150.455 72.5936C149.665 71.8023 148.384 71.802 147.593 72.5936L131.132 89.0925C132.03 90.4027 132.666 91.9193 132.953 93.5749Z" fill="#EF5050"/>
<path d="M143.448 104.387C143.48 104.515 143.579 104.617 143.706 104.655C143.741 104.665 143.776 104.67 143.812 104.67C143.906 104.67 143.997 104.635 144.068 104.569C145.023 103.678 146.094 102.963 147.248 102.434C147.119 102.003 146.885 101.598 146.546 101.257L143.815 98.5201C142.719 97.4206 140.938 97.4179 139.838 98.5152C139.83 98.5231 139.823 98.5317 139.815 98.5399C141.564 100.031 142.861 102.053 143.448 104.387Z" fill="#C0272D"/>
<path d="M149.297 96.0615H145.436C143.882 96.0615 142.623 94.8023 142.623 93.249C142.623 91.6958 143.882 90.4365 145.436 90.4365H149.297C150.85 90.4365 152.109 91.6958 152.109 93.249C152.109 94.8027 150.85 96.0615 149.297 96.0615Z" fill="#C0272D"/>
<path d="M144.891 88.2915C144.172 88.2915 143.453 88.0177 142.904 87.4698C141.804 86.3726 141.803 84.5917 142.9 83.4922L145.631 80.7555C146.728 79.6563 148.509 79.6544 149.608 80.7517C150.708 81.849 150.709 83.6298 149.613 84.7293L146.881 87.4661C146.332 88.0158 145.611 88.2915 144.891 88.2915Z" fill="#C0272D"/>
<path d="M180.152 82.5551C180.119 82.4693 180.068 82.3928 180.004 82.3286C179.94 82.2645 179.864 82.2135 179.778 82.1798C171.989 79.0774 163.128 80.91 157.203 86.8481C153.267 90.7932 151.141 96.0372 151.063 101.402C151.453 101.364 151.848 101.343 152.247 101.343C158.079 101.343 162.952 105.532 164.033 111.066C168.287 110.373 172.314 108.37 175.495 105.182C181.42 99.243 183.248 90.3619 180.152 82.5551Z" fill="#89C947"/>
<path d="M170.047 92.3085C168.948 91.2112 167.167 91.2131 166.07 92.313L156.341 102.064C158.177 102.734 159.805 103.84 161.101 105.257L170.052 96.2858C171.149 95.1863 171.147 93.4054 170.047 92.3085Z" fill="#D5E962"/>
<path d="M184.192 114.765C184.289 115.332 184.34 115.916 184.34 116.501C184.34 116.695 184.489 116.857 184.682 116.874C186.204 117.008 187.655 117.479 188.995 118.276C189.055 118.312 189.121 118.329 189.187 118.329C189.292 118.329 189.396 118.284 189.47 118.2C189.79 117.834 190.064 117.537 190.334 117.267C192.597 114.998 195.334 113.379 198.319 112.496C198.599 111.459 198.751 110.37 198.751 109.245C198.751 102.389 193.205 96.8303 186.364 96.8303C180.53 96.8303 175.64 100.875 174.327 106.318C179.219 106.403 183.353 109.925 184.192 114.765Z" fill="#FFC502"/>
<path d="M99.3043 131.391C98.0484 129.166 97.2534 126.725 96.9497 124.213C93.2949 123.615 90.1922 121.274 88.6025 117.988C83.396 119.458 79.5781 124.249 79.5781 129.937C79.5781 130.429 79.6156 130.913 79.6715 131.391H99.3043V131.391Z" fill="#FFC502"/>
<path d="M193.836 125.288C194.198 127.378 193.91 129.483 193.005 131.391H208.921C212.68 126.113 213.588 119.224 211.144 113.059C211.113 112.981 211.067 112.91 211.008 112.851C210.949 112.792 210.879 112.745 210.801 112.714C203.647 109.865 195.509 111.548 190.068 117.002C189.67 117.4 189.298 117.817 188.941 118.243C191.467 119.726 193.311 122.263 193.836 125.288Z" fill="#89C947"/>
<path d="M193.005 131.391H196.483L202.03 125.831C203.128 124.732 203.125 122.951 202.026 121.854C200.926 120.757 199.145 120.759 198.048 121.859L193.93 125.987C194.123 127.844 193.809 129.695 193.005 131.391Z" fill="#D5E962"/>
<path d="M143.879 104.604C142.751 99.5524 138.475 95.9404 133.493 95.5028C133.492 94.8454 133.439 94.1798 133.323 93.5104C132.218 87.1369 126.148 82.8698 119.765 83.9809C116.452 84.5576 113.71 86.472 111.988 89.0681C109.494 87.2055 106.267 86.3306 102.954 86.907C96.5707 88.0185 92.2923 94.0868 93.3978 100.46C93.5133 101.13 93.6865 101.775 93.9074 102.393C89.1974 104.567 86.3373 109.693 87.2635 115.038C88.1388 120.09 92.1359 123.815 96.9351 124.59C96.4701 121.368 96.8433 118.043 98.0887 114.901C98.1007 114.87 98.1187 114.843 98.1423 114.819C98.1652 114.797 98.1929 114.779 98.2233 114.766C100.458 113.876 102.806 113.425 105.202 113.425C110.242 113.425 114.984 115.394 118.552 118.97C118.81 119.229 119.057 119.496 119.298 119.768C119.099 118.475 118.995 117.159 118.995 115.825C118.995 114.914 119.734 114.172 120.643 114.172H140.28C140.263 113.911 140.25 113.649 140.25 113.383C140.25 109.955 141.637 106.851 143.879 104.604Z" fill="#368C0E"/>
<path d="M102.808 105.702C102.791 105.702 102.775 105.701 102.759 105.701C101.206 105.675 99.9683 104.395 99.9946 102.842C100.077 97.9724 104.071 94.0637 108.927 94.0637C108.975 94.0637 109.022 94.0641 109.07 94.0648C111.516 94.1027 113.867 95.1606 115.517 96.9677C116.564 98.1149 116.484 99.8939 115.337 100.941C114.19 101.989 112.411 101.908 111.363 100.762C110.745 100.084 109.899 99.7037 108.982 99.6895C107.154 99.6599 105.649 101.118 105.618 102.937C105.593 104.474 104.339 105.702 102.808 105.702Z" fill="#89C947"/>
<path d="M118.333 110.542C118.009 110.542 117.678 110.485 117.356 110.365C115.9 109.825 115.157 108.207 115.697 106.75C117.266 102.521 121.986 100.35 126.22 101.912C128.326 102.69 130.038 104.321 130.916 106.387C131.523 107.816 130.857 109.468 129.427 110.075C127.999 110.683 126.347 110.017 125.739 108.587C125.46 107.932 124.939 107.435 124.273 107.189C122.942 106.698 121.463 107.38 120.971 108.706C120.55 109.84 119.476 110.542 118.333 110.542Z" fill="#89C947"/>
<path d="M164.233 114.142H164.13C164.13 114.168 164.13 114.195 164.128 114.221H167.896C169.014 114.221 169.919 115.129 169.919 116.249C169.919 121.9 168.095 127.125 165.023 131.391H193.409C194.258 129.524 194.581 127.396 194.205 125.224C193.369 120.397 189.38 116.91 184.715 116.5C184.714 115.906 184.665 115.305 184.56 114.701C183.563 108.944 178.08 105.09 172.316 106.093C169.323 106.615 166.845 108.343 165.291 110.689C164.786 110.312 164.247 109.985 163.683 109.703C164.055 110.864 164.259 112.1 164.259 113.384C164.259 113.631 164.25 113.882 164.233 114.142Z" fill="#368C0E"/>
<path d="M164.604 114.172C164.622 113.911 164.634 113.649 164.634 113.383C164.634 106.527 159.088 100.968 152.247 100.968C145.406 100.968 139.86 106.527 139.86 113.383C139.86 113.649 139.873 113.911 139.89 114.172H164.604Z" fill="#F7931E"/>
<path d="M118.816 118.705C113.375 113.252 105.237 111.569 98.0834 114.418C98.0051 114.45 97.9349 114.496 97.8757 114.555C97.8172 114.614 97.7703 114.684 97.7392 114.763C95.5507 120.284 96.0517 126.385 98.8777 131.391H124.408C121.822 127.946 120.069 123.841 119.453 119.375C119.247 119.148 119.035 118.924 118.816 118.705Z" fill="#89C947"/>
<path d="M110.701 131.391H118.647L110.836 123.563C109.739 122.463 107.958 122.46 106.859 123.558C105.759 124.655 105.756 126.436 106.854 127.535L110.701 131.391Z" fill="#D5E962"/>
<path d="M165.212 131.391C168.471 127.05 170.414 121.663 170.414 115.825C170.414 114.705 169.508 113.797 168.39 113.797H120.643C119.525 113.797 118.62 114.705 118.62 115.825C118.62 121.663 120.563 127.05 123.822 131.391H165.212Z" fill="#EF5050"/>
<path d="M147.431 131.391V129.446C147.431 127.892 146.172 126.633 144.618 126.633C143.065 126.633 141.806 127.892 141.806 129.446V131.391H147.431Z" fill="#C0272D"/>
<path d="M152.827 131.391H157.2C158.105 130.288 158.044 128.656 157.014 127.624L154.284 124.888C153.187 123.788 151.406 123.785 150.307 124.883C149.207 125.98 149.205 127.76 150.302 128.86L152.827 131.391Z" fill="#C0272D"/>
<path d="M135.967 131.391L138.491 128.861C139.588 127.761 139.586 125.98 138.487 124.883C137.387 123.786 135.607 123.788 134.509 124.888L131.779 127.624C130.749 128.656 130.687 130.287 131.592 131.391L135.967 131.391Z" fill="#C0272D"/>
<path d="M131.643 123.807H127.781C126.228 123.807 124.969 122.547 124.969 120.994C124.969 119.441 126.228 118.182 127.781 118.182H131.643C133.197 118.182 134.456 119.441 134.456 120.994C134.456 122.547 133.196 123.807 131.643 123.807Z" fill="#C0272D"/>
<path d="M161.252 123.806H157.39C155.836 123.806 154.577 122.547 154.577 120.994C154.577 119.441 155.836 118.181 157.39 118.181H161.252C162.805 118.181 164.064 119.441 164.064 120.994C164.064 122.547 162.805 123.806 161.252 123.806Z" fill="#C0272D"/>
<path d="M76.8676 150.784C76.9014 150.793 76.9355 150.798 76.9693 150.798C77.0503 150.798 77.1298 150.772 77.1958 150.722C77.2895 150.651 77.3443 150.54 77.3443 150.423V145.663C77.3443 144.319 78.4378 143.226 79.7818 143.226C81.1258 143.226 82.2193 144.319 82.2193 145.663V150.423C82.2193 150.54 82.274 150.651 82.3678 150.722C82.4338 150.772 82.5133 150.798 82.5943 150.798C82.6284 150.798 82.6625 150.793 82.6959 150.784C84.6688 150.228 86.9964 149.934 89.426 149.934C96.2529 149.934 100.839 152.147 100.839 154.214C100.839 154.481 100.758 154.76 100.597 155.044C100.544 155.138 100.534 155.25 100.569 155.352C100.604 155.453 100.681 155.535 100.78 155.576C109.521 159.179 115.715 166.822 116.945 175.521C116.962 175.634 117.028 175.734 117.126 175.792C117.184 175.826 117.25 175.844 117.317 175.844C117.362 175.844 117.407 175.836 117.45 175.82L176.653 153.328C177.799 152.893 179.001 152.673 180.226 152.673C181.944 152.673 183.642 153.116 185.139 153.953C187.741 155.41 189.545 157.922 190.086 160.845L190.602 163.629C190.625 163.75 190.704 163.852 190.815 163.902C190.865 163.925 190.918 163.936 190.971 163.936C191.037 163.936 191.103 163.919 191.162 163.884L211.067 152.134C212.777 146.039 213.644 139.719 213.644 133.228C213.644 132.155 212.775 131.285 211.704 131.285H76.2725C75.2015 131.285 74.333 132.155 74.333 133.228C74.333 139.21 75.0725 145.046 76.5256 150.695C76.6393 150.725 76.7563 150.752 76.8676 150.784Z" fill="#E6E9ED"/>
<path opacity="0.1" d="M76.8676 150.784C76.9014 150.793 76.9355 150.798 76.9693 150.798C77.0503 150.798 77.1298 150.772 77.1958 150.722C77.2895 150.651 77.3443 150.54 77.3443 150.423V145.663C77.3443 144.319 78.4378 143.226 79.7818 143.226C81.1258 143.226 82.2193 144.319 82.2193 145.663V150.423C82.2193 150.54 82.274 150.651 82.3678 150.722C82.4338 150.772 82.5133 150.798 82.5943 150.798C82.6284 150.798 82.6625 150.793 82.6959 150.784C84.3845 150.308 86.3342 150.026 88.3843 149.954C87.0553 144.536 86.3822 138.949 86.3822 133.228C86.3822 132.155 87.2503 131.285 88.3217 131.285H76.2725C75.2015 131.285 74.333 132.155 74.333 133.228C74.333 139.21 75.0725 145.046 76.5256 150.695C76.6393 150.725 76.7563 150.752 76.8676 150.784Z" fill="black"/>
<path d="M79.7815 152.122C80.5517 151.69 81.5057 151.313 82.5947 151.006V145.663C82.5947 144.109 81.3359 142.85 79.7822 142.85C78.2286 142.85 76.9697 144.109 76.9697 145.663V151.006C78.0587 151.312 79.0116 151.69 79.7815 152.122Z" fill="#89C947"/>
<path d="M108.514 204.313L98.3555 204.318H98.3518C93.5161 204.317 89.3697 200.881 88.493 196.146L88.3929 195.607C87.5157 190.871 90.1595 186.187 94.6794 184.469L117.372 175.849C116.203 166.502 109.617 158.675 100.573 155.083C99.695 156.558 96.6733 157.842 92.7387 158.304C92.5887 158.321 92.4635 158.428 92.4219 158.573C92.3802 158.719 92.4298 158.875 92.5479 158.969C94.5871 160.6 95.8681 162.32 95.975 163.57C96.014 164.023 95.9026 164.39 95.6341 164.693C95.156 165.233 94.2155 165.519 92.915 165.519C92.915 165.519 92.915 165.519 92.9146 165.519C90.3826 165.519 86.9589 164.46 83.7556 162.687C82.3448 161.905 81.0897 161.051 80.0236 160.148C79.9535 160.089 79.8672 160.059 79.7813 160.059C79.6951 160.059 79.6088 160.089 79.5391 160.148C78.4722 161.052 77.2171 161.906 75.8078 162.687C72.6046 164.46 69.1804 165.519 66.6484 165.519C65.3476 165.519 64.4074 165.233 63.9293 164.693C63.6608 164.39 63.5491 164.023 63.5881 163.57C63.6953 162.32 64.9763 160.601 67.0148 158.969C67.1326 158.875 67.1824 158.719 67.1408 158.573C67.0996 158.428 66.9743 158.321 66.8239 158.304C62.8883 157.842 59.8662 156.557 58.9902 155.082C48.9964 159.049 42 168.188 42 178.832C42 193.115 54.5929 204.693 70.1266 204.693H109.125C109.546 204.693 109.22 204.543 108.514 204.313Z" fill="#EF5050"/>
<path opacity="0.1" d="M54.1688 178.832C54.1688 170.349 58.6118 162.82 65.4743 158.104C62.2066 157.534 59.7627 156.384 58.9898 155.082C48.9964 159.049 42 168.188 42 178.832C42 193.115 54.5929 204.692 70.1266 204.692H82.2957C66.7621 204.692 54.1688 193.115 54.1688 178.832Z" fill="black"/>
<path d="M101.214 154.214C101.214 151.643 95.9362 149.559 89.4259 149.559C85.4381 149.559 81.9138 150.342 79.7805 151.539C77.6486 150.342 74.1247 149.559 70.1362 149.559C63.6262 149.559 58.3477 151.643 58.3477 154.214C58.3477 156.324 61.9049 158.105 66.7788 158.676C63.7972 161.063 62.4318 163.57 63.6468 164.942C65.2567 166.76 70.7827 165.896 75.9877 163.015C77.4491 162.206 78.7297 161.324 79.7797 160.434C80.8308 161.325 82.1122 162.206 83.5725 163.015C88.7779 165.896 94.3035 166.759 95.913 164.942C97.1284 163.57 95.7634 161.063 92.7806 158.676C97.6579 158.105 101.214 156.324 101.214 154.214Z" fill="#368C0E"/>
<path d="M233.956 170.868L233.201 166.794C232.942 165.387 231.585 164.458 230.173 164.717L201.024 170.071L219.636 157.63C220.518 157.04 220.926 155.999 220.745 155.01C220.693 154.736 220.597 154.466 220.453 154.21L218.346 150.48C218.004 149.872 217.429 149.428 216.753 149.248C216.077 149.068 215.357 149.166 214.755 149.522L190.543 163.814L195.123 188.542L222.894 193.532C223.585 193.657 224.299 193.496 224.87 193.088C225.441 192.68 225.823 192.058 225.926 191.364L226.554 187.153C226.597 186.863 226.591 186.576 226.54 186.303C226.357 185.313 225.601 184.487 224.566 184.249L202.722 179.239L231.871 173.884C233.284 173.625 234.217 172.275 233.956 170.868Z" fill="#89C947"/>
<path d="M88.1251 196.214C89.0352 201.128 93.3387 204.694 98.3562 204.692L186.094 204.658C189.181 204.657 192.11 203.29 194.085 200.926C196.06 198.562 196.878 195.447 196.318 192.421L190.457 160.776C189.896 157.752 188.016 155.132 185.323 153.625C182.631 152.119 179.407 151.882 176.521 152.977L94.5469 184.119C89.8587 185.9 87.1152 190.761 88.0249 195.675L88.1251 196.214Z" fill="#F7931E"/>
<g opacity="0.1">
<path opacity="0.1" d="M88.1251 196.214C88.2646 196.968 88.4929 197.686 88.7828 198.369C89.9922 196.22 91.9347 194.482 94.3868 193.55L179.995 161.028C183.009 159.884 186.376 160.132 189.187 161.705C189.778 162.036 190.329 162.42 190.84 162.847L190.457 160.776C189.896 157.752 188.016 155.132 185.323 153.626C182.631 152.119 179.407 151.882 176.521 152.978L94.5469 184.119C89.8587 185.9 87.1152 190.761 88.0249 195.675L88.1251 196.214Z" fill="black"/>
</g>
<path d="M181.064 191.503C180.773 189.977 179.296 188.977 177.774 189.269C176.248 189.561 175.248 191.034 175.54 192.56L177.855 204.662L183.582 204.66L181.064 191.503Z" fill="#FFC502"/>
<path d="M165.819 194.838C165.531 193.311 164.061 192.308 162.534 192.595C161.008 192.883 160.003 194.353 160.291 195.88L161.948 204.668L167.672 204.665L165.819 194.838Z" fill="#FFC502"/>
<path d="M150.916 173.655C151.237 174.931 152.383 175.781 153.641 175.781C153.868 175.781 154.1 175.753 154.33 175.695C155.836 175.316 156.75 173.788 156.371 172.281L153.694 161.65L148.399 163.661L150.916 173.655Z" fill="#FFC502"/>
<path d="M136.28 192.387C136.004 190.858 134.543 189.842 133.013 190.118C131.485 190.394 130.469 191.857 130.744 193.385L132.781 204.679L138.496 204.677L136.28 192.387Z" fill="#FFC502"/>
<path d="M107.908 187.13C108.185 188.456 109.354 189.366 110.657 189.366C110.849 189.366 111.043 189.346 111.238 189.305C112.758 188.986 113.731 187.495 113.413 185.975L111.659 177.619L106.336 179.641L107.908 187.13Z" fill="#FFC502"/>
</g>
<defs>
<filter id="filter0_d" x="42" y="72" width="193" height="133.693" filterUnits="userSpaceOnUse" color-interpolation-filters="sRGB">
<feFlood flood-opacity="0" result="BackgroundImageFix"/>
<feColorMatrix in="SourceAlpha" type="matrix" values="0 0 0 0 0 0 0 0 0 0 0 0 0 0 0 0 0 0 127 0"/>
<feOffset dx="1" dy="1"/>
<feColorMatrix type="matrix" values="0 0 0 0 0 0 0 0 0 0 0 0 0 0 0 0 0 0 0.4 0"/>
<feBlend mode="normal" in2="BackgroundImageFix" result="effect1_dropShadow"/>
<feBlend mode="normal" in="SourceGraphic" in2="effect1_dropShadow" result="shape"/>
</filter>
</defs>
</svg>
