<svg width="276" height="276" viewBox="0 0 276 276" fill="none" xmlns="http://www.w3.org/2000/svg">
<circle cx="138" cy="138" r="138" fill="#3494CE"/>
<g filter="url(#filter0_d)">
<path d="M146.178 61.5255C148.215 62.0322 150.053 62.6494 151.721 63.3538C161.154 67.3461 164.838 74.1949 165.506 80.8534C166.29 88.6906 166.028 106.19 161.066 115.854C158.642 120.577 154.092 123.492 147.911 125.143C147.911 125.143 147.911 125.143 147.911 125.148C141.445 126.877 133.196 127.226 123.714 126.824C115.022 126.459 108.341 124.829 103.045 122.744H103.04C97.0418 120.379 92.8255 117.426 89.4989 115.071C83.2312 110.63 68.6031 108.018 73.043 92.6085C75.1484 85.3009 80.1333 79.1669 84.7917 74.7374C86.1285 73.4672 87.4345 72.3385 88.6429 71.3618C90.5478 69.8217 92.1981 68.6572 93.2962 67.9246C94.1959 67.3254 94.7229 67.0117 94.7229 67.0117C95.9337 66.4875 97.142 65.9964 98.3424 65.5387C116.354 58.5999 133.448 58.3456 146.178 61.5255Z" fill="url(#paint0_linear)"/>
<path opacity="0.13" d="M113.948 73.5988C114.997 73.905 115.941 74.2774 116.797 74.7042C121.646 77.1159 123.54 81.255 123.882 85.2782C124.286 90.0137 124.152 100.588 121.602 106.428C120.355 109.281 118.015 111.042 114.841 112.041C114.841 112.041 114.841 112.041 114.841 112.043C111.516 113.089 107.277 113.299 102.403 113.056C97.9372 112.835 94.5024 111.85 91.78 110.591H91.7776C88.695 109.161 86.528 107.377 84.8181 105.954C81.5943 103.272 74.0772 101.693 76.36 92.3802C77.4423 87.9649 80.0028 84.2577 82.3991 81.5816C83.0852 80.8154 83.7567 80.1342 84.3761 79.5428C85.3581 78.6121 86.2064 77.9078 86.7694 77.4656C87.2323 77.103 87.502 76.9129 87.502 76.9129C88.1244 76.5992 88.7464 76.3008 89.3634 76.0231C98.6207 71.8302 107.405 71.6759 113.948 73.5988Z" fill="#F19195"/>
<path d="M151.722 63.3545C161.154 67.3469 164.838 74.1957 165.506 80.8542C166.291 88.6914 166.028 106.191 161.067 115.855C158.642 120.578 154.092 123.493 147.911 125.144C147.911 125.144 154.989 122.252 157.951 112.676C159.768 106.795 160.789 100.7 159.256 93.8703C158.298 89.6037 154.182 88.321 148.958 90.4099C143.733 92.4999 141.078 95.7173 132.79 94.2492C124.786 92.8315 118.997 94.6721 118.424 94.7403C119.19 94.594 124.604 91.1978 131.221 91.9551C138.643 92.8033 147.849 87.2528 150.202 82.1602C152.346 77.5119 155.822 70.4009 151.722 63.3545Z" fill="url(#paint1_linear)"/>
<path d="M128.244 109.848C128.244 109.848 119.709 108.975 114.663 116.116C111.665 120.358 107.317 122.202 103.045 122.745H103.04C97.0419 120.38 92.8257 117.427 89.499 115.072C89.499 115.072 97.4406 119.315 104.559 116.467C109.066 114.664 115.357 106.541 128.244 109.848Z" fill="url(#paint2_linear)"/>
<path d="M88.6432 71.3623C89.3166 72.5653 90.3296 73.861 91.8492 74.9409C95.9033 77.8203 102.646 77.6326 102.646 77.6326C94.4046 79.5915 88.3552 77.0976 84.792 74.7379C86.1287 73.4677 87.4348 72.339 88.6432 71.3623Z" fill="url(#paint3_linear)"/>
<path d="M98.3432 65.5397C100.428 66.4422 103.557 67.2263 107.693 67.6222C115.007 68.3187 116.051 72.0647 116.051 72.0647C110.581 67.7506 102.819 70.6685 97.6851 70.0568C95.5386 69.8073 94.1684 68.8973 93.2969 67.9256C94.1966 67.3264 94.4124 67.1749 94.7904 66.9822C95.9655 66.383 97.1428 65.9974 98.3432 65.5397Z" fill="url(#paint4_linear)"/>
<path d="M140.674 71.7866C140.674 71.7866 137.651 71.0693 136.234 68.5242C134.794 65.9355 132.106 65.2489 129.854 69.0384C128.162 71.8816 125.614 72.3471 125.614 72.3471C125.614 72.3471 128.116 72.6297 130.463 70.3651C132.813 68.1027 135.448 69.8277 137.45 70.9591C139.453 72.0928 140.674 71.7866 140.674 71.7866Z" fill="url(#paint5_linear)"/>
<path d="M94.3741 93.6531C94.3741 93.6531 95.2021 95.9166 97.292 96.0479C99.3821 96.1788 101.297 94.7853 100.426 92.7827C99.5546 90.7802 98.5106 89.7362 96.4642 90.6065C94.418 91.4769 93.9755 92.8882 94.3741 93.6531Z" fill="url(#paint6_linear)"/>
<path d="M93.2966 103.491C93.2966 103.491 92.1497 105.972 93.7205 106.06C95.2889 106.147 96.4203 104.449 95.245 102.621C94.0703 100.793 93.6589 102.332 93.2966 103.491Z" fill="url(#paint7_linear)"/>
<path d="M104.908 93.7844C104.908 93.7844 104.952 95.3951 106.214 95.2639C107.477 95.1343 107.248 93.4232 106.073 92.5517C104.895 91.6814 104.79 93.1585 104.908 93.7844Z" fill="url(#paint8_linear)"/>
<path d="M107.609 82.4654C107.609 82.4654 108.087 83.815 109.264 83.2495C110.439 82.6839 111.352 80.9411 109.612 80.2881C107.871 79.6351 107.349 80.8971 107.609 82.4654Z" fill="url(#paint9_linear)"/>
<path d="M150.071 108.889C150.071 108.889 150.333 110.02 151.464 109.542C152.595 109.062 153.945 107.016 152.464 106.058C150.986 105.1 149.636 107.191 150.071 108.889Z" fill="url(#paint10_linear)"/>
<path d="M147.806 114.112C147.806 114.112 148.503 114.504 148.983 114.112C149.462 113.721 149.505 111.414 148.395 112.067C147.284 112.72 147.025 113.634 147.806 114.112Z" fill="url(#paint11_linear)"/>
<path opacity="0.38" d="M160.653 93.2303C159.838 90.1105 157.139 87.7592 153.915 87.6219C153.648 87.6102 153.38 87.6156 153.118 87.6387C148.328 88.0809 142.953 93.085 138.513 93.2714C138.513 93.2714 137.163 93.5208 134.464 93.2714C134.464 93.2714 140.583 92.9554 144.457 90.2134C148.331 87.4703 151.509 84.6411 152.727 80.8105C153.946 76.98 154.208 75.2806 154.38 74.1058C154.555 72.9307 154.951 70.4731 154.774 69.0129C154.774 69.0129 160.846 71.4501 162.414 80.7229C163.98 89.9962 164.003 98.6149 161.782 106.516C161.782 106.516 162.088 98.7124 160.653 93.2303Z" fill="#FFFBD2"/>
<path opacity="0.38" d="M102.646 120.751C102.646 120.751 106.778 121.011 109.454 118.857C112.133 116.701 114.744 112.719 117.29 111.609C117.29 111.609 114.223 112.393 111.74 114.613C109.259 116.833 103.906 119.315 97.4404 118.531C97.4401 118.531 99.4968 120.293 102.646 120.751Z" fill="#FFFBD2"/>
<path d="M52.7765 109.788C54.2004 110.078 55.4986 110.86 56.7511 111.978C58.2522 113.318 59.666 115.133 61.1135 117.146C62.6921 119.351 64.3015 121.791 66.0779 124.09C67.4868 125.917 70.4458 127.82 74.1585 129.645C78.9197 131.992 84.9247 134.214 90.4625 135.98C97.3012 138.157 103.433 139.636 105.659 139.785C107.425 139.911 109.538 139.949 111.793 140.062C116.467 140.294 121.763 140.826 125.925 142.973C132.097 146.158 132.007 155.161 132.522 161.907L132.53 162.002C132.596 162.814 132.625 163.691 132.63 164.617C132.65 166.121 132.596 167.738 132.498 169.355C132.49 169.429 132.49 169.509 132.483 169.581C132.473 169.753 132.46 169.931 132.45 170.103C132.447 170.157 132.445 170.213 132.437 170.267C132.039 175.617 131.126 180.677 130.144 181.019C128.727 181.502 126.779 181.677 122.835 179.623C122.699 179.553 122.575 179.491 122.467 179.433C122.352 179.373 122.233 179.309 122.117 179.245C121.989 179.175 121.904 179.119 121.87 179.103C121.865 179.098 121.858 179.093 121.858 179.093H121.853C117.238 176.481 96.5068 172.877 83.3924 170.396C70.2816 167.915 56.9204 159.542 49.781 151.76C46.9119 148.626 43.0972 142.895 44.5751 131.224C45.2974 125.496 46.084 121.288 46.8348 118.203C46.976 117.611 47.1231 117.059 47.2644 116.549C47.4599 115.832 47.6477 115.192 47.8354 114.624C47.8504 114.58 47.866 114.536 47.8809 114.49C47.9251 114.349 47.9789 114.21 48.0223 114.074C48.3107 113.253 48.5831 112.587 48.8352 112.043C48.8401 112.025 48.8452 112.012 48.8559 111.993C49.4054 110.801 49.8608 110.235 50.1285 109.973C50.3054 109.796 50.4083 109.757 50.4083 109.757L50.4261 109.754C51.2493 109.615 52.0259 109.636 52.7765 109.788Z" fill="url(#paint12_linear)"/>
<path opacity="0.39" d="M48.8563 111.986C50.3728 115.696 63.129 139.052 96.2956 144.484C109.595 146.662 122.634 152.798 129.683 160.202C129.683 160.202 131.9 161.789 132.562 162.969C132.578 164.491 132.547 168.326 132.45 170.103C132.447 170.157 132.445 170.213 132.437 170.267C130.434 169.478 130.059 169.164 130.059 169.164C130.059 169.164 123.372 159.616 109.965 153.621C93.6014 146.307 87.7967 147.461 76.2584 142.196C61.0215 135.244 51.2779 124.357 47.2441 116.513C47.6501 114.824 48.4781 113.071 48.8563 111.986Z" fill="url(#paint13_linear)"/>
<path d="M54.4043 106.541C56.6746 106.446 59.7107 109.961 61.7028 113.323C62.2916 114.311 63.1916 115.951 64.6103 117.856C64.6182 117.861 64.6231 117.861 64.6231 117.861C66.7265 120.686 69.9781 124.105 75.0689 126.854L75.0738 126.859C78.2227 128.563 82.0925 130.013 86.8072 130.906C104.297 134.214 117.572 136.469 124.3 138.633C128.81 140.088 131.365 139.746 133.476 150.608C134.203 154.364 134.496 158.486 134.566 162.442C134.607 164.902 134.569 167.301 134.479 169.506C134.296 174.005 133.983 177.911 133.486 179.718C132.27 184.14 125.537 182.587 121.871 179.103C121.904 179.119 121.99 179.175 122.118 179.245C122.216 179.299 122.331 179.363 122.468 179.433C122.576 179.491 122.699 179.553 122.835 179.623C123.974 180.186 125.902 180.962 127.432 180.667C128.514 180.458 129.401 179.702 129.656 177.946C129.913 176.154 130.054 172.882 130.06 169.164L130.057 169.159C130.06 166.355 129.995 163.3 129.856 160.429L129.849 160.326C129.615 155.338 129.145 150.924 128.466 149.402C126.871 145.821 127.07 144.818 117.043 142.793C106.287 140.618 88.9413 138.147 73.3462 131.584C72.5135 131.237 71.8069 130.65 71.0816 130.162C66.3797 126.969 63.4355 123.586 61.2273 120.521C57.235 114.984 55.6205 110.454 50.4269 109.754C50.4219 109.749 50.4141 109.749 50.4092 109.752C50.4092 109.752 50.5455 109.502 50.7925 109.143C51.4323 108.23 52.7769 106.608 54.4043 106.541Z" fill="url(#paint14_linear)"/>
<path opacity="0.28" d="M129.855 160.429C131.192 162.038 134.244 162.406 134.565 162.439C134.607 164.902 134.565 167.301 134.478 169.506H134.471C132.219 170.419 130.059 169.162 130.059 169.162C130.059 166.357 129.995 163.3 129.855 160.429Z" fill="url(#paint15_linear)"/>
<path opacity="0.54" d="M50.7918 109.142C51.3164 109.189 52.0486 109.423 52.7766 109.788C53.5503 110.181 54.329 110.726 54.8535 111.364C56.1646 112.942 58.2523 115.647 59.9386 117.811C61.6202 119.979 62.6278 124.755 73.5283 130.534C77.5543 132.671 83.7706 134.46 90.4624 135.98C97.7615 137.635 105.618 138.967 111.793 140.062C115.279 140.679 118.23 141.221 120.238 141.699C127.449 143.432 128.565 143.916 130.072 152.232C130.503 154.621 130.771 157.811 130.91 161.171C130.913 161.215 130.915 161.256 130.913 161.3C131.023 163.943 131.041 166.696 131 169.241C131 169.38 130.997 169.521 130.987 169.655C130.884 174.923 130.478 179.239 129.913 179.823C128.707 181.064 127.64 181.375 125.9 180.774C126.012 180.802 126.72 180.944 127.432 180.666C128.162 180.391 128.897 179.684 129.038 177.992C129.167 176.452 129.305 172.151 129.316 167.434C129.313 167.429 129.313 167.429 129.313 167.429C129.321 164.842 129.28 162.128 129.185 159.68C129.048 156.348 128.799 153.49 128.37 152.065C127.058 147.672 126.837 145.307 118.112 143.401C109.392 141.494 84.1283 137.607 73.3613 131.892C62.6023 126.177 60.9443 121.133 58.7847 117.899C56.6328 114.665 54.0593 110.929 51.9254 110.368C50.9303 110.109 50.4036 110.006 50.1289 109.973C50.3058 109.795 50.4087 109.757 50.4087 109.757L50.4265 109.754C50.4214 109.749 50.4136 109.749 50.4087 109.751C50.4087 109.752 50.545 109.502 50.7918 109.142Z" fill="url(#paint16_linear)"/>
<path opacity="0.29" d="M52.8866 121.715C59.9123 132.88 64.6534 137.978 75.1321 143.227C82.0916 146.714 98.3647 150.446 116.435 161.853C127.215 168.656 130.094 179.407 131.387 182.104C128.567 183.202 124.302 181.412 121.87 179.101C121.865 179.096 121.857 179.091 121.857 179.091H121.852C120.333 178.23 117.065 177.265 112.895 176.268C112.386 175.857 111.866 175.44 111.348 175.026C102.033 167.599 80.5306 159.2 69.8464 157.323C63.0105 156.123 47.0893 139.407 44.2457 129.175C43.8398 127.712 46.5259 117.912 46.9477 116.707C48.0732 113.486 52.8866 121.715 52.8866 121.715Z" fill="#721025"/>
<path d="M44.8236 116.876C44.8236 116.876 47.5106 122.516 50.2177 127.473C51.6494 130.088 53.0889 132.514 54.1381 133.813C58.8507 139.646 71.2036 148.575 77.5741 152.536C78.7281 153.259 80.1084 153.992 81.6408 154.748C90.4921 159.097 104.504 163.897 111.07 168.273C112.599 169.291 114.414 170.856 116.216 172.749C116.221 172.756 116.227 172.756 116.232 172.761C119.075 175.73 121.911 179.517 123.654 183.312C123.798 183.636 123.941 183.952 124.071 184.276C124.071 184.289 124.076 184.294 124.081 184.299C124.975 186.49 125.474 188.66 125.363 190.652C125.312 191.616 125.098 192.68 124.756 193.801C124.238 195.544 123.423 197.426 122.468 199.315C121.842 200.562 121.147 201.804 120.43 203.01L120.386 203.097C117.152 208.55 113.548 213.17 113.548 213.17C113.548 213.17 111.445 208.393 105.579 202.328C104.614 201.331 103.54 200.29 102.355 199.233C99.4343 196.624 95.8401 193.891 91.4564 191.287C90.2789 190.582 89.0376 189.891 87.7388 189.209C83.9396 187.217 80.5588 185.554 77.5041 184.086C65.5167 178.299 58.5859 175.476 51.089 167.286C51.089 167.286 51.089 167.286 51.0841 167.28C50.5361 166.679 49.9806 166.052 49.4206 165.386C44.7721 159.871 41.7981 154.755 39.9367 150.516C39.7362 150.058 39.5457 149.614 39.3708 149.181C37.628 144.868 37.0725 141.605 37.0034 139.975C36.9412 138.525 37.7434 134.535 38.9674 130.234C39.2322 129.291 39.5226 128.334 39.8288 127.386C41.307 122.766 43.1556 118.36 44.8236 116.876Z" fill="#EF6D7F"/>
<path opacity="0.06" d="M116.217 172.749C116.221 172.756 116.227 172.756 116.232 172.761C119.076 175.73 121.911 179.517 123.654 183.312C123.788 183.654 123.927 183.975 124.071 184.276C124.071 184.289 124.076 184.294 124.081 184.299C124.976 186.49 125.474 188.66 125.364 190.652C125.312 191.616 125.099 192.68 124.757 193.801C124.238 195.544 123.423 197.426 122.469 199.315C121.842 200.562 121.148 201.804 120.431 203.01L120.387 203.097C117.152 208.55 113.548 213.17 113.548 213.17C113.548 213.17 111.446 208.393 105.579 202.328C106.353 200.886 107.247 198.801 107.46 196.647C107.841 192.788 102.591 187.176 102.368 186.934C102.707 187.176 110.671 192.708 111.366 187.441C112.08 182.065 110.302 175.856 106.862 172.293C106.862 172.293 110.579 174.314 111.52 171.815C111.954 170.676 113.946 171.15 116.217 172.749Z" fill="#FFF68D"/>
<path opacity="0.06" d="M49.0359 124.41C50.4676 127.027 53.0897 132.515 54.1389 133.814C58.8514 139.647 71.2044 148.576 77.5748 152.537C78.7289 153.26 80.1092 153.992 81.6415 154.748C82.2353 156.535 86.0686 156.923 85.6576 158.031C84.3 161.739 90.8583 178.385 90.8583 178.385C84.4334 176.074 78.0786 181.187 77.5049 184.087C65.5175 178.3 58.5867 175.477 51.0898 167.287C51.0898 167.287 51.0898 167.287 51.0849 167.281C50.5369 166.68 49.9814 166.053 49.4213 165.387C44.7728 159.872 41.7988 154.756 39.9375 150.517C40.1175 149.003 40.3485 147.514 40.6598 146.213C40.6598 146.213 46.4287 150.313 50.9122 151.18L46.4365 127.387C46.5906 126.757 46.7142 123.63 49.0359 124.41Z" fill="#FFF68D"/>
<path d="M39.8291 127.386C42.1066 131.003 45.9499 138.718 52.02 145.248C59.671 153.478 65.7354 156.943 77.1425 161.419C85.6135 164.743 100.249 172.15 112.08 182.066C117.512 186.618 121.122 190.727 124.757 193.802C124.238 195.545 123.423 197.427 122.469 199.316L120.43 203.013L120.387 203.098C120.387 203.098 116.314 192.059 110.203 186.251C95.6216 172.397 84.0682 170.718 75.1191 167.34C63.2801 162.869 57.5062 159.784 49.9987 150.015C43.1886 141.153 40.3251 134.227 38.9678 130.235C39.2326 129.291 39.5229 128.335 39.8291 127.386Z" fill="url(#paint17_linear)"/>
<path d="M39.3711 149.182C45.95 160.905 57.7633 167.438 67.1341 171.739C76.1497 175.878 82.1477 176.747 90.8114 184.637C95.4647 188.873 99.56 194.73 102.355 199.234C98.7478 196.236 97.4567 195.113 94.0324 192.889C87.7368 185.578 80.2221 181.151 69.4887 177.225C62.4446 174.649 56.0275 170.598 51.0893 167.286C51.0893 167.286 51.0893 167.286 51.0844 167.281C50.5364 166.682 49.9809 166.052 49.4209 165.386C44.2686 159.278 41.1788 153.658 39.3711 149.182Z" fill="url(#paint18_linear)"/>
<path d="M48.3354 116.64C49.1606 117.234 50.0448 118.234 50.9805 119.619C51.5929 120.524 52.2331 121.599 52.8862 122.841C55.7039 128.173 62.3158 139.976 73.2882 144.886C84.2608 149.794 98.3181 155.568 109.772 163.267C121.222 170.972 127.865 182.613 129.793 187.233C131.716 191.852 129.793 195.128 129.793 195.128C129.793 195.128 129.505 195.706 128.227 198.57C128.037 199.005 127.818 199.488 127.574 200.038C127.397 200.447 127.165 200.928 126.898 201.457C124.492 206.244 120.239 214.229 118.011 215.854C117.152 216.482 115.077 214.947 114.17 213.885C114.031 213.72 113.864 213.602 113.761 213.494C113.61 213.332 113.525 213.216 113.548 213.17C114.136 211.916 118.023 203.694 119.196 201.188C120.523 198.344 121.818 195.226 122.615 193.033C123.111 191.675 123.412 190.665 123.412 190.29C123.412 188.776 121.319 179.824 106.018 168.851C97.8963 163.031 91.2094 160.241 85.0807 157.804C85.0758 157.799 85.0708 157.799 85.0651 157.799C79.6537 155.637 74.6813 153.75 69.5348 150.274C68.5142 149.598 67.5372 148.91 66.6015 148.213C62.0745 144.858 58.5573 141.328 55.801 137.983C55.1943 137.245 54.624 136.518 54.0917 135.806C50.9807 131.631 49.0452 127.895 47.8032 125.33C47.4101 124.533 47.0938 123.846 46.8214 123.299C45.6773 120.969 44.8292 119.43 44.6101 118.319C44.6052 118.309 44.6053 118.296 44.6053 118.291C44.5824 118.134 44.5646 117.985 44.5589 117.846C44.5589 117.805 44.5518 117.771 44.5518 117.735C44.5695 117.118 44.8751 116.656 45.5467 116.252C45.7366 116.136 45.9271 116.061 46.1219 116.015C46.1762 115.997 46.2276 115.987 46.2789 115.982C46.9138 115.882 47.6004 116.103 48.3354 116.64Z" fill="#E56271"/>
<path opacity="0.41" d="M48.1225 145.464C48.1225 145.464 55.4138 156.943 64.2909 161.347C73.1699 165.751 81.8623 168.278 81.8623 168.278C81.8623 168.278 73.7489 164.669 72.2323 162.502C72.2323 162.502 87.899 168.35 91.3618 170.515C91.3618 170.515 80.973 164.306 70.8641 160.121C60.7558 155.933 53.1021 149.508 48.1225 142.577C43.1401 135.649 42.3457 134.348 42.3457 134.348C42.3457 134.348 44.5132 139.906 48.1225 145.464Z" fill="#FFFBCA"/>
<path opacity="0.41" d="M118.722 196.936C118.722 196.936 111.84 186.781 111.791 186.493C111.742 186.205 116.075 189.188 115.689 188.707C115.303 188.226 112.03 183.365 112.03 183.365C112.03 183.365 120.838 191.252 121.079 192.17H118.961C118.961 192.17 119.429 196.841 119.412 197.708L118.722 196.936Z" fill="#FFFBCA"/>
<path opacity="0.41" d="M66.0414 174.42C61.077 172.358 53.4545 168.741 50.7188 165.023C50.7188 165.023 61.4029 171.96 74.8307 176.867L74.381 176.795C71.5169 176.33 68.7198 175.533 66.0414 174.42Z" fill="#FFFBCA"/>
<path opacity="0.44" d="M122.919 192.168C124.936 194.909 126.88 196.647 127.939 199.233C127.749 199.667 127.831 199.495 127.574 200.038C126.942 201.37 126.343 202.686 125.379 204.292C125.379 204.292 121.947 203.722 119.412 200.719C120.749 197.699 122.121 194.361 122.919 192.168Z" fill="url(#paint19_linear)"/>
<g opacity="0.77">
<path opacity="0.77" d="M46.1217 116.016C45.0733 120.422 53.2489 132.993 59.1975 139.364C64.9615 145.531 67.9355 148.107 87.2197 156.874C105.301 165.515 111.167 170.59 115.627 175.055C119.669 179.091 121.874 183.094 123.335 185.74C123.631 186.269 123.896 186.75 124.14 187.159C124.762 188.228 124.942 189.261 124.942 190.082C124.942 191.097 124.669 191.791 124.654 191.843C121.741 200.813 114.541 213.574 114.476 213.695C114.363 213.898 114.27 213.939 114.17 213.885C114.062 213.834 113.946 213.68 113.766 213.505C113.761 213.5 113.761 213.5 113.761 213.495C113.723 213.451 113.687 213.412 113.655 213.376C113.304 212.991 113.177 212.685 113.299 212.499C113.381 212.392 120.143 200.118 123.024 191.254C123.065 191.149 123.603 189.671 122.643 188.038C122.394 187.616 122.124 187.125 121.823 186.575C120.409 184.017 118.271 180.143 114.401 176.279C110.046 171.924 104.308 166.957 86.4919 158.445C86.0117 158.226 85.5435 158.013 85.0809 157.804C85.076 157.8 85.071 157.8 85.0653 157.8C75.7484 153.532 70.3835 150.742 66.6016 148.213C62.9588 145.781 60.7735 143.59 57.9329 140.549C52.441 134.67 45.2918 123.091 44.6101 118.319C44.6052 118.309 44.6052 118.296 44.6052 118.29C44.5824 118.134 44.5646 117.985 44.5589 117.846C44.5589 117.805 44.5518 117.771 44.5518 117.735C44.5695 117.118 44.8751 116.656 45.5467 116.252C45.7363 116.136 45.9267 116.062 46.1217 116.016Z" fill="url(#paint20_linear)"/>
</g>
<path opacity="0.06" d="M102.501 195.038C102.501 195.038 99.6629 190.341 96.8271 187.328C96.8271 187.328 102.056 186.706 102.501 195.038Z" fill="#FFF68D"/>
<path opacity="0.06" d="M90.8574 164.342C90.8574 164.342 92.7338 165.065 95.7292 166.833C95.7292 166.833 94.5751 164.597 91.3613 163.476C88.1502 162.357 88.1396 163.057 90.8574 164.342Z" fill="#FFF68D"/>
<path opacity="0.1" d="M50.8117 139.446C50.8117 139.446 53.6756 144.155 57.1387 146.115C57.1387 146.115 52.516 140.53 51.0585 137.402L53.3718 139.381C53.3718 139.381 49.714 134.872 48.4258 133.08C47.1403 131.288 48.3664 134.908 50.8117 139.446Z" fill="#BE1E2D"/>
<path opacity="0.1" d="M75.1317 170.716C75.1317 170.716 61.8226 166.8 54.2051 159.206C54.2051 159.206 56.1999 167.127 75.1317 170.716Z" fill="#BE1E2D"/>
<path opacity="0.1" d="M113.155 206.417C113.155 206.417 110.276 202.48 107.962 201.455C107.962 201.455 109.345 201.203 110.885 202.861C110.885 202.861 110.584 201.411 109.579 200.581C109.579 200.581 112.9 203.607 113.155 206.417Z" fill="#BE1E2D"/>
<path d="M204.705 69.189C204.877 73.7141 205.489 79.3748 202.789 81.8996C202.375 82.2852 202.021 82.6784 201.712 83.0693C201.707 83.0743 201.707 83.0743 201.702 83.0795C201.43 83.4289 201.191 83.7787 200.992 84.1309H200.987C200.72 84.5833 200.512 85.0382 200.35 85.4882C200.26 85.7274 200.188 85.9689 200.124 86.203C200.072 86.3855 200.031 86.5707 199.995 86.7479C199.815 87.6555 199.82 88.5013 199.915 89.2135C200.177 91.1287 202.355 108.41 228.825 141.541C235.765 150.233 240.579 161.041 238.53 181.414C238.53 181.414 238.18 184.831 236.29 188.487C236.29 188.492 236.29 188.492 236.285 188.497C236.18 188.708 236.064 188.916 235.941 189.125C235.923 189.161 235.897 189.204 235.876 189.24C235.594 189.731 235.285 190.222 234.941 190.708C233.401 192.901 231.208 194.945 228.1 196.136C226.516 196.752 224.693 197.138 222.598 197.218C208.232 197.74 205.358 194.475 197.915 196.04C192.383 197.207 185.043 200.66 176.006 199.436C173.353 199.076 170.546 198.313 167.599 196.966C167.088 196.737 166.572 196.485 166.049 196.213C166.049 196.213 155.211 190.294 153.512 178.109C153.249 176.252 153.131 174.471 153.126 172.753C153.085 162.072 157.545 153.932 162.042 147.631C162.08 147.58 162.121 147.523 162.158 147.464C167.173 140.402 182.213 116.801 182.983 94.1136V94.0445C183.043 92.5146 183.028 90.9902 182.938 89.4734C182.938 89.4734 182.938 88.9823 182.791 88.3037C182.67 87.7406 182.452 87.0386 182.051 86.3806C181.834 86.0413 181.58 85.7069 181.256 85.4088C180.912 85.0848 180.488 84.8096 179.981 84.5988C177.02 83.3776 176.325 80.8557 176.585 74.8478C176.847 68.8393 179.02 68.0554 182.416 67.1839C183.002 67.0373 183.596 66.896 184.192 66.7854C187.048 66.2583 189.882 66.4562 191.286 69.8471C191.286 69.8471 191.81 70.6004 192.139 69.6801C192.429 68.8602 192.342 67.639 192.53 67.1094C193.131 65.3922 204.532 64.6593 204.705 69.189Z" fill="url(#paint21_linear)"/>
<path opacity="0.3" d="M200.986 84.1314C200.577 84.8307 200.295 85.5299 200.123 86.2036C200.086 86.2036 200.066 86.2036 200.066 86.2036C200.066 86.2036 193.536 84.4862 188.119 86.2036C185.559 87.0187 183.985 88.4044 182.892 88.9004C182.677 87.381 182.196 86.2781 181.255 85.4092C181.499 85.2162 181.859 85.1622 182.242 84.967C185.05 83.5272 194.845 81.1105 200.986 84.1314Z" fill="#B02E24"/>
<path d="M204.704 69.189C204.876 73.714 205.488 79.3747 202.789 81.8995C202.375 82.2851 202.02 82.6784 201.712 83.0692C201.707 83.0743 201.707 83.0743 201.701 83.0795C201.429 83.4289 201.19 83.7786 200.992 84.1308H200.987C200.719 84.5833 200.511 85.0382 200.349 85.4882C199.362 85.3519 198.462 84.9433 197.575 84.7685C193.819 84.0201 191.315 84.0023 187.335 84.7685C184.937 85.2284 183.366 85.6449 182.05 86.3804C181.834 86.0411 181.579 85.7067 181.255 85.4086C180.911 85.0846 180.487 84.8094 179.98 84.5986C177.019 83.3774 176.325 80.8555 176.584 74.8476C176.846 68.8391 179.019 68.0552 182.415 67.1837C183.001 67.0371 183.595 66.8958 184.191 66.7852C187.048 66.2581 189.881 66.456 191.285 69.8469C191.285 69.8469 191.809 70.6002 192.138 69.6799C192.429 68.86 192.341 67.6388 192.529 67.1092C193.13 65.3921 204.531 64.6592 204.704 69.189Z" fill="url(#paint22_linear)"/>
<mask id="mask0" mask-type="alpha" maskUnits="userSpaceOnUse" x="153" y="66" width="72" height="133">
<path d="M187.641 66.7845C184.137 77.258 185.486 76.6181 187.054 106.836C187.8 121.202 193.831 135.056 196.066 141.566C202.876 161.418 225.523 174.462 224.687 175.125C224.687 175.125 182.442 200.512 171.3 198.06C161.215 195.839 152.466 184.607 153.125 172.753C153.083 162.071 157.544 153.931 162.04 147.63C162.079 147.579 162.12 147.522 162.156 147.463C167.171 140.401 182.211 116.8 182.982 94.1127V94.0436C183.041 92.5137 183.026 90.9893 182.936 89.4725C182.936 89.4725 182.936 85.8167 179.979 84.5981C177.018 83.3768 176.324 80.855 176.584 74.847C176.845 68.8386 179 67.9801 182.414 67.1832C183.672 66.89 186.116 66.2217 187.641 66.7845Z" fill="url(#paint23_linear)"/>
</mask>
<g mask="url(#mask0)">
<path opacity="0.2" d="M187.641 66.7845C184.137 77.258 185.486 76.6181 187.054 106.836C187.8 121.202 193.831 135.056 196.066 141.566C202.876 161.418 225.523 174.462 224.687 175.125C224.687 175.125 182.442 200.512 171.3 198.06C161.215 195.839 152.466 184.607 153.125 172.753C153.083 162.071 157.544 153.931 162.04 147.63C162.079 147.579 162.12 147.522 162.156 147.463C167.171 140.401 182.211 116.8 182.982 94.1127V94.0436C183.041 92.5137 183.026 90.9893 182.936 89.4725C182.936 89.4725 182.936 85.8167 179.979 84.5981C177.018 83.3768 176.324 80.855 176.584 74.847C176.845 68.8386 179 67.9801 182.414 67.1832C183.672 66.89 186.116 66.2217 187.641 66.7845Z" fill="url(#paint24_linear)"/>
<path opacity="0.17" d="M204.704 69.1864C204.864 73.7109 205.488 79.3744 202.789 81.8967C200.092 84.421 199.655 87.2928 199.915 89.2107C200.176 91.1285 202.354 108.407 228.824 141.538C235.765 150.23 240.578 161.04 238.529 181.412C238.529 181.412 238.179 184.828 236.289 188.484C236.289 188.489 236.289 188.489 236.284 188.497C236.159 188.741 236.023 188.993 235.875 189.238C235.171 188.448 234.711 187.844 234.654 187.679C234.482 187.157 237.267 182.54 231.346 175.797C225.428 169.048 224.294 168.982 224.294 168.982C224.294 168.982 226.166 153.981 217.505 141.317C211.874 133.082 200.596 118.246 197.22 100.615C193.56 81.5005 200.784 85.2591 202.179 77.2792C203.748 68.3327 199.938 64.7541 192.95 66.6642C192.96 66.6282 193.552 66.3837 193.742 66.312C195.415 65.6825 204.557 64.9804 204.704 69.1864Z" fill="#A61F25"/>
<path opacity="0.13" d="M201.7 83.0796C199.971 85.2853 199.696 87.5888 199.914 89.2136C200.176 91.1287 202.354 108.41 228.824 141.541C235.764 150.233 240.578 161.041 238.529 181.414C238.529 181.414 238.179 184.831 236.289 188.487C236.289 188.492 236.289 188.492 236.284 188.497C236.158 188.744 236.022 188.993 235.875 189.24C235.592 189.731 235.284 190.222 234.939 190.708C234.816 190.385 234.742 190.202 234.742 190.202C234.742 190.202 239.009 185.51 234.832 176.191C234.832 176.191 237.529 166.152 232.739 153.287C228.245 141.214 221.594 137.268 211.496 119.768C211.496 119.768 199.57 100.528 199.13 88.5117C199.13 88.5117 199.336 85.1284 201.7 83.0796Z" fill="#7F2229"/>
<path d="M201.397 152.158C211.146 153.726 230.474 170.614 234.832 176.188C239.105 181.664 236.382 188.25 236.289 188.484C236.284 188.489 236.284 188.489 236.284 188.489V188.497C234.762 191.443 232.24 194.546 228.098 196.132C226.515 196.749 224.692 197.135 222.597 197.215C208.231 197.737 205.357 194.472 197.914 196.04C192.382 197.205 185.042 200.657 176.005 199.434C173.352 199.073 170.544 198.313 167.598 196.963C160.215 184.543 164.658 175.054 172.144 165.303C179.633 155.554 191.643 150.593 201.397 152.158Z" fill="url(#paint25_linear)"/>
<path d="M197.089 157.87C200.845 157.937 204.151 159.41 211.105 163.521C213.758 165.089 216.928 167.069 220.042 169.29L220.058 169.306C227.042 174.303 233.709 180.558 233.436 186.245C233.192 191.433 230.241 194.546 228.099 196.135C226.515 196.752 224.692 197.138 222.597 197.218C220.816 197.279 219.206 197.289 217.749 197.248H217.723C207.442 196.996 204.429 194.667 197.915 196.04C196.447 196.349 194.781 196.809 192.955 197.3C187.912 198.642 181.657 200.184 175.018 199.285C171.178 196.485 169.679 192.623 168.921 188.289C168.008 183.065 169.617 177.142 176.147 168.784C182.677 160.424 189.035 158.691 194.256 158.038C195.266 157.911 196.189 157.85 197.089 157.87Z" fill="#EF6D7F"/>
<path opacity="0.13" d="M210.542 196.673C210.542 196.673 211.048 194.046 209.699 190.909C208.351 187.775 202.812 184.086 196.345 186.698C192.415 188.287 209.133 196.47 209.133 196.47L210.542 196.673Z" fill="#7F2229"/>
<path d="M198.173 186.421C199.574 186.382 200.88 186.524 202.065 186.827C202.075 186.827 202.081 186.832 202.091 186.832C205.42 187.693 207.8 189.85 208.793 193.12C210.099 197.416 207.865 201.344 205.037 201.558C205.032 201.558 205.032 201.558 205.032 201.558C204.939 201.568 204.839 201.568 204.746 201.568C202.065 201.532 200.42 199.239 200.132 198.805C200.122 198.779 200.106 198.758 200.091 198.738C200.091 198.738 198.957 202.262 194.78 202.18C194.445 202.175 194.126 202.149 193.812 202.108C193.812 202.1 193.812 202.1 193.812 202.1C190.234 201.62 188.228 198.854 188.467 194.647C188.73 190.077 192.82 186.549 198.173 186.421Z" fill="url(#paint26_linear)"/>
<path opacity="0.08" d="M207.608 161.517C211.557 163.874 218.093 167.656 223.604 172.036C223.65 172.075 223.705 172.116 223.756 172.162C229.229 176.541 233.649 181.508 233.435 186.246C233.206 191.292 230.24 194.547 228.098 196.136C227.659 196.308 227.198 196.459 226.718 196.591C226.712 196.591 226.712 196.596 226.712 196.596C225.473 196.946 224.106 197.159 222.596 197.218C220.815 197.28 215.611 197.107 214.154 197.066C214.843 196.997 218.584 194.249 220.527 186.412C222.79 177.273 212.138 165.504 207.608 161.517Z" fill="#7F2229"/>
<path opacity="0.13" d="M223.756 172.162C229.229 176.541 233.649 181.507 233.435 186.245C233.206 191.292 230.24 194.547 228.098 196.136C227.658 196.308 227.198 196.459 226.718 196.591C228.311 195.971 231.402 193.156 231.805 186.893C232.26 179.841 225.537 173.641 223.756 172.162Z" fill="#7F2229"/>
<path opacity="0.13" d="M202.092 186.832C205.421 187.693 207.801 189.85 208.794 193.12C210.1 197.416 207.866 201.344 205.038 201.557C205.195 201.452 208.297 199.375 208.331 195.974C208.362 192.485 206.429 187.96 202.092 186.832Z" fill="#7F2229"/>
<path opacity="0.13" d="M199.736 196.511C199.701 197.17 199.711 198.241 200.092 198.738C200.092 198.738 198.958 202.262 194.78 202.18C194.446 202.175 194.128 202.149 193.813 202.108C193.813 202.1 193.813 202.1 193.813 202.1C193.813 202.1 199.184 201.162 199.736 196.511Z" fill="#7F2229"/>
<path opacity="0.5" d="M170.069 141.001C170.069 141.001 167.423 144.953 166.585 146.351C165.745 147.752 164.835 149.86 165.364 150.701C165.892 151.539 167.611 150.799 169.259 149.243C170.907 147.688 172.822 144.937 173.264 143.765C174.591 140.245 174.311 137.109 173.719 135.831C173.129 134.556 172.992 135.808 170.069 141.001Z" fill="#FFF4DA"/>
<path opacity="0.2" d="M178.859 75.6577C178.859 75.6577 178.509 78.5293 179.468 80.0976C180.424 81.6632 182.427 82.1876 182.69 79.663C182.949 77.1357 183.386 72.2614 181.643 71.8271C179.903 71.3901 178.779 72.7421 178.859 75.6577Z" fill="white"/>
</g>
<mask id="mask1" mask-type="alpha" maskUnits="userSpaceOnUse" x="168" y="158" width="32" height="42">
<path d="M199.129 180.692C199.135 189.07 195.806 193.873 191.548 197.67C186.502 199.012 181.656 200.184 175.018 199.285C170.725 198.2 169.678 192.624 168.92 188.289C168.007 183.065 169.616 177.142 176.146 168.784C182.676 160.424 189.034 158.691 194.255 158.038C195.265 157.912 199.12 167.918 199.129 180.692Z" fill="url(#paint27_linear)"/>
</mask>
<g mask="url(#mask1)">
<path opacity="0.23" d="M199.129 180.692C199.135 189.07 195.806 193.873 191.548 197.67C186.502 199.012 181.656 200.184 175.018 199.285C170.725 198.2 169.678 192.624 168.92 188.289C168.007 183.065 169.616 177.142 176.146 168.784C182.676 160.424 189.034 158.691 194.255 158.038C195.265 157.912 199.12 167.918 199.129 180.692Z" fill="url(#paint28_linear)"/>
<path opacity="0.09" d="M174.625 194.092C175.075 194.789 175.941 195.151 176.742 194.93C177.477 194.73 178.24 194.177 178.35 192.781C178.571 189.989 178.823 182.426 177.006 182.189C175.291 181.963 171.265 188.899 174.625 194.092Z" fill="#FFF68D"/>
<path opacity="0.09" d="M178.285 173.802C178.285 173.802 177.55 175.725 179.18 175.782C180.813 175.838 182.51 171.63 181.944 169.951C181.379 168.272 179.28 170.617 178.285 173.802Z" fill="#FFF68D"/>
<path opacity="0.48" d="M191.016 197.402C191.016 197.402 191.891 199.711 194.019 198.232C196.145 196.757 195.803 193.651 194.299 192.543C192.796 191.435 189.533 193.556 191.016 197.402Z" fill="#FFF68D"/>
<path opacity="0.28" d="M180.088 185.655C180.088 185.85 181.001 187.385 181.721 186.143C182.438 184.904 182.307 182.945 181.328 183.629C180.348 184.315 180.088 184.709 180.088 185.655Z" fill="#FFF68D"/>
<path opacity="0.09" d="M184.391 176.435C184.189 176.766 184.109 177.162 184.204 177.537C184.279 177.828 184.441 178.064 184.8 177.854C185.518 177.427 185.877 176.111 185.292 175.838C184.945 175.679 184.608 176.08 184.391 176.435Z" fill="#FFF68D"/>
<path opacity="0.09" d="M183.747 193.883C183.747 193.883 183.618 195.451 184.5 195.451C185.382 195.451 186.426 192.544 185.837 191.631C185.251 190.716 184.043 192.022 183.747 193.883Z" fill="#FFF68D"/>
<path opacity="0.09" d="M186.577 170.699C187.089 170.2 188.24 169.362 187.621 168.612C187.001 167.858 185.71 169.46 185.605 170.113C185.497 170.766 185.932 171.326 186.577 170.699Z" fill="#FFF68D"/>
<path opacity="0.28" d="M173.326 179.908C173.326 179.908 173.067 182.258 174.113 181.965C175.157 181.669 176.332 178.438 175.19 178.014C174.047 177.589 173.519 178.96 173.326 179.908Z" fill="#FFF68D"/>
<path opacity="0.5" d="M175.099 159.092C178.042 156.532 180.073 155.092 179.016 154.663C176.628 153.696 172.137 157.521 172.024 160.285C171.902 163.329 173.921 160.115 175.099 159.092Z" fill="#FFF4DA"/>
<path opacity="0.09" d="M189.644 182.366C189.644 182.366 191.034 182.106 191.122 181.322C191.209 180.538 190.035 179.885 189.644 180.582C189.25 181.278 188.423 182.366 189.644 182.366Z" fill="#FFF68D"/>
<path opacity="0.28" d="M192.908 175.784C192.908 175.784 193.865 176.378 194.083 175.802C194.299 175.226 193.6 174.095 193.078 174.616C192.559 175.139 192.554 175.609 192.908 175.784Z" fill="#FFF68D"/>
<path opacity="0.09" d="M194.125 164.52C194.125 164.52 195.085 165.476 195.303 164.52C195.521 163.561 195.259 162.56 194.344 162.648C193.431 162.735 193.591 164.149 194.125 164.52Z" fill="#FFF68D"/>
<path opacity="0.09" d="M193.392 166.391C193.392 166.391 193.631 166.913 193.814 166.391C193.996 165.869 193.706 165.651 193.392 165.694C193.081 165.738 193.392 166.391 193.392 166.391Z" fill="#FFF68D"/>
</g>
<mask id="mask2" mask-type="alpha" maskUnits="userSpaceOnUse" x="170" y="164" width="25" height="33">
<path d="M171.352 183.322C170.683 186.124 170.773 189.078 171.85 191.751C172.707 193.88 174.218 196.003 176.887 196.51C182.633 197.602 189.631 194.389 192.661 190.708C195.692 187.024 195.585 168.739 190.065 164.943C185.021 161.474 174.265 171.12 171.352 183.322Z" fill="url(#paint29_linear)"/>
</mask>
<g mask="url(#mask2)">
<path opacity="0.11" d="M171.352 183.322C170.683 186.124 170.773 189.078 171.85 191.751C172.707 193.88 174.218 196.003 176.887 196.51C182.633 197.602 189.631 194.389 192.661 190.708C195.692 187.024 195.585 168.739 190.065 164.943C185.021 161.474 174.265 171.12 171.352 183.322Z" fill="url(#paint30_linear)"/>
<path opacity="0.54" d="M170.142 174.8C170.142 174.8 176.646 160.776 190.065 157.205C190.065 157.205 183.895 155.752 176.234 163.794C170.314 170.483 170.142 174.8 170.142 174.8Z" fill="#FFFBCA"/>
</g>
</g>
<defs>
<filter id="filter0_d" x="37" y="59.5649" width="204.006" height="158.435" filterUnits="userSpaceOnUse" color-interpolation-filters="sRGB">
<feFlood flood-opacity="0" result="BackgroundImageFix"/>
<feColorMatrix in="SourceAlpha" type="matrix" values="0 0 0 0 0 0 0 0 0 0 0 0 0 0 0 0 0 0 127 0"/>
<feOffset dx="2" dy="2"/>
<feColorMatrix type="matrix" values="0 0 0 0 0 0 0 0 0 0 0 0 0 0 0 0 0 0 0.4 0"/>
<feBlend mode="normal" in2="BackgroundImageFix" result="effect1_dropShadow"/>
<feBlend mode="normal" in="SourceGraphic" in2="effect1_dropShadow" result="shape"/>
</filter>
<linearGradient id="paint0_linear" x1="187.813" y1="93.2699" x2="59.5284" y2="93.2699" gradientUnits="userSpaceOnUse">
<stop stop-color="#E1636B"/>
<stop offset="1" stop-color="#EF6D7F"/>
</linearGradient>
<linearGradient id="paint1_linear" x1="168.933" y1="94.8476" x2="65.6661" y2="91.6151" gradientUnits="userSpaceOnUse">
<stop stop-color="#F6C7C3"/>
<stop offset="1" stop-color="#F7E2C5"/>
</linearGradient>
<linearGradient id="paint2_linear" x1="168.296" y1="117.64" x2="62.5998" y2="114.332" gradientUnits="userSpaceOnUse">
<stop stop-color="#F6C7C3"/>
<stop offset="1" stop-color="#F7E2C5"/>
</linearGradient>
<linearGradient id="paint3_linear" x1="169.556" y1="77.2606" x2="63.8639" y2="73.9522" gradientUnits="userSpaceOnUse">
<stop stop-color="#F6C7C3"/>
<stop offset="1" stop-color="#F7E2C5"/>
</linearGradient>
<linearGradient id="paint4_linear" x1="169.761" y1="70.7607" x2="64.0681" y2="67.4523" gradientUnits="userSpaceOnUse">
<stop stop-color="#F6C7C3"/>
<stop offset="1" stop-color="#F7E2C5"/>
</linearGradient>
<linearGradient id="paint5_linear" x1="172.359" y1="70.7128" x2="66.679" y2="67.4048" gradientUnits="userSpaceOnUse">
<stop stop-color="#F6C7C3"/>
<stop offset="1" stop-color="#F7E2C5"/>
</linearGradient>
<linearGradient id="paint6_linear" x1="169.003" y1="95.4101" x2="63.2902" y2="92.1011" gradientUnits="userSpaceOnUse">
<stop stop-color="#F6C7C3"/>
<stop offset="1" stop-color="#F7E2C5"/>
</linearGradient>
<linearGradient id="paint7_linear" x1="168.658" y1="106.255" x2="62.9532" y2="102.946" gradientUnits="userSpaceOnUse">
<stop stop-color="#F6C7C3"/>
<stop offset="1" stop-color="#F7E2C5"/>
</linearGradient>
<linearGradient id="paint8_linear" x1="167.676" y1="95.7161" x2="64.6511" y2="92.4912" gradientUnits="userSpaceOnUse">
<stop stop-color="#F6C7C3"/>
<stop offset="1" stop-color="#F7E2C5"/>
</linearGradient>
<linearGradient id="paint9_linear" x1="169.352" y1="83.6472" x2="63.6707" y2="80.3392" gradientUnits="userSpaceOnUse">
<stop stop-color="#F6C7C3"/>
<stop offset="1" stop-color="#F7E2C5"/>
</linearGradient>
<linearGradient id="paint10_linear" x1="237.531" y1="110.437" x2="93.9822" y2="105.943" gradientUnits="userSpaceOnUse">
<stop stop-color="#F6C7C3"/>
<stop offset="1" stop-color="#F7E2C5"/>
</linearGradient>
<linearGradient id="paint11_linear" x1="202.071" y1="114.792" x2="112.351" y2="111.984" gradientUnits="userSpaceOnUse">
<stop stop-color="#F6C7C3"/>
<stop offset="1" stop-color="#F7E2C5"/>
</linearGradient>
<linearGradient id="paint12_linear" x1="128.425" y1="170.266" x2="42.5067" y2="125.856" gradientUnits="userSpaceOnUse">
<stop stop-color="#C54A5C"/>
<stop offset="1" stop-color="#D34F62"/>
</linearGradient>
<linearGradient id="paint13_linear" x1="92.3929" y1="173.243" x2="87.627" y2="109.105" gradientUnits="userSpaceOnUse">
<stop stop-color="#F6C7C3"/>
<stop offset="1" stop-color="#F7E2C5"/>
</linearGradient>
<linearGradient id="paint14_linear" x1="96.1917" y1="184.922" x2="90.1697" y2="103.882" gradientUnits="userSpaceOnUse">
<stop stop-color="#BE4658"/>
<stop offset="1" stop-color="#C54A5C"/>
</linearGradient>
<linearGradient id="paint15_linear" x1="132.483" y1="169.854" x2="132.081" y2="160.335" gradientUnits="userSpaceOnUse">
<stop stop-color="#F6C7C3"/>
<stop offset="1" stop-color="#F7E2C5"/>
</linearGradient>
<linearGradient id="paint16_linear" x1="94.1155" y1="183.554" x2="88.3785" y2="106.349" gradientUnits="userSpaceOnUse">
<stop stop-color="#FEE5DB"/>
<stop offset="1" stop-color="#F6BBA6"/>
</linearGradient>
<linearGradient id="paint17_linear" x1="81.8622" y1="203.097" x2="81.8622" y2="127.386" gradientUnits="userSpaceOnUse">
<stop stop-color="#F6C7C3"/>
<stop offset="1" stop-color="#F7E2C5"/>
</linearGradient>
<linearGradient id="paint18_linear" x1="70.863" y1="199.234" x2="70.863" y2="149.182" gradientUnits="userSpaceOnUse">
<stop stop-color="#F6C7C3"/>
<stop offset="1" stop-color="#F6D0AD"/>
</linearGradient>
<linearGradient id="paint19_linear" x1="126.748" y1="201.625" x2="110.455" y2="186.666" gradientUnits="userSpaceOnUse">
<stop stop-color="#EBBFBB"/>
<stop offset="1" stop-color="#DCBC9D"/>
</linearGradient>
<linearGradient id="paint20_linear" x1="121.649" y1="200.817" x2="38.1244" y2="122.105" gradientUnits="userSpaceOnUse">
<stop stop-color="#FEE5DB"/>
<stop offset="1" stop-color="#F6BBA6"/>
</linearGradient>
<linearGradient id="paint21_linear" x1="238.312" y1="132.737" x2="152.787" y2="132.737" gradientUnits="userSpaceOnUse">
<stop stop-color="#FF9545"/>
<stop offset="1" stop-color="#FAA85F"/>
</linearGradient>
<linearGradient id="paint22_linear" x1="190.71" y1="86.3804" x2="190.71" y2="65.7786" gradientUnits="userSpaceOnUse">
<stop stop-color="#F7D9D4"/>
<stop offset="1" stop-color="#FFEED0"/>
</linearGradient>
<linearGradient id="paint23_linear" x1="209.902" y1="127.714" x2="145.713" y2="137.711" gradientUnits="userSpaceOnUse">
<stop stop-color="#808080"/>
<stop offset="1" stop-color="white"/>
</linearGradient>
<linearGradient id="paint24_linear" x1="209.902" y1="127.714" x2="145.713" y2="137.711" gradientUnits="userSpaceOnUse">
<stop stop-color="#F9F8D9"/>
<stop offset="1" stop-color="#FAF7C6"/>
</linearGradient>
<linearGradient id="paint25_linear" x1="232.439" y1="171.609" x2="165.161" y2="180.278" gradientUnits="userSpaceOnUse">
<stop stop-color="#F7D9D4"/>
<stop offset="1" stop-color="#FFEED0"/>
</linearGradient>
<linearGradient id="paint26_linear" x1="198.812" y1="202.182" x2="198.812" y2="186.415" gradientUnits="userSpaceOnUse">
<stop stop-color="#F7D9D4"/>
<stop offset="1" stop-color="#FFEED0"/>
</linearGradient>
<linearGradient id="paint27_linear" x1="198.46" y1="178.819" x2="165.818" y2="178.819" gradientUnits="userSpaceOnUse">
<stop stop-color="#333333"/>
<stop offset="1" stop-color="white"/>
</linearGradient>
<linearGradient id="paint28_linear" x1="198.46" y1="178.819" x2="165.818" y2="178.819" gradientUnits="userSpaceOnUse">
<stop stop-color="#FFF68D"/>
<stop offset="1" stop-color="#FFF68D"/>
</linearGradient>
<linearGradient id="paint29_linear" x1="194.129" y1="180.477" x2="168.694" y2="180.477" gradientUnits="userSpaceOnUse">
<stop stop-color="#333333"/>
<stop offset="1" stop-color="white"/>
</linearGradient>
<linearGradient id="paint30_linear" x1="194.129" y1="180.477" x2="168.694" y2="180.477" gradientUnits="userSpaceOnUse">
<stop stop-color="#FFF68D"/>
<stop offset="1" stop-color="#FFF68D"/>
</linearGradient>
</defs>
</svg>
