<svg width="160" height="160" viewBox="0 0 160 160" fill="none" xmlns="http://www.w3.org/2000/svg">
<path d="M79.613 142.62C114.411 142.62 142.621 114.41 142.621 79.612C142.621 44.8136 114.411 16.604 79.613 16.604C44.8146 16.604 16.605 44.8136 16.605 79.612C16.605 114.41 44.8146 142.62 79.613 142.62Z" fill="#CFD0D2"/>
<path d="M104.195 155.338C136.13 144.978 159.225 115 159.225 79.6119C159.225 77.2139 159.099 74.8459 158.892 72.5029H104.195V155.338V155.338Z" fill="url(#paint0_linear)"/>
<path d="M55.03 3.88599C23.096 14.246 0 44.225 0 79.612C0 82.01 0.124993 84.377 0.332993 86.721H55.03V3.88599Z" fill="url(#paint1_linear)"/>
<path d="M155.339 55.03C144.979 23.095 115 0 79.612 0C77.215 0 74.847 0.125 72.503 0.333V55.03H155.339Z" fill="url(#paint2_linear)"/>
<path d="M3.88599 104.194C14.246 136.129 44.225 159.224 79.612 159.224C82.01 159.224 84.378 159.099 86.721 158.891V104.193H3.88599V104.194Z" fill="url(#paint3_linear)"/>
<path d="M55.03 21.582C32.446 31.161 16.605 53.536 16.605 79.613C16.605 82.018 16.752 84.387 17.015 86.722H55.03V21.582V21.582Z" fill="url(#paint4_linear)"/>
<path d="M79.612 16.605C77.208 16.605 74.838 16.752 72.503 17.015V55.03H137.644C128.064 32.446 105.689 16.605 79.612 16.605Z" fill="url(#paint5_linear)"/>
<path d="M79.612 142.62C82.017 142.62 84.387 142.473 86.721 142.21V104.194H21.581C31.16 126.778 53.536 142.62 79.612 142.62Z" fill="url(#paint6_linear)"/>
<path d="M142.621 79.6119C142.621 77.2069 142.473 74.8379 142.211 72.5029H104.195V137.643C126.779 128.065 142.621 105.689 142.621 79.6119Z" fill="url(#paint7_linear)"/>
<path d="M79.613 130.509C107.723 130.509 130.51 107.722 130.51 79.6121C130.51 51.5025 107.723 28.7151 79.613 28.7151C51.5034 28.7151 28.716 51.5025 28.716 79.6121C28.716 107.722 51.5034 130.509 79.613 130.509Z" fill="white"/>
<path d="M55.5231 91.1765H58.185C58.8211 91.1765 59.382 91.2992 59.8675 91.5448C60.3585 91.7847 60.738 92.1251 61.0059 92.566C61.2793 93.0068 61.416 93.5202 61.416 94.1062C61.416 94.6921 61.2793 95.2055 61.0059 95.6464C60.738 96.0872 60.3585 96.4304 59.8675 96.676C59.382 96.9159 58.8211 97.0359 58.185 97.0359H55.5231V91.1765ZM58.118 95.9226C58.704 95.9226 59.1699 95.7608 59.5159 95.4371C59.8675 95.1079 60.0433 94.6642 60.0433 94.1062C60.0433 93.5481 59.8675 93.1073 59.5159 92.7836C59.1699 92.4544 58.704 92.2898 58.118 92.2898H56.8792V95.9226H58.118ZM64.163 92.4655C64.8606 92.4655 65.3963 92.633 65.7702 92.9678C66.1441 93.297 66.331 93.7965 66.331 94.4661V97.0359H65.1089V96.4751C64.8634 96.8936 64.4058 97.1029 63.7361 97.1029C63.3901 97.1029 63.0888 97.0443 62.8321 96.9271C62.581 96.8099 62.3885 96.6481 62.2545 96.4416C62.1206 96.2351 62.0536 96.0007 62.0536 95.7384C62.0536 95.3199 62.2099 94.9907 62.5224 94.7507C62.8405 94.5108 63.3288 94.3908 63.9872 94.3908H65.0252C65.0252 94.1062 64.9387 93.8885 64.7657 93.7379C64.5927 93.5816 64.3332 93.5035 63.9872 93.5035C63.7473 93.5035 63.5101 93.5426 63.2757 93.6207C63.0469 93.6932 62.8516 93.7937 62.6898 93.922L62.221 93.0096C62.4666 92.8366 62.7596 92.7027 63.1 92.6078C63.4459 92.513 63.8003 92.4655 64.163 92.4655ZM64.0626 96.2239C64.2858 96.2239 64.4839 96.1737 64.6569 96.0733C64.8299 95.9672 64.9527 95.8138 65.0252 95.6129V95.1525H64.1295C63.5938 95.1525 63.326 95.3283 63.326 95.6799C63.326 95.8473 63.3901 95.9812 63.5185 96.0816C63.6524 96.1765 63.8338 96.2239 64.0626 96.2239ZM70.4174 96.8183C70.2891 96.9131 70.13 96.9857 69.9403 97.0359C69.7562 97.0805 69.5608 97.1029 69.3544 97.1029C68.8186 97.1029 68.4029 96.9661 68.1071 96.6927C67.817 96.4193 67.6719 96.0175 67.6719 95.4873V93.6374H66.9771V92.633H67.6719V91.5364H68.9777V92.633H70.0994V93.6374H68.9777V95.4706C68.9777 95.6603 69.0251 95.8082 69.12 95.9142C69.2204 96.0147 69.3599 96.0649 69.5385 96.0649C69.745 96.0649 69.9208 96.0091 70.0659 95.8975L70.4174 96.8183ZM72.9669 92.4655C73.6644 92.4655 74.2001 92.633 74.574 92.9678C74.9479 93.297 75.1349 93.7965 75.1349 94.4661V97.0359H73.9127V96.4751C73.6672 96.8936 73.2096 97.1029 72.54 97.1029C72.194 97.1029 71.8926 97.0443 71.6359 96.9271C71.3848 96.8099 71.1923 96.6481 71.0584 96.4416C70.9244 96.2351 70.8575 96.0007 70.8575 95.7384C70.8575 95.3199 71.0137 94.9907 71.3262 94.7507C71.6443 94.5108 72.1326 94.3908 72.7911 94.3908H73.829C73.829 94.1062 73.7425 93.8885 73.5696 93.7379C73.3966 93.5816 73.1371 93.5035 72.7911 93.5035C72.5511 93.5035 72.314 93.5426 72.0796 93.6207C71.8508 93.6932 71.6555 93.7937 71.4936 93.922L71.0249 93.0096C71.2704 92.8366 71.5634 92.7027 71.9038 92.6078C72.2498 92.513 72.6041 92.4655 72.9669 92.4655ZM72.8664 96.2239C73.0896 96.2239 73.2877 96.1737 73.4607 96.0733C73.6337 95.9672 73.7565 95.8138 73.829 95.6129V95.1525H72.9334C72.3977 95.1525 72.1298 95.3283 72.1298 95.6799C72.1298 95.8473 72.194 95.9812 72.3223 96.0816C72.4563 96.1765 72.6376 96.2239 72.8664 96.2239ZM84.1533 91.1765V97.0359H82.7972V94.6335H80.1354V97.0359H78.7793V91.1765H80.1354V93.4868H82.7972V91.1765H84.1533ZM87.2639 92.4655C87.9615 92.4655 88.4972 92.633 88.8711 92.9678C89.245 93.297 89.4319 93.7965 89.4319 94.4661V97.0359H88.2098V96.4751C87.9643 96.8936 87.5067 97.1029 86.837 97.1029C86.491 97.1029 86.1897 97.0443 85.933 96.9271C85.6819 96.8099 85.4894 96.6481 85.3554 96.4416C85.2215 96.2351 85.1545 96.0007 85.1545 95.7384C85.1545 95.3199 85.3108 94.9907 85.6233 94.7507C85.9414 94.5108 86.4296 94.3908 87.0881 94.3908H88.1261C88.1261 94.1062 88.0396 93.8885 87.8666 93.7379C87.6936 93.5816 87.4341 93.5035 87.0881 93.5035C86.8482 93.5035 86.611 93.5426 86.3766 93.6207C86.1478 93.6932 85.9525 93.7937 85.7907 93.922L85.3219 93.0096C85.5675 92.8366 85.8604 92.7027 86.2009 92.6078C86.5468 92.513 86.9012 92.4655 87.2639 92.4655ZM87.1635 96.2239C87.3867 96.2239 87.5848 96.1737 87.7578 96.0733C87.9308 95.9672 88.0535 95.8138 88.1261 95.6129V95.1525H87.2304C86.6947 95.1525 86.4269 95.3283 86.4269 95.6799C86.4269 95.8473 86.491 95.9812 86.6194 96.0816C86.7533 96.1765 86.9347 96.2239 87.1635 96.2239ZM91.861 93.1268C92.0172 92.9092 92.2265 92.7446 92.4887 92.633C92.7566 92.5213 93.0635 92.4655 93.4095 92.4655V93.6709C93.2644 93.6597 93.1668 93.6542 93.1165 93.6542C92.7427 93.6542 92.4497 93.7602 92.2376 93.9722C92.0256 94.1787 91.9195 94.4912 91.9195 94.9098V97.0359H90.6137V92.5325H91.861V93.1268ZM98.7908 92.5325V96.2825C98.7908 97.1084 98.5759 97.7223 98.1462 98.1241C97.7165 98.5259 97.0887 98.7267 96.2628 98.7267C95.8276 98.7267 95.4146 98.6737 95.024 98.5677C94.6334 98.4617 94.3097 98.3082 94.053 98.1073L94.572 97.1698C94.7617 97.3261 95.0017 97.4488 95.2918 97.5381C95.582 97.633 95.8722 97.6804 96.1624 97.6804C96.6144 97.6804 96.9464 97.5772 97.1585 97.3707C97.3761 97.1698 97.4849 96.8629 97.4849 96.4499V96.2574C97.1445 96.6313 96.6702 96.8183 96.0619 96.8183C95.649 96.8183 95.2695 96.729 94.9235 96.5504C94.5831 96.3662 94.3125 96.1095 94.1116 95.7803C93.9107 95.4511 93.8103 95.0716 93.8103 94.6419C93.8103 94.2122 93.9107 93.8327 94.1116 93.5035C94.3125 93.1743 94.5831 92.9203 94.9235 92.7418C95.2695 92.5576 95.649 92.4655 96.0619 92.4655C96.7149 92.4655 97.2115 92.6804 97.5519 93.1101V92.5325H98.7908ZM96.3214 95.7468C96.6674 95.7468 96.9492 95.6464 97.1669 95.4455C97.3901 95.239 97.5017 94.9711 97.5017 94.6419C97.5017 94.3127 97.3901 94.0476 97.1669 93.8467C96.9492 93.6402 96.6674 93.537 96.3214 93.537C95.9754 93.537 95.6908 93.6402 95.4676 93.8467C95.2444 94.0476 95.1328 94.3127 95.1328 94.6419C95.1328 94.9711 95.2444 95.239 95.4676 95.4455C95.6908 95.6464 95.9754 95.7468 96.3214 95.7468ZM101.823 92.4655C102.52 92.4655 103.056 92.633 103.43 92.9678C103.804 93.297 103.991 93.7965 103.991 94.4661V97.0359H102.768V96.4751C102.523 96.8936 102.065 97.1029 101.396 97.1029C101.05 97.1029 100.748 97.0443 100.492 96.9271C100.241 96.8099 100.048 96.6481 99.9141 96.4416C99.7801 96.2351 99.7132 96.0007 99.7132 95.7384C99.7132 95.3199 99.8694 94.9907 100.182 94.7507C100.5 94.5108 100.988 94.3908 101.647 94.3908H102.685C102.685 94.1062 102.598 93.8885 102.425 93.7379C102.252 93.5816 101.993 93.5035 101.647 93.5035C101.407 93.5035 101.17 93.5426 100.935 93.6207C100.706 93.6932 100.511 93.7937 100.349 93.922L99.8806 93.0096C100.126 92.8366 100.419 92.7027 100.759 92.6078C101.105 92.513 101.46 92.4655 101.823 92.4655ZM101.722 96.2239C101.945 96.2239 102.143 96.1737 102.316 96.0733C102.489 95.9672 102.612 95.8138 102.685 95.6129V95.1525H101.789C101.253 95.1525 100.985 95.3283 100.985 95.6799C100.985 95.8473 101.05 95.9812 101.178 96.0816C101.312 96.1765 101.493 96.2239 101.722 96.2239Z" fill="#5E5E5E"/>
<path d="M55.513 84.925C54.83 84.925 54.191 84.732 53.65 84.397C52.637 83.772 51.962 82.651 51.962 81.373V77.478C51.962 76.418 52.426 75.467 53.163 74.816C53.789 74.263 54.613 73.926 55.514 73.926C56.25 73.926 56.933 74.15 57.5 74.533C58.444 75.171 59.066 76.252 59.066 77.478V81.373C59.066 82.109 58.842 82.792 58.459 83.359C57.82 84.304 56.739 84.925 55.513 84.925Z" fill="#7AC2F1"/>
<path d="M67.562 84.9252C66.878 84.9252 66.241 84.7322 65.699 84.3972C64.686 83.7722 64.011 82.6512 64.011 81.3732V73.2122C64.011 72.1522 64.476 71.2012 65.212 70.5502C65.838 69.9962 66.661 69.6602 67.563 69.6602C68.298 69.6602 68.982 69.8842 69.549 70.2662C70.493 70.9042 71.114 71.9852 71.114 73.2112V81.3722C71.114 82.1082 70.89 82.7912 70.508 83.3582C69.869 84.3042 68.789 84.9252 67.562 84.9252Z" fill="#7AC2F1"/>
<path d="M79.612 84.9251C78.928 84.9251 78.29 84.7321 77.749 84.3971C76.735 83.7721 76.061 82.6511 76.061 81.3731V68.2571C76.061 67.1971 76.525 66.2461 77.261 65.5951C77.888 65.0411 78.711 64.7051 79.613 64.7051C80.348 64.7051 81.032 64.9291 81.598 65.3111C82.543 65.9491 83.164 67.0301 83.164 68.2561V81.3721C83.164 82.1081 82.94 82.7911 82.558 83.3581C81.919 84.3041 80.838 84.9251 79.612 84.9251Z" fill="#7AC2F1"/>
<path d="M91.661 84.9251C90.978 84.9251 90.34 84.7321 89.798 84.3971C88.785 83.7721 88.11 82.6511 88.11 81.3731V56.5811C88.11 55.5211 88.574 54.5701 89.31 53.9191C89.936 53.3661 90.759 53.0291 91.661 53.0291C92.397 53.0291 93.08 53.2531 93.647 53.6361C94.591 54.2741 95.212 55.3551 95.212 56.5811V81.3741C95.212 82.1101 94.988 82.7931 94.606 83.3601C93.969 84.3041 92.887 84.9251 91.661 84.9251Z" fill="#7AC2F1"/>
<path d="M103.711 84.9251C103.027 84.9251 102.39 84.7321 101.848 84.3971C100.835 83.7721 100.16 82.6511 100.16 81.3731V65.7041C100.16 64.6441 100.625 63.6931 101.361 63.0421C101.987 62.4891 102.81 62.1531 103.712 62.1531C104.447 62.1531 105.131 62.3761 105.698 62.7591C106.642 63.3971 107.263 64.4781 107.263 65.7041V81.3731C107.263 82.1091 107.039 82.7921 106.657 83.3591C106.017 84.3041 104.936 84.9251 103.711 84.9251Z" fill="#7AC2F1"/>
<defs>
<linearGradient id="paint0_linear" x1="104.195" y1="113.921" x2="159.225" y2="113.921" gradientUnits="userSpaceOnUse">
<stop stop-color="#F22749"/>
<stop offset="1" stop-color="#F2B616"/>
</linearGradient>
<linearGradient id="paint1_linear" x1="0.0003" y1="45.3039" x2="55.03" y2="45.3039" gradientUnits="userSpaceOnUse">
<stop stop-color="#E52C2C"/>
<stop offset="1" stop-color="#F227FF"/>
</linearGradient>
<linearGradient id="paint2_linear" x1="113.92" y1="55.0294" x2="113.92" y2="9.84001e-05" gradientUnits="userSpaceOnUse">
<stop offset="0.016" stop-color="#0016F9"/>
<stop offset="1" stop-color="#7AC2F1"/>
</linearGradient>
<linearGradient id="paint3_linear" x1="45.304" y1="159.225" x2="45.304" y2="104.195" gradientUnits="userSpaceOnUse">
<stop stop-color="#5D77F8"/>
<stop offset="1" stop-color="#99E671"/>
</linearGradient>
<linearGradient id="paint4_linear" x1="16.6047" y1="54.1515" x2="55.03" y2="54.1515" gradientUnits="userSpaceOnUse">
<stop stop-color="#F227FF"/>
<stop offset="1" stop-color="#E52C2C"/>
</linearGradient>
<linearGradient id="paint5_linear" x1="72.5027" y1="35.8175" x2="137.643" y2="35.8175" gradientUnits="userSpaceOnUse">
<stop offset="0.016" stop-color="#0016F9"/>
<stop offset="1" stop-color="#7AC2F1"/>
</linearGradient>
<linearGradient id="paint6_linear" x1="21.5818" y1="123.407" x2="86.7214" y2="123.407" gradientUnits="userSpaceOnUse">
<stop stop-color="#5D77F8"/>
<stop offset="1" stop-color="#99E671"/>
</linearGradient>
<linearGradient id="paint7_linear" x1="104.195" y1="105.073" x2="142.621" y2="105.073" gradientUnits="userSpaceOnUse">
<stop stop-color="#F2B616"/>
<stop offset="1" stop-color="#F22749"/>
</linearGradient>
</defs>
</svg>
