<svg width="276" height="276" viewBox="0 0 276 276" fill="none" xmlns="http://www.w3.org/2000/svg">
<circle cx="138" cy="138" r="138" fill="#3494CE"/>
<g filter="url(#filter0_d)">
<path d="M163.722 75H98.907L66.584 110.877L84.5224 129.154L95.6916 117.985V198.031L167.445 198.2V118.154L178.615 129.154L196.215 110.877L163.722 75Z" fill="#FF6E6E"/>
<rect x="95.6914" y="192.108" width="71.7537" height="6.0923" fill="#0C0058"/>
<path fill-rule="evenodd" clip-rule="evenodd" d="M131.57 95.9848C143.159 95.9848 152.554 86.5897 152.554 75.0002H110.585C110.585 86.5897 119.98 95.9848 131.57 95.9848Z" fill="#0C0058"/>
<path d="M210.101 118.104H148.303C148.303 118.104 140.773 132.448 136.11 151.932C132.001 169.103 131.688 196.757 131.688 196.757C131.688 196.757 140.023 200.233 145.673 201.179C152.348 202.298 163.005 201.179 163.005 201.179C163.005 201.179 168.982 167.71 179.381 167.71C188.346 167.71 195.159 201.179 195.159 201.179C195.159 201.179 206.109 201.481 212.252 200.582C218.273 199.7 225.999 196.757 225.999 196.757C225.999 196.757 225.77 170.321 222.293 154.084C219.171 139.504 210.101 118.104 210.101 118.104Z" fill="#F56D38"/>
<path d="M131.808 191.497L131.927 187.433C131.927 187.433 138.023 189.226 145.554 190.78C152.094 192.129 165.157 192.095 165.157 192.095L163.603 198.43C163.603 198.43 152.099 201.158 145.554 199.625C134.916 197.134 131.808 191.497 131.808 191.497Z" fill="#E5E5E5"/>
<path d="M225.999 191.378L225.76 187.552C225.76 187.552 218.354 189.969 212.133 190.78C205.511 191.643 192.649 191.497 192.649 191.497L194.442 198.191C194.442 198.191 205.588 201.158 212.133 199.625C222.772 197.134 225.999 191.378 225.999 191.378Z" fill="#E5E5E5"/>
<path d="M163.723 198.071L164.201 195.681C164.201 195.681 155.483 195.437 149.857 194.844C144.315 194.26 135.752 192.692 135.752 192.692C135.752 192.692 143.438 195.936 148.661 196.996C154.402 198.16 163.723 198.071 163.723 198.071Z" fill="#F4F8F9"/>
<path d="M194.442 198.071L193.964 195.681C193.964 195.681 202.682 195.437 208.308 194.844C213.85 194.26 222.413 192.692 222.413 192.692C222.413 192.692 214.727 195.936 209.504 196.996C203.763 198.16 194.442 198.071 194.442 198.071Z" fill="#F4F8F9"/>
<path d="M134.915 192.334L131.807 191.378L131.568 196.757C131.568 196.757 140.107 200.32 145.912 201.179C154.04 202.383 163.005 201.179 163.005 201.179L163.603 198.43C163.603 198.43 155.235 199.803 150.335 199.506C141.729 198.984 139.338 197.115 139.338 197.115C139.338 197.115 137.301 195.877 136.35 194.725C135.657 193.885 134.915 192.334 134.915 192.334Z" fill="#9AA4A6"/>
<path d="M222.915 192.187L225.999 191.258V196.876C225.999 196.876 219.425 199.864 212.492 200.701C204.399 201.678 195.04 201.299 195.04 201.299L194.442 198.109C194.442 198.109 202.847 199.675 207.711 199.386C216.252 198.879 218.947 196.876 218.947 196.876C218.947 196.876 220.513 195.844 221.457 194.724C222.145 193.909 222.915 192.187 222.915 192.187Z" fill="#9AA4A6"/>
<path d="M198.985 118.104H185.598C185.598 118.104 189.965 124.859 194.682 129.938C204.603 140.619 214.405 142.049 214.405 142.049C214.405 142.049 218.097 154.828 219.904 163.527C221.837 172.836 223.848 188.15 223.848 188.15L225.761 187.555C225.761 187.555 225.019 169.154 223.251 159.104C221.789 150.801 218.708 140.815 218.708 140.815C218.708 140.815 210.003 134.693 206.038 129.938C202.514 125.712 198.985 118.104 198.985 118.104Z" fill="#AD4D28"/>
<path d="M158.703 118.104H169.222C169.222 118.104 158.664 132.35 153.324 142.049C148.365 151.054 143.283 164.483 143.283 164.483C143.283 164.483 139.339 176.556 144.001 183.01C149.877 191.146 166.712 186.118 166.712 186.118L165.158 192.095C165.158 192.095 154.367 192.117 147.706 191.139C141.444 190.219 131.928 187.433 131.928 187.433C131.928 187.433 132.958 168.13 134.438 158.865C135.883 149.821 139.339 140.619 139.339 140.619C139.339 140.619 146.903 135.396 150.814 130.775C154.435 126.495 158.703 118.104 158.703 118.104Z" fill="#AD4D28"/>
<path d="M198.984 118.104H210.101C210.101 118.104 212.437 123.91 214.165 128.145C216.016 132.683 218.707 140.815 218.707 140.815C218.707 140.815 210.777 135.505 207.112 131.253C203.224 126.74 198.984 118.104 198.984 118.104Z" fill="#DAE8EB"/>
<path d="M158.703 117.985H148.303C148.303 117.985 145.25 124.149 143.522 128.384C141.67 132.922 139.219 140.696 139.219 140.696C139.219 140.696 146.91 135.385 150.574 131.133C154.463 126.621 158.703 117.985 158.703 117.985Z" fill="#E5E5E5"/>
<path d="M141.131 134.958L144.119 127.427C144.119 127.427 146.384 126.334 147.944 125.156C150.554 123.187 154.399 118.941 154.399 118.941C154.399 118.941 151.586 124.303 149.02 127.427C146.378 130.645 141.131 134.958 141.131 134.958Z" fill="#9AA4A6"/>
<path d="M216.437 134.6L213.714 127.42C213.714 127.42 211.47 126.343 209.924 125.183C207.337 123.244 203.527 119.06 203.527 119.06C203.527 119.06 206.315 124.343 208.858 127.42C211.476 130.59 216.437 134.6 216.437 134.6Z" fill="#9AA4A6"/>
<path d="M205.439 191.378L192.888 191.736C192.888 191.736 190.638 184.124 188.824 179.424C185.226 170.101 181.652 168.308 181.652 168.308C181.652 168.308 191.574 171.296 196.713 177.153C200.932 181.96 205.439 191.378 205.439 191.378Z" fill="#AD4D28"/>
<path d="M66.6693 169.629V198.896C66.6693 198.896 65.3633 201.512 61.9307 201.512C58.8261 201.512 58.0908 198.896 58.0908 198.896C58.0908 195.463 57.8621 187.238 56.947 181.81C55.8032 175.024 52.6169 164.887 50.3294 155.976C48.4993 148.847 54.7411 140.088 58.0908 136.6C58.7172 136.982 60.9176 138.775 64.7085 142.895C69.4471 148.046 78.1889 159.982 84.4798 169.629C90.7707 179.275 92.4047 178.54 98.1237 181.81C102.699 184.426 108.636 181.483 111.032 179.684C112.094 180.393 115.624 182.366 121.245 184.589C128.271 187.369 130.967 191.62 131.539 196.362C131.996 200.155 127.154 201.376 124.676 201.512C116.642 201.567 99.774 201.643 96.5714 201.512C92.5681 201.349 84.6432 191.865 80.3131 181.81C76.8491 173.765 69.7739 170.337 66.6693 169.629Z" fill="#9AA4A6"/>
</g>
<defs>
<filter id="filter0_d" x="50" y="75" width="176.999" height="127.714" filterUnits="userSpaceOnUse" color-interpolation-filters="sRGB">
<feFlood flood-opacity="0" result="BackgroundImageFix"/>
<feColorMatrix in="SourceAlpha" type="matrix" values="0 0 0 0 0 0 0 0 0 0 0 0 0 0 0 0 0 0 127 0"/>
<feOffset dx="1" dy="1"/>
<feColorMatrix type="matrix" values="0 0 0 0 0 0 0 0 0 0 0 0 0 0 0 0 0 0 0.4 0"/>
<feBlend mode="normal" in2="BackgroundImageFix" result="effect1_dropShadow"/>
<feBlend mode="normal" in="SourceGraphic" in2="effect1_dropShadow" result="shape"/>
</filter>
</defs>
</svg>
