<svg width="2816" height="1291" viewBox="0 0 2816 1291" fill="none" xmlns="http://www.w3.org/2000/svg">
<path d="M2702.26 0H113.704V1290.41H2702.26V0Z" fill="#EBF3FA"/>
<path d="M682.166 1052.91H113.704V1074.39H682.166V1052.91Z" fill="#D2E4FF"/>
<path d="M520.678 581.201C518.701 581.201 517.099 579.598 517.099 577.622V537.953C517.099 534.818 514.548 532.267 511.413 532.267H424.101C417.019 532.267 411.257 526.505 411.257 519.423V489.548C411.257 482.466 417.019 476.705 424.101 476.705H460.343C462.32 476.705 463.922 478.307 463.922 480.284C463.922 482.261 462.319 483.863 460.343 483.863H424.101C420.966 483.863 418.415 486.413 418.415 489.548V519.423C418.415 522.558 420.966 525.109 424.101 525.109H511.413C518.496 525.109 524.257 530.871 524.257 537.953V577.622C524.257 579.599 522.655 581.201 520.678 581.201Z" fill="#AED3FF"/>
<path d="M524.352 594.595H515.469C512.147 594.595 509.429 591.877 509.429 588.555V543.42C509.429 540.098 512.147 537.379 515.469 537.379H524.352C527.674 537.379 530.393 540.097 530.393 543.42V588.555C530.393 591.877 527.675 594.595 524.352 594.595Z" fill="#F99746"/>
<path d="M606.043 466.249V494.32C606.043 501.632 600.112 507.553 592.8 507.553H447.506C440.204 507.553 434.273 501.632 434.273 494.32V466.249C434.273 458.937 440.204 453.016 447.506 453.016H592.8C600.112 453.017 606.043 458.937 606.043 466.249Z" fill="#AED3FF"/>
<path d="M606.043 466.249V475.913C606.043 483.225 600.112 489.145 592.8 489.145H447.506C440.204 489.145 434.273 483.224 434.273 475.913V466.249C434.273 458.937 440.204 453.016 447.506 453.016H592.8C600.112 453.017 606.043 458.937 606.043 466.249Z" fill="#D2E4FF"/>
<path d="M268.547 581.201C266.57 581.201 264.967 579.598 264.967 577.622V537.953C264.967 534.818 262.417 532.267 259.281 532.267H171.968C164.886 532.267 159.124 526.505 159.124 519.423V489.548C159.124 482.466 164.886 476.705 171.968 476.705H208.21C210.187 476.705 211.79 478.307 211.79 480.284C211.79 482.261 210.187 483.863 208.21 483.863H171.968C168.833 483.863 166.283 486.413 166.283 489.548V519.423C166.283 522.558 168.833 525.109 171.968 525.109H259.281C266.364 525.109 272.125 530.871 272.125 537.953V577.622C272.126 579.599 270.523 581.201 268.547 581.201Z" fill="#AED3FF"/>
<path d="M272.221 594.595H263.338C260.016 594.595 257.297 591.877 257.297 588.555V543.42C257.297 540.098 260.015 537.379 263.338 537.379H272.221C275.543 537.379 278.261 540.097 278.261 543.42V588.555C278.261 591.877 275.543 594.595 272.221 594.595Z" fill="#F99746"/>
<path d="M353.912 466.249V494.32C353.912 501.632 347.981 507.553 340.669 507.553H195.374C188.073 507.553 182.141 501.632 182.141 494.32V466.249C182.141 458.937 188.073 453.016 195.374 453.016H340.669C347.981 453.017 353.912 458.937 353.912 466.249Z" fill="#AED3FF"/>
<path d="M353.912 466.249V475.913C353.912 483.225 347.981 489.145 340.669 489.145H195.374C188.073 489.145 182.141 483.224 182.141 475.913V466.249C182.141 458.937 188.073 453.016 195.374 453.016H340.669C347.981 453.017 353.912 458.937 353.912 466.249Z" fill="#D2E4FF"/>
<path d="M692.341 143.603H666.826V1285.78H692.341V143.603Z" fill="#D2E4FF"/>
<path d="M682.166 143.603H113.704V165.081H682.166V143.603Z" fill="#D2E4FF"/>
<path d="M682.166 380.353H113.704V401.831H682.166V380.353Z" fill="#D2E4FF"/>
<path d="M682.166 617.103H113.704V638.581H682.166V617.103Z" fill="#D2E4FF"/>
<path d="M682.166 853.853H113.704V875.331H682.166V853.853Z" fill="#D2E4FF"/>
<path d="M305.531 692.777V751.536C305.531 756.973 301.083 761.42 295.647 761.42H295.358C289.922 761.42 285.474 756.973 285.474 751.536V692.777C285.474 687.341 289.922 682.893 295.358 682.893H295.647C301.084 682.894 305.531 687.342 305.531 692.777Z" fill="#D2E4FF"/>
<path d="M324.607 789.422H266.402C260.966 789.422 256.518 784.974 256.518 779.538V760.868C256.518 755.432 260.966 750.984 266.402 750.984H324.607C330.043 750.984 334.491 755.432 334.491 760.868V779.538C334.49 784.974 330.043 789.422 324.607 789.422Z" fill="#D2E4FF"/>
<path d="M334.49 770.203H256.518V818.365H334.49V770.203Z" fill="#98C6F4"/>
<path d="M295.503 695.151C296.935 695.151 298.095 693.99 298.095 692.559C298.095 691.127 296.935 689.967 295.503 689.967C294.072 689.967 292.911 691.127 292.911 692.559C292.911 693.99 294.072 695.151 295.503 695.151Z" fill="#98C6F4"/>
<path d="M189.679 692.777V751.536C189.679 756.973 185.231 761.42 179.795 761.42H179.506C174.07 761.42 169.622 756.973 169.622 751.536V692.777C169.622 687.341 174.07 682.893 179.506 682.893H179.795C185.232 682.894 189.679 687.342 189.679 692.777Z" fill="#D2E4FF"/>
<path d="M198.582 789.422H160.72C156.181 789.422 152.467 785.708 152.467 781.168V759.238C152.467 754.698 156.181 750.984 160.72 750.984H198.582C203.122 750.984 206.835 754.698 206.835 759.238V781.168C206.836 785.708 203.122 789.422 198.582 789.422Z" fill="#D2E4FF"/>
<path d="M206.836 770.203H152.467V818.365H206.836V770.203Z" fill="#98C6F4"/>
<path d="M179.651 695.151C181.083 695.151 182.243 693.99 182.243 692.559C182.243 691.127 181.083 689.967 179.651 689.967C178.22 689.967 177.059 691.127 177.059 692.559C177.059 693.99 178.22 695.151 179.651 695.151Z" fill="#98C6F4"/>
<path d="M441.321 692.777V751.536C441.321 756.973 436.873 761.42 431.437 761.42H431.148C425.712 761.42 421.264 756.973 421.264 751.536V692.777C421.264 687.341 425.712 682.893 431.148 682.893H431.437C436.873 682.894 441.321 687.342 441.321 692.777Z" fill="#D2E4FF"/>
<path d="M467.547 789.422H395.04C389.064 789.422 384.174 784.532 384.174 778.556V761.851C384.174 755.874 389.064 750.985 395.04 750.985H467.547C473.524 750.985 478.413 755.875 478.413 761.851V778.556C478.413 784.532 473.523 789.422 467.547 789.422Z" fill="#D2E4FF"/>
<path d="M478.413 770.203H384.173V818.365H478.413V770.203Z" fill="#98C6F4"/>
<path d="M431.293 695.151C432.724 695.151 433.885 693.99 433.885 692.559C433.885 691.127 432.724 689.967 431.293 689.967C429.861 689.967 428.701 691.127 428.701 692.559C428.701 693.99 429.861 695.151 431.293 695.151Z" fill="#98C6F4"/>
<path d="M582.8 677.721V743.525C582.8 749.613 577.819 754.594 571.731 754.594H571.408C565.32 754.594 560.339 749.613 560.339 743.525V677.721C560.339 671.633 565.32 666.653 571.408 666.653H571.731C577.819 666.652 582.8 671.633 582.8 677.721Z" fill="#D2E4FF"/>
<path d="M612.169 785.951H530.969C524.277 785.951 518.801 780.475 518.801 773.783V755.075C518.801 748.383 524.277 742.906 530.969 742.906H612.169C618.862 742.906 624.338 748.383 624.338 755.075V773.783C624.338 780.476 618.862 785.951 612.169 785.951Z" fill="#D2E4FF"/>
<path d="M624.339 764.429H518.801V818.366H624.339V764.429Z" fill="#98C6F4"/>
<path d="M571.569 680.378C573.172 680.378 574.471 679.079 574.471 677.476C574.471 675.873 573.172 674.574 571.569 674.574C569.966 674.574 568.667 675.873 568.667 677.476C568.667 679.079 569.966 680.378 571.569 680.378Z" fill="#98C6F4"/>
<path d="M270.646 972.264H171.792V1053.35H270.646V972.264Z" fill="#98C6F4"/>
<path d="M275.418 972.264H164.718V978.36H275.418V972.264Z" fill="#F99746"/>
<path d="M171.792 983.984C171.792 983.984 198.38 978.359 221.219 978.359C244.057 978.359 270.646 983.984 270.646 983.984V978.359H171.792V983.984V983.984Z" fill="#89BDE8"/>
<path d="M270.646 999.664H171.792V1030.34H270.646V999.664Z" fill="#D2E4FF"/>
<path d="M424.264 953.306H302.297V1053.35H424.264V953.306Z" fill="#98C6F4"/>
<path d="M430.152 953.306H293.57V960.827H430.152V953.306Z" fill="#1C468A"/>
<path d="M302.297 967.766C302.297 967.766 335.102 960.827 363.28 960.827C391.458 960.827 424.263 967.766 424.263 967.766V960.827H302.297V967.766Z" fill="#89BDE8"/>
<path d="M424.264 987.112H302.297V1024.96H424.264V987.112Z" fill="#D2E4FF"/>
<path d="M635.036 919.559H471.928V1053.35H635.036V919.559Z" fill="#98C6F4"/>
<path d="M642.911 919.559H460.258V929.618H642.911V919.559Z" fill="#739AF0"/>
<path d="M471.928 938.897C471.928 938.897 515.799 929.617 553.482 929.617C591.165 929.617 635.036 938.897 635.036 938.897V929.617H471.928V938.897Z" fill="#89BDE8"/>
<path d="M635.036 964.77H471.928V1015.39H635.036V964.77Z" fill="#D2E4FF"/>
<path d="M194.504 282.625C194.396 282.625 194.291 282.622 194.186 282.617C192.141 282.517 190.353 281.561 188.871 279.776C179.199 268.119 184.128 220.064 187.928 192.456C188.153 190.825 188.658 189.288 189.391 187.893C188.36 185.611 187.351 183.996 186.406 183.226C185.802 182.734 185.586 182.874 185.442 182.965C177.143 188.278 175.661 221.038 175.79 233.213L172.949 233.244C172.9 228.602 172.788 187.692 183.91 180.573C184.691 180.072 186.289 179.466 188.201 181.024C189.243 181.874 190.265 183.302 191.256 185.175C193.85 182.207 197.66 180.349 201.825 180.349H275.008C289.467 180.349 301.231 192.112 301.231 206.571V216.169H298.39V206.571C298.39 193.678 287.901 183.19 275.009 183.19H201.826C198.054 183.19 194.648 185.101 192.61 188.048C196.384 196.926 199.582 211.713 201.485 224.116C202.839 232.941 206.854 262.781 201.689 276.246C199.687 281.461 196.737 282.625 194.504 282.625ZM190.942 191.778C190.859 192.127 190.792 192.482 190.741 192.843C189.058 205.078 186.916 223.195 186.279 240.026C185.316 265.461 188.345 274.695 191.056 277.962C192.021 279.125 193.09 279.719 194.324 279.78C195.043 279.812 197.233 279.923 199.034 275.228C205.32 258.844 198.1 211.704 190.942 191.778Z" fill="#AED3FF"/>
<path d="M181.371 230.655H167.285V237.52H181.371V230.655Z" fill="#D2E4FF"/>
<path d="M171.268 236.929H169.497V245.925H171.268V236.929Z" fill="#D2E4FF"/>
<path d="M171.268 241.427H169.497V245.925H171.268V241.427Z" fill="#9EC7EF"/>
<path d="M179.16 236.929H177.389V245.925H179.16V236.929Z" fill="#D2E4FF"/>
<path d="M179.16 241.427H177.389V245.925H179.16V241.427Z" fill="#9EC7EF"/>
<path d="M221.785 369.387L195.328 353.024C191.492 350.651 190.306 345.618 192.678 341.782L274.217 209.944C276.59 206.108 281.623 204.922 285.459 207.294L311.916 223.657C315.752 226.03 316.938 231.063 314.566 234.899L233.027 366.736C230.655 370.573 225.621 371.759 221.785 369.387Z" fill="#D2E4FF"/>
<path d="M263.718 286.249C271.579 286.249 277.951 279.877 277.951 272.016C277.951 264.156 271.579 257.783 263.718 257.783C255.857 257.783 249.485 264.156 249.485 272.016C249.485 279.877 255.857 286.249 263.718 286.249Z" fill="#AED3FF"/>
<path d="M258.141 271.496C259.759 271.496 261.071 270.184 261.071 268.566C261.071 266.948 259.759 265.636 258.141 265.636C256.523 265.636 255.211 266.948 255.211 268.566C255.211 270.184 256.523 271.496 258.141 271.496Z" fill="#D2E4FF"/>
<path d="M269.652 278.616C271.27 278.616 272.582 277.305 272.582 275.686C272.582 274.068 271.27 272.756 269.652 272.756C268.033 272.756 266.722 274.068 266.722 275.686C266.722 277.305 268.033 278.616 269.652 278.616Z" fill="#D2E4FF"/>
<path d="M241.863 321.586C249.723 321.586 256.095 315.214 256.095 307.354C256.095 299.494 249.723 293.122 241.863 293.122C234.003 293.122 227.631 299.494 227.631 307.354C227.631 315.214 234.003 321.586 241.863 321.586Z" fill="#AED3FF"/>
<path d="M236.285 306.835C237.903 306.835 239.215 305.524 239.215 303.905C239.215 302.287 237.903 300.975 236.285 300.975C234.667 300.975 233.355 302.287 233.355 303.905C233.355 305.524 234.667 306.835 236.285 306.835Z" fill="#D2E4FF"/>
<path d="M247.796 313.954C249.414 313.954 250.726 312.642 250.726 311.024C250.726 309.406 249.414 308.094 247.796 308.094C246.178 308.094 244.866 309.406 244.866 311.024C244.866 312.642 246.178 313.954 247.796 313.954Z" fill="#D2E4FF"/>
<path d="M220.007 356.924C227.867 356.924 234.239 350.552 234.239 342.692C234.239 334.832 227.867 328.46 220.007 328.46C212.147 328.46 205.775 334.832 205.775 342.692C205.775 350.552 212.147 356.924 220.007 356.924Z" fill="#AED3FF"/>
<path d="M214.429 342.173C216.047 342.173 217.359 340.861 217.359 339.243C217.359 337.625 216.047 336.313 214.429 336.313C212.811 336.313 211.499 337.625 211.499 339.243C211.499 340.861 212.811 342.173 214.429 342.173Z" fill="#D2E4FF"/>
<path d="M225.94 349.292C227.558 349.292 228.87 347.98 228.87 346.362C228.87 344.744 227.558 343.432 225.94 343.432C224.322 343.432 223.01 344.744 223.01 346.362C223.01 347.98 224.322 349.292 225.94 349.292Z" fill="#D2E4FF"/>
<path d="M285.574 250.911C293.434 250.911 299.807 244.539 299.807 236.678C299.807 228.818 293.434 222.445 285.574 222.445C277.713 222.445 271.341 228.818 271.341 236.678C271.341 244.539 277.713 250.911 285.574 250.911Z" fill="#AED3FF"/>
<path d="M279.997 236.158C281.615 236.158 282.927 234.847 282.927 233.228C282.927 231.61 281.615 230.298 279.997 230.298C278.379 230.298 277.067 231.61 277.067 233.228C277.067 234.847 278.379 236.158 279.997 236.158Z" fill="#D2E4FF"/>
<path d="M291.508 243.277C293.126 243.277 294.438 241.965 294.438 240.347C294.438 238.729 293.126 237.417 291.508 237.417C289.889 237.417 288.578 238.729 288.578 240.347C288.578 241.965 289.889 243.277 291.508 243.277Z" fill="#D2E4FF"/>
<path d="M370.308 294.88C370.215 294.88 370.124 294.878 370.035 294.873C368.275 294.787 366.735 293.964 365.46 292.427C357.135 282.394 361.378 241.032 364.648 217.27C364.841 215.866 365.276 214.543 365.907 213.342C365.02 211.378 364.152 209.988 363.338 209.324C362.818 208.901 362.632 209.021 362.508 209.099C355.364 213.672 354.089 241.869 354.2 252.348L351.755 252.374C351.713 248.379 351.617 213.167 361.19 207.04C361.862 206.609 363.238 206.087 364.883 207.429C365.78 208.16 366.659 209.39 367.512 211.002C369.745 208.447 373.024 206.848 376.61 206.848H439.599C452.044 206.848 462.169 216.973 462.169 229.418V237.679H459.724V229.418C459.724 218.321 450.696 209.293 439.599 209.293H376.61C373.363 209.293 370.431 210.937 368.678 213.474C371.927 221.116 374.679 233.843 376.317 244.519C377.482 252.115 380.939 277.798 376.492 289.388C374.769 293.878 372.23 294.88 370.308 294.88ZM367.242 216.687C367.17 216.988 367.112 217.293 367.069 217.604C365.62 228.134 363.777 243.729 363.229 258.214C362.4 280.107 365.007 288.054 367.341 290.866C368.172 291.867 369.091 292.379 370.154 292.431C370.773 292.458 372.658 292.554 374.209 288.513C379.618 274.411 373.404 233.837 367.242 216.687Z" fill="#AED3FF"/>
<path d="M359.006 250.148H346.881V256.057H359.006V250.148Z" fill="#D2E4FF"/>
<path d="M350.309 255.548H348.785V263.291H350.309V255.548Z" fill="#D2E4FF"/>
<path d="M350.309 259.42H348.785V263.292H350.309V259.42Z" fill="#9EC7EF"/>
<path d="M357.101 255.548H355.577V263.291H357.101V255.548Z" fill="#D2E4FF"/>
<path d="M357.101 259.42H355.577V263.292H357.101V259.42Z" fill="#9EC7EF"/>
<path d="M413.711 338.931L389.522 323.971C386.611 322.171 385.711 318.352 387.511 315.442L439.357 231.614C441.157 228.703 444.976 227.803 447.886 229.603L472.075 244.563C474.985 246.363 475.886 250.182 474.085 253.092L422.239 336.92C420.44 339.831 416.621 340.731 413.711 338.931Z" fill="#D2E4FF"/>
<path d="M429.882 297.998C436.647 297.998 442.132 292.514 442.132 285.748C442.132 278.983 436.647 273.498 429.882 273.498C423.116 273.498 417.632 278.983 417.632 285.748C417.632 292.514 423.116 297.998 429.882 297.998Z" fill="#AED3FF"/>
<path d="M425.081 285.301C426.473 285.301 427.603 284.172 427.603 282.779C427.603 281.386 426.473 280.257 425.081 280.257C423.688 280.257 422.559 281.386 422.559 282.779C422.559 284.172 423.688 285.301 425.081 285.301Z" fill="#D2E4FF"/>
<path d="M434.989 291.429C436.382 291.429 437.511 290.3 437.511 288.907C437.511 287.514 436.382 286.385 434.989 286.385C433.596 286.385 432.467 287.514 432.467 288.907C432.467 290.3 433.596 291.429 434.989 291.429Z" fill="#D2E4FF"/>
<path d="M411.07 328.415C417.835 328.415 423.32 322.931 423.32 316.165C423.32 309.4 417.835 303.915 411.07 303.915C404.304 303.915 398.82 309.4 398.82 316.165C398.82 322.931 404.304 328.415 411.07 328.415Z" fill="#AED3FF"/>
<path d="M406.269 315.717C407.662 315.717 408.791 314.588 408.791 313.195C408.791 311.802 407.662 310.673 406.269 310.673C404.876 310.673 403.747 311.802 403.747 313.195C403.747 314.588 404.876 315.717 406.269 315.717Z" fill="#D2E4FF"/>
<path d="M416.177 321.845C417.57 321.845 418.699 320.716 418.699 319.323C418.699 317.93 417.57 316.801 416.177 316.801C414.784 316.801 413.655 317.93 413.655 319.323C413.655 320.716 414.784 321.845 416.177 321.845Z" fill="#D2E4FF"/>
<path d="M448.694 267.582C455.459 267.582 460.944 262.098 460.944 255.332C460.944 248.567 455.459 243.082 448.694 243.082C441.928 243.082 436.444 248.567 436.444 255.332C436.444 262.098 441.928 267.582 448.694 267.582Z" fill="#AED3FF"/>
<path d="M443.893 254.885C445.286 254.885 446.415 253.756 446.415 252.363C446.415 250.97 445.286 249.841 443.893 249.841C442.5 249.841 441.371 250.97 441.371 252.363C441.371 253.756 442.5 254.885 443.893 254.885Z" fill="#D2E4FF"/>
<path d="M453.801 261.013C455.194 261.013 456.323 259.884 456.323 258.491C456.323 257.098 455.194 255.969 453.801 255.969C452.408 255.969 451.279 257.098 451.279 258.491C451.279 259.884 452.408 261.013 453.801 261.013Z" fill="#D2E4FF"/>
<path d="M522.068 294.88C521.975 294.88 521.884 294.878 521.795 294.873C520.035 294.787 518.495 293.964 517.22 292.427C508.895 282.394 513.138 241.032 516.408 217.27C516.601 215.866 517.036 214.543 517.667 213.342C516.779 211.378 515.912 209.988 515.098 209.324C514.578 208.901 514.392 209.021 514.268 209.099C507.124 213.672 505.849 241.869 505.96 252.348L503.515 252.374C503.473 248.379 503.377 213.167 512.95 207.04C513.622 206.609 514.998 206.087 516.643 207.429C517.54 208.16 518.419 209.39 519.272 211.002C521.505 208.447 524.784 206.848 528.37 206.848H591.359C603.804 206.848 613.929 216.973 613.929 229.418V237.679H611.484V229.418C611.484 218.321 602.456 209.293 591.359 209.293H528.37C525.123 209.293 522.191 210.937 520.438 213.474C523.687 221.116 526.439 233.843 528.077 244.519C529.242 252.115 532.698 277.798 528.252 289.388C526.529 293.878 523.99 294.88 522.068 294.88ZM519.002 216.687C518.93 216.988 518.873 217.293 518.829 217.604C517.38 228.134 515.537 243.729 514.988 258.214C514.159 280.107 516.767 288.054 519.1 290.866C519.931 291.867 520.85 292.379 521.913 292.431C522.532 292.458 524.417 292.554 525.968 288.513C531.378 274.411 525.163 233.837 519.002 216.687Z" fill="#AED3FF"/>
<path d="M510.765 250.148H498.641V256.057H510.765V250.148Z" fill="#D2E4FF"/>
<path d="M502.069 255.548H500.545V263.291H502.069V255.548Z" fill="#D2E4FF"/>
<path d="M502.069 259.42H500.545V263.292H502.069V259.42Z" fill="#9EC7EF"/>
<path d="M508.861 255.548H507.337V263.291H508.861V255.548Z" fill="#D2E4FF"/>
<path d="M508.861 259.42H507.337V263.292H508.861V259.42Z" fill="#9EC7EF"/>
<path d="M582.719 312.627L557.112 296.789C554.593 295.231 553.814 291.927 555.372 289.408L591.556 230.904C593.114 228.385 596.418 227.606 598.937 229.164L624.544 245.001C627.063 246.559 627.842 249.864 626.284 252.382L590.1 310.886C588.543 313.406 585.238 314.185 582.719 312.627Z" fill="#D2E4FF"/>
<path d="M581.642 297.998C588.408 297.998 593.892 292.514 593.892 285.748C593.892 278.983 588.408 273.498 581.642 273.498C574.877 273.498 569.392 278.983 569.392 285.748C569.392 292.514 574.877 297.998 581.642 297.998Z" fill="#AED3FF"/>
<path d="M576.841 285.301C578.234 285.301 579.363 284.172 579.363 282.779C579.363 281.386 578.234 280.257 576.841 280.257C575.448 280.257 574.319 281.386 574.319 282.779C574.319 284.172 575.448 285.301 576.841 285.301Z" fill="#D2E4FF"/>
<path d="M586.749 291.429C588.142 291.429 589.271 290.3 589.271 288.907C589.271 287.514 588.142 286.385 586.749 286.385C585.356 286.385 584.227 287.514 584.227 288.907C584.227 290.3 585.356 291.429 586.749 291.429Z" fill="#D2E4FF"/>
<path d="M600.454 267.582C607.22 267.582 612.704 262.098 612.704 255.332C612.704 248.567 607.22 243.082 600.454 243.082C593.689 243.082 588.204 248.567 588.204 255.332C588.204 262.098 593.689 267.582 600.454 267.582Z" fill="#AED3FF"/>
<path d="M595.653 254.885C597.046 254.885 598.175 253.756 598.175 252.363C598.175 250.97 597.046 249.841 595.653 249.841C594.26 249.841 593.131 250.97 593.131 252.363C593.131 253.756 594.26 254.885 595.653 254.885Z" fill="#D2E4FF"/>
<path d="M605.561 261.013C606.954 261.013 608.083 259.884 608.083 258.491C608.083 257.098 606.954 255.969 605.561 255.969C604.168 255.969 603.039 257.098 603.039 258.491C603.039 259.884 604.168 261.013 605.561 261.013Z" fill="#D2E4FF"/>
<path d="M879.545 143.603H854.03V1285.78H879.545V143.603Z" fill="#D2E4FF"/>
<path d="M1438.78 143.603H1413.26V1285.78H1438.78V143.603Z" fill="#D2E4FF"/>
<path d="M1432.67 143.603H864.203V165.081H1432.67V143.603Z" fill="#D2E4FF"/>
<path d="M1432.67 380.353H864.203V401.831H1432.67V380.353Z" fill="#D2E4FF"/>
<path d="M1432.67 617.103H864.203V638.581H1432.67V617.103Z" fill="#D2E4FF"/>
<path d="M1432.67 853.853H864.203V875.331H1432.67V853.853Z" fill="#D2E4FF"/>
<path d="M924.347 283.805L1114.54 219.75L1131.8 276.173L918.458 326.396L924.347 283.805Z" fill="#D2E4FF"/>
<path d="M1159.02 200.473L1117.77 211.553C1112.18 213.055 1108.83 218.861 1110.34 224.454L1123.84 274.735C1125.35 280.328 1131.15 283.675 1136.75 282.173L1177.99 271.093C1183.58 269.591 1186.93 263.785 1185.42 258.192L1171.92 207.911C1170.41 202.317 1164.61 198.971 1159.02 200.473ZM1176.81 254.323C1177.97 258.633 1175.39 263.107 1171.08 264.265L1139.3 272.804C1134.99 273.962 1130.52 271.383 1129.36 267.073L1118.95 228.324C1117.79 224.014 1120.37 219.54 1124.68 218.382L1156.46 209.843C1160.77 208.685 1165.25 211.264 1166.4 215.574L1176.81 254.323Z" fill="#F99746"/>
<path d="M1183.99 269.479C1180.05 270.538 1175.96 268.18 1174.9 264.239L1159.78 207.948C1158.72 204.008 1161.08 199.917 1165.02 198.859C1168.96 197.8 1173.05 200.158 1174.11 204.099L1189.23 260.39C1190.29 264.331 1187.93 268.421 1183.99 269.479Z" fill="#2A4E96"/>
<path d="M1128.26 304.984L1318.45 240.929L1335.72 297.352L1122.37 347.575L1128.26 304.984Z" fill="#D2E4FF"/>
<path d="M1362.93 221.652L1321.69 232.732C1316.09 234.235 1312.75 240.041 1314.25 245.633L1327.76 295.914C1329.26 301.507 1335.06 304.854 1340.66 303.352L1381.9 292.272C1387.49 290.77 1390.84 284.964 1389.34 279.371L1375.83 229.09C1374.33 223.496 1368.52 220.149 1362.93 221.652ZM1380.73 275.501C1381.88 279.811 1379.31 284.285 1375 285.443L1343.21 293.982C1338.9 295.14 1334.43 292.561 1333.27 288.25L1322.86 249.501C1321.7 245.191 1324.28 240.717 1328.59 239.559L1360.37 231.02C1364.68 229.862 1369.16 232.441 1370.32 236.751L1380.73 275.501Z" fill="#F99746"/>
<path d="M1387.91 290.658C1383.97 291.717 1379.87 289.359 1378.82 285.418L1363.69 229.127C1362.63 225.187 1364.99 221.096 1368.93 220.038C1372.87 218.979 1376.96 221.337 1378.02 225.278L1393.15 281.569C1394.2 285.509 1391.85 289.6 1387.91 290.658Z" fill="#2A4E96"/>
<path d="M1227.19 468.408L1208.72 474.74L1235.83 553.832L1254.3 547.5L1227.19 468.408Z" fill="#AED3FF"/>
<path d="M1222.8 440.332C1222.82 440.41 1222.85 440.489 1222.88 440.567C1225.19 447.843 1221.43 455.861 1214.36 458.727C1206.43 461.935 1197.55 457.809 1194.81 449.83C1194.8 449.785 1194.78 449.74 1194.77 449.694C1193.82 446.846 1189.72 447.062 1189.19 450.016C1188.44 454.235 1188.86 458.731 1190.67 463.033C1195.12 473.555 1206.91 479.27 1217.92 476.25C1230.86 472.701 1237.94 459.056 1233.66 446.56C1232.39 442.863 1230.27 439.697 1227.6 437.204C1225.35 435.102 1221.82 437.412 1222.8 440.332Z" fill="#AED3FF"/>
<path d="M1265.23 564.123C1265.21 564.045 1265.18 563.968 1265.15 563.89C1262.51 556.725 1254.63 552.696 1247.28 554.776C1239.06 557.105 1234.57 565.814 1237.31 573.793C1237.32 573.838 1237.34 573.883 1237.35 573.928C1238.35 576.757 1234.98 579.105 1232.75 577.094C1229.57 574.222 1227.14 570.416 1225.94 565.905C1222.99 554.869 1228.8 543.124 1239.35 538.752C1251.74 533.616 1265.71 540.047 1269.99 552.544C1271.26 556.241 1271.53 560.039 1270.95 563.646C1270.46 566.686 1266.25 567.03 1265.23 564.123Z" fill="#AED3FF"/>
<path d="M1343.96 471.942L1327.17 477.698L1351.82 549.59L1368.61 543.834L1343.96 471.942Z" fill="#AED3FF"/>
<path d="M1339.96 446.411C1339.99 446.482 1340.01 446.554 1340.03 446.625C1342.13 453.239 1338.72 460.527 1332.29 463.131C1325.09 466.047 1317.01 462.297 1314.52 455.044C1314.51 455.003 1314.5 454.962 1314.48 454.921C1313.62 452.333 1309.89 452.528 1309.41 455.214C1308.73 459.049 1309.11 463.135 1310.76 467.046C1314.8 476.61 1325.52 481.805 1335.53 479.06C1347.29 475.834 1353.73 463.432 1349.83 452.073C1348.68 448.713 1346.76 445.835 1344.33 443.569C1342.28 441.657 1339.07 443.757 1339.96 446.411Z" fill="#AED3FF"/>
<path d="M1378.54 558.934C1378.51 558.863 1378.49 558.793 1378.46 558.722C1376.06 552.209 1368.9 548.547 1362.22 550.438C1354.74 552.555 1350.66 560.471 1353.15 567.724C1353.16 567.765 1353.18 567.806 1353.19 567.847C1354.1 570.419 1351.04 572.553 1349.01 570.725C1346.12 568.115 1343.91 564.655 1342.82 560.554C1340.14 550.523 1345.41 539.847 1355.01 535.872C1366.27 531.204 1378.96 537.05 1382.86 548.408C1384.01 551.769 1384.26 555.221 1383.73 558.499C1383.29 561.263 1379.46 561.577 1378.54 558.934Z" fill="#AED3FF"/>
<path d="M975.803 436.637L1018.84 582.825C1020.5 588.462 1017.27 594.381 1011.64 596.04L1011.39 596.114C1005.75 597.773 999.829 594.547 998.17 588.91L955.134 442.722C953.474 437.085 956.7 431.167 962.338 429.507L962.588 429.433C968.225 427.773 974.144 430.999 975.803 436.637Z" fill="#AED3FF"/>
<path d="M962.761 468.631L923.518 462.487L919.954 450.378L954.403 440.237L962.761 468.631Z" fill="#D2E4FF"/>
<path d="M1000.45 429.386L975.807 436.642L983.062 461.288L1007.71 454.033L1000.45 429.386Z" fill="#D2E4FF"/>
<path d="M1016.82 417.677L998.595 423.041L1009.56 460.29L1027.78 454.926L1016.82 417.677Z" fill="#D2E4FF"/>
<path d="M1006.73 541.674L1018.84 582.824C1020.5 588.461 1017.27 594.38 1011.64 596.039L1011.39 596.113C1005.75 597.772 999.829 594.546 998.17 588.909L986.056 547.759L1006.73 541.674Z" fill="#F99746"/>
<path d="M1105.22 455.419L1136.78 562.65C1138 566.785 1135.63 571.126 1131.5 572.343L1131.31 572.397C1127.18 573.614 1122.84 571.248 1121.62 567.113L1090.05 459.882C1088.84 455.747 1091.2 451.406 1095.34 450.189L1095.52 450.135C1099.66 448.917 1104 451.284 1105.22 455.419Z" fill="#AED3FF"/>
<path d="M1095.65 478.887L1066.86 474.381L1064.25 465.499L1089.52 458.06L1095.65 478.887Z" fill="#D2E4FF"/>
<path d="M1123.3 450.093L1105.22 455.415L1110.54 473.493L1128.62 468.171L1123.3 450.093Z" fill="#D2E4FF"/>
<path d="M1135.29 441.531L1121.93 445.465L1129.97 472.788L1143.34 468.854L1135.29 441.531Z" fill="#D2E4FF"/>
<path d="M1127.9 532.465L1136.78 562.65C1138 566.785 1135.64 571.126 1131.5 572.343L1131.32 572.397C1127.18 573.614 1122.84 571.248 1121.62 567.113L1112.74 536.928L1127.9 532.465Z" fill="#F99746"/>
<path d="M913.4 800.009L930.868 836.485L1212.56 701.591L1195.09 665.115L913.4 800.009Z" fill="#D2E4FF"/>
<path d="M918.441 797.604L913.458 799.991L930.93 836.469L935.913 834.082L918.441 797.604Z" fill="#F99746"/>
<path d="M1197.64 664.002L1192.65 666.387L1210.12 702.869L1215.1 700.484L1197.64 664.002Z" fill="#F99746"/>
<path d="M946.284 813.943C950.3 813.943 953.557 810.687 953.557 806.67C953.557 802.653 950.3 799.397 946.284 799.397C942.267 799.397 939.011 802.653 939.011 806.67C939.011 810.687 942.267 813.943 946.284 813.943Z" fill="#F99746"/>
<path d="M1177.33 703.305C1181.34 703.305 1184.6 700.049 1184.6 696.032C1184.6 692.015 1181.34 688.759 1177.33 688.759C1173.31 688.759 1170.05 692.015 1170.05 696.032C1170.05 700.049 1173.31 703.305 1177.33 703.305Z" fill="#F99746"/>
<path d="M1071.76 724.162C1074.15 733.149 1069.89 742.847 1061.2 747.011C1052.51 751.172 1042.29 748.407 1036.78 740.911L1071.76 724.162Z" fill="#F99746"/>
<path d="M1090.69 801.244L1108.16 837.721L1389.85 702.827L1372.38 666.35L1090.69 801.244Z" fill="#D2E4FF"/>
<path d="M1095.71 798.936L1090.73 801.322L1108.19 837.804L1113.18 835.418L1095.71 798.936Z" fill="#739AF0"/>
<path d="M1374.88 665.054L1369.9 667.44L1387.36 703.918L1392.35 701.533L1374.88 665.054Z" fill="#739AF0"/>
<path d="M1123.58 815.174C1127.59 815.174 1130.85 811.918 1130.85 807.901C1130.85 803.884 1127.59 800.628 1123.58 800.628C1119.56 800.628 1116.3 803.884 1116.3 807.901C1116.3 811.918 1119.56 815.174 1123.58 815.174Z" fill="#739AF0"/>
<path d="M1354.62 704.536C1358.64 704.536 1361.89 701.28 1361.89 697.263C1361.89 693.246 1358.64 689.99 1354.62 689.99C1350.6 689.99 1347.35 693.246 1347.35 697.263C1347.35 701.28 1350.6 704.536 1354.62 704.536Z" fill="#739AF0"/>
<path d="M1249.05 725.394C1251.44 734.38 1247.19 744.078 1238.49 748.242C1229.8 752.403 1219.58 749.638 1214.08 742.142L1249.05 725.394Z" fill="#739AF0"/>
<path d="M1047.54 1034.05C989.33 1034.05 942.146 1081.24 942.146 1139.45C942.146 1197.65 989.33 1244.84 1047.54 1244.84C1105.75 1244.84 1152.93 1197.65 1152.93 1139.45C1152.93 1081.24 1105.75 1034.05 1047.54 1034.05ZM1047.54 1156.83C1037.94 1156.83 1030.15 1149.05 1030.15 1139.44C1030.15 1129.84 1037.94 1122.06 1047.54 1122.06C1057.14 1122.06 1064.92 1129.84 1064.92 1139.44C1064.92 1149.05 1057.14 1156.83 1047.54 1156.83Z" fill="#D2E4FF"/>
<path d="M1047.54 1045.88C995.865 1045.88 953.969 1087.77 953.969 1139.45C953.969 1191.12 995.865 1233.02 1047.54 1233.02C1099.21 1233.02 1141.11 1191.12 1141.11 1139.45C1141.11 1087.77 1099.21 1045.88 1047.54 1045.88ZM1047.54 1156.83C1037.94 1156.83 1030.15 1149.05 1030.15 1139.45C1030.15 1129.84 1037.94 1122.06 1047.54 1122.06C1057.14 1122.06 1064.92 1129.84 1064.92 1139.45C1064.92 1149.05 1057.14 1156.83 1047.54 1156.83Z" fill="#AED3FF"/>
<path d="M1047.54 1102.63C1027.21 1102.63 1010.72 1119.11 1010.72 1139.44C1010.72 1159.77 1027.21 1176.26 1047.54 1176.26C1067.87 1176.26 1084.35 1159.77 1084.35 1139.44C1084.35 1119.11 1067.87 1102.63 1047.54 1102.63ZM1047.54 1156.83C1037.94 1156.83 1030.15 1149.05 1030.15 1139.44C1030.15 1129.84 1037.94 1122.06 1047.54 1122.06C1057.14 1122.06 1064.92 1129.84 1064.92 1139.44C1064.92 1149.05 1057.14 1156.83 1047.54 1156.83Z" fill="#9EC7EF"/>
<path d="M1299.85 1070.2C1254.05 1070.2 1216.93 1107.32 1216.93 1153.12C1216.93 1198.92 1254.05 1236.05 1299.85 1236.05C1345.65 1236.05 1382.78 1198.92 1382.78 1153.12C1382.78 1107.32 1345.65 1070.2 1299.85 1070.2ZM1299.85 1166.8C1292.3 1166.8 1286.17 1160.68 1286.17 1153.12C1286.17 1145.57 1292.3 1139.45 1299.85 1139.45C1307.41 1139.45 1313.53 1145.57 1313.53 1153.12C1313.53 1160.68 1307.41 1166.8 1299.85 1166.8Z" fill="#D2E4FF"/>
<path d="M1299.85 1079.5C1259.19 1079.5 1226.23 1112.47 1226.23 1153.12C1226.23 1193.78 1259.19 1226.75 1299.85 1226.75C1340.51 1226.75 1373.48 1193.78 1373.48 1153.12C1373.48 1112.47 1340.51 1079.5 1299.85 1079.5ZM1299.85 1166.8C1292.3 1166.8 1286.17 1160.68 1286.17 1153.12C1286.17 1145.57 1292.3 1139.45 1299.85 1139.45C1307.41 1139.45 1313.53 1145.57 1313.53 1153.12C1313.53 1160.68 1307.41 1166.8 1299.85 1166.8Z" fill="#AED3FF"/>
<path d="M1299.85 1124.16C1283.86 1124.16 1270.88 1137.13 1270.88 1153.12C1270.88 1169.12 1283.86 1182.09 1299.85 1182.09C1315.85 1182.09 1328.82 1169.12 1328.82 1153.12C1328.82 1137.13 1315.85 1124.16 1299.85 1124.16ZM1299.85 1166.8C1292.3 1166.8 1286.17 1160.68 1286.17 1153.12C1286.17 1145.57 1292.3 1139.45 1299.85 1139.45C1307.41 1139.45 1313.53 1145.57 1313.53 1153.12C1313.53 1160.68 1307.41 1166.8 1299.85 1166.8Z" fill="#9EC7EF"/>
<path d="M1195.35 926.119C1159.13 926.119 1129.78 955.477 1129.78 991.694C1129.78 1027.91 1159.13 1057.27 1195.35 1057.27C1231.57 1057.27 1260.93 1027.91 1260.93 991.694C1260.93 955.477 1231.57 926.119 1195.35 926.119ZM1195.35 1002.51C1189.38 1002.51 1184.53 997.669 1184.53 991.695C1184.53 985.721 1189.38 980.879 1195.35 980.879C1201.33 980.879 1206.17 985.721 1206.17 991.695C1206.17 997.669 1201.32 1002.51 1195.35 1002.51Z" fill="#D2E4FF"/>
<path d="M1195.35 933.475C1163.2 933.475 1137.13 959.543 1137.13 991.695C1137.13 1023.85 1163.2 1049.92 1195.35 1049.92C1227.5 1049.92 1253.57 1023.85 1253.57 991.695C1253.57 959.543 1227.5 933.475 1195.35 933.475ZM1195.35 1002.51C1189.38 1002.51 1184.53 997.669 1184.53 991.695C1184.53 985.721 1189.38 980.879 1195.35 980.879C1201.33 980.879 1206.17 985.721 1206.17 991.695C1206.17 997.669 1201.32 1002.51 1195.35 1002.51Z" fill="#AED3FF"/>
<path d="M1195.35 968.788C1182.7 968.788 1172.44 979.045 1172.44 991.694C1172.44 1004.34 1182.7 1014.6 1195.35 1014.6C1208 1014.6 1218.26 1004.34 1218.26 991.694C1218.26 979.045 1208 968.788 1195.35 968.788ZM1195.35 1002.51C1189.38 1002.51 1184.53 997.669 1184.53 991.695C1184.53 985.721 1189.38 980.879 1195.35 980.879C1201.33 980.879 1206.17 985.721 1206.17 991.695C1206.17 997.669 1201.32 1002.51 1195.35 1002.51Z" fill="#9EC7EF"/>
<path d="M2812.78 1290.41H3.19C1.435 1290.41 0 1288.97 0 1287.22V1286.13C0 1284.38 1.436 1282.94 3.19 1282.94H2812.78C2814.53 1282.94 2815.97 1284.38 2815.97 1286.13V1287.22C2815.97 1288.97 2814.53 1290.41 2812.78 1290.41Z" fill="#2E3552"/>
<path d="M746.739 449.566C746.739 449.566 815.994 520.949 819.572 549.977C823.15 579.005 784.094 624.416 784.094 624.416L746.739 449.566Z" fill="#6292E8"/>
<path d="M709.54 1243.54C709.54 1243.54 707.003 1284.46 699.085 1285.05C698.032 1285.12 658.927 1285.12 658.927 1285.12L609.008 1284.84C609.008 1284.84 609.335 1272.81 623.926 1270.27C638.518 1267.72 662.941 1257.47 671.78 1238.18C681.079 1217.89 709.54 1243.54 709.54 1243.54Z" fill="#163560"/>
<path d="M820.727 1243.54C820.727 1243.54 818.189 1284.46 810.272 1285.05C809.219 1285.12 770.114 1285.12 770.114 1285.12L720.195 1284.84C720.195 1284.84 720.522 1272.81 735.113 1270.27C749.705 1267.72 774.128 1257.47 782.967 1238.18C792.266 1217.89 820.727 1243.54 820.727 1243.54Z" fill="#163560"/>
<path d="M654.255 803.703C654.255 803.703 667.311 887.204 716.015 1035.43C764.719 1183.66 771.356 1247.85 771.356 1247.85L823.604 1246.38C823.604 1246.38 824.05 1084.39 801.604 1009.85C779.158 935.31 796.76 741.129 796.76 741.129L654.255 803.703Z" fill="#163560"/>
<path d="M628.83 745.704C628.83 745.704 626.981 871.535 648.752 1026.03C670.523 1180.53 663.143 1246.11 663.143 1246.11L715.286 1247.85C715.286 1247.85 746.448 1093.29 737.513 1015.96C728.579 938.631 780.184 750.607 780.184 750.607L628.83 745.704Z" fill="#1C468A"/>
<path d="M729.771 451.242L701.989 469.457L661.838 461.974C662.394 458.732 665.045 445.299 667.458 433.131C667.604 432.413 667.75 431.696 667.886 430.994C669.954 420.64 671.739 411.746 671.739 411.746L709.239 395.2L723.221 389.032C723.184 389.25 722.137 400.522 721.992 402.167C719.369 431.39 729.771 451.242 729.771 451.242Z" fill="#FFB27D"/>
<path d="M672.122 442.051C672.901 441.723 720.472 427.685 725.64 429.391C730.807 431.098 733.868 441.096 733.868 441.096L656.057 458.688C656.057 458.688 662.181 446.236 672.122 442.051Z" fill="#6292E8"/>
<path d="M800.221 761.238C792.158 798.022 657.959 802.384 623.367 768.995C619.432 765.188 619.239 747.481 620.722 723.605C623.625 676.959 632.946 606.792 633.309 570.942C633.487 553.63 635.865 535.922 639.034 519.844C645.775 485.574 656.056 458.683 656.056 458.683C656.056 458.683 721.603 437.493 733.868 441.097C792.955 458.458 808.284 724.453 800.221 761.238Z" fill="#739AF0"/>
<path d="M620.722 723.605C623.625 676.959 632.946 606.792 633.309 570.942C633.487 553.63 635.865 535.922 639.034 519.844L678.464 512.885C678.464 512.886 717.015 670.348 620.722 723.605Z" fill="#6292E8"/>
<path d="M642.074 658.587C642.074 658.587 644.762 665.012 639.117 669.325C633.472 673.638 629.812 680.627 631.105 685.733C632.398 690.84 644.779 699.171 649.071 697.828C653.363 696.484 662.098 689.758 661.157 687.064C660.216 684.37 667.032 663.424 656.569 655.361C646.106 647.299 642.074 658.587 642.074 658.587Z" fill="#FFB27D"/>
<path d="M686.164 449.247C686.164 449.247 647.709 456.443 617.069 501.598C586.428 546.753 566.27 580.324 571.914 596.598C577.558 612.872 629.008 669.316 637.878 669.316C646.748 669.316 661.062 662.865 661.868 648.351C661.868 648.351 625.645 594.061 632.781 585.93C635.83 582.455 679.808 546.753 686.087 562.88C696.474 589.562 686.164 449.247 686.164 449.247Z" fill="#739AF0"/>
<path d="M719.177 402.684C710.943 416.634 680.256 428.696 667.458 433.131C667.604 432.413 667.75 431.696 667.886 430.994C669.954 420.64 671.739 411.746 671.739 411.746L709.239 395.2C717.529 395.088 722.575 396.943 719.177 402.684Z" fill="#FCA56B"/>
<path d="M657.604 409.467C657.604 409.467 718.01 428.311 729.166 390.512C740.322 352.713 755.631 329.689 717.535 316.059C679.439 302.429 667.654 314.632 660.862 326.342C654.071 338.053 642.178 403.591 657.604 409.467Z" fill="#FFB27D"/>
<path d="M663.235 322.701C663.235 322.701 667.088 366.687 676.184 364.777C685.28 362.867 693.53 361.452 692.198 374.711C690.866 387.97 678.252 403.281 706.286 405.626C734.32 407.972 774.62 335.674 766.919 321.986C744.698 282.489 631.118 274.519 663.235 322.701Z" fill="#163560"/>
<path d="M1565.88 1081.13C1565.88 1081.13 1599.33 1042.1 1567.94 1017.31C1567.94 1017.31 1545.01 1003.43 1526.32 1004.56C1526.32 1004.56 1552.81 1048.98 1544.24 1053.4C1535.67 1057.82 1518.29 1001.77 1518.29 1001.77C1518.29 1001.77 1466.11 996.715 1449.33 1004.78C1449.33 1004.78 1493.93 1041.28 1484.54 1043.46C1475.14 1045.63 1426.97 1009.8 1426.97 1009.8C1426.97 1009.8 1378.41 1018.07 1381 1047.69C1383.59 1077.31 1400.32 1086.46 1407.67 1085.67C1415.03 1084.89 1458.05 1068.46 1458.98 1074.49C1459.92 1080.52 1434.03 1100.21 1415.89 1101.13C1415.89 1101.13 1450.13 1138.89 1472.88 1127.99C1495.63 1117.09 1497.58 1099.82 1511.76 1093.34C1525.94 1086.86 1538.05 1086.88 1532.2 1093.49C1526.34 1100.09 1500.67 1106.51 1492.56 1120.86C1484.45 1135.21 1477.17 1144.89 1500.71 1141.34C1524.25 1137.8 1562.52 1120.58 1564.2 1100.85C1565.88 1081.13 1565.88 1081.13 1565.88 1081.13Z" fill="#82B378"/>
<path d="M1404.86 1048.49C1404.86 1048.49 1536.75 1043.41 1565.88 1081.13C1565.88 1081.13 1572.32 1100.42 1592.14 1117.99L1595.23 1126.41C1595.23 1126.41 1572.38 1102.31 1564.2 1100.85C1564.2 1100.85 1576.99 1054.12 1404.86 1048.49Z" fill="#82B378"/>
<path d="M1592.14 1117.99C1592.14 1117.99 1620.45 1138.92 1622.42 1176.33L1617.28 1176.79C1617.28 1176.79 1608.24 1138.11 1591.89 1122.98C1575.55 1107.86 1592.14 1117.99 1592.14 1117.99Z" fill="#82B378"/>
<path d="M1882.27 1040.5C1882.27 1040.5 1845.11 1100.27 1799.79 1069.51C1799.79 1069.51 1772.22 1045.3 1765.98 1020.42C1765.98 1020.42 1834.9 1036.69 1837.14 1023.68C1839.37 1010.67 1759.03 1011.09 1759.03 1011.09C1759.03 1011.09 1730.91 945.048 1734.52 919.805C1734.52 919.805 1800.57 962.992 1799.54 949.829C1798.5 936.668 1731.85 888.537 1731.85 888.537C1731.85 888.537 1722.62 821.724 1762.37 812.889C1802.11 804.054 1820.96 822.128 1822.96 832.056C1824.97 841.983 1821.26 904.925 1829.52 903.664C1837.77 902.402 1852.81 860.47 1846.53 836.413C1846.53 836.413 1909.95 865.545 1905.1 899.747C1900.26 933.95 1878.51 943.609 1875.9 964.8C1873.29 985.991 1878.3 1001.79 1884.51 991.423C1890.73 981.052 1888.52 944.888 1903.91 928.38C1919.3 911.872 1928.93 898.379 1934.02 930.578C1939.1 962.775 1932.39 1019.84 1907.33 1030.17C1882.27 1040.5 1882.27 1040.5 1882.27 1040.5Z" fill="#A8D29F"/>
<path d="M1773.25 843.714C1773.25 843.714 1821 1018.02 1882.27 1040.5C1882.27 1040.5 1910.11 1040.95 1941.23 1059.59L1953.49 1060.15C1953.49 1060.15 1912.6 1040.25 1907.33 1030.17C1907.33 1030.17 1851.59 1066.14 1773.25 843.714Z" fill="#82B378"/>
<path d="M1941.22 1059.59C1941.22 1059.59 1980.24 1087.92 2029.89 1075.06L2028.37 1068.16C2028.37 1068.16 1974.14 1072.31 1947.65 1057.21C1921.16 1042.11 1941.22 1059.59 1941.22 1059.59Z" fill="#82B378"/>
<path d="M1615.99 878.941C1615.99 878.941 1695.75 818.867 1646.55 758.73C1646.55 758.73 1608.85 722.823 1572.91 717.156C1572.91 717.156 1604.62 812.493 1586.51 817.298C1568.41 822.103 1558.84 708.517 1558.84 708.517C1558.84 708.517 1461.96 677.133 1426.75 685.434C1426.75 685.434 1496.13 773.308 1477.4 773.508C1458.67 773.709 1382.22 685.622 1382.22 685.622C1382.22 685.622 1286.64 681.024 1279.19 738.309C1271.73 795.593 1299.66 819.934 1313.94 821.51C1328.22 823.086 1416.69 809.893 1415.96 821.716C1415.22 833.539 1357.87 860.089 1323.08 854.265C1323.08 854.265 1372.27 940.194 1419.99 929.021C1467.71 917.848 1478.6 885.887 1508.22 879.518C1537.83 873.15 1560.8 878.236 1546.93 888.327C1533.06 898.417 1481.68 899.882 1460.3 923.717C1438.92 947.551 1421.07 962.871 1467.21 965.981C1513.35 969.089 1593.15 952.385 1604.57 915.665C1615.99 878.941 1615.99 878.941 1615.99 878.941Z" fill="#A8D29F"/>
<path d="M1324.12 749.788C1324.12 749.788 1576.48 795.215 1615.99 878.941C1615.99 878.941 1620.16 918.234 1650.43 959.84L1652.78 977.106C1652.78 977.106 1619.48 921.843 1604.57 915.663C1604.57 915.663 1648.35 832.342 1324.12 749.788Z" fill="#82B378"/>
<path d="M1650.43 959.841C1650.43 959.841 1695.4 1011.38 1683.51 1083.18L1673.57 1081.91C1673.57 1081.91 1672.57 1004.74 1647.88 969.221C1623.19 933.699 1650.43 959.841 1650.43 959.841Z" fill="#82B378"/>
<path d="M2279.68 372.127C2279.68 372.127 2228.06 383.099 2216 391.114C2203.93 399.13 2220.52 645.222 2240.12 726.06H2432.28L2419.21 391.114C2419.21 391.114 2378.91 372.511 2349.56 372.127C2320.22 371.743 2279.68 372.127 2279.68 372.127Z" fill="#2A4E96"/>
<path d="M2354.93 372.384C2354.93 372.384 2344.32 389.023 2329.4 396.024C2306.79 406.635 2280.16 390.896 2279.04 366.012C2279.02 365.491 2279 364.976 2279 364.467C2278.98 362.712 2278.96 361.012 2278.93 359.396C2278.74 343.343 2278.19 334.336 2278.19 334.336C2278.19 334.336 2278.2 334.332 2278.23 334.328C2279.93 333.622 2335.24 310.99 2335.19 312.87C2334.24 356.286 2354.93 372.384 2354.93 372.384Z" fill="#FFB27D"/>
<path d="M2329.64 323.224C2324.31 333.077 2306 352.354 2278.93 359.396C2278.74 343.343 2278.19 334.336 2278.19 334.336C2278.19 334.336 2278.2 334.332 2278.23 334.328C2279.76 333.919 2331.23 320.319 2329.64 323.224Z" fill="#ED975D"/>
<path d="M2266.61 332.668C2266.61 332.668 2328.81 347.243 2337.32 308.496C2345.83 269.749 2359.59 245.535 2320.24 234.591C2280.88 223.647 2269.89 236.743 2263.9 248.987C2257.9 261.232 2250.65 327.878 2266.61 332.668Z" fill="#FFB27D"/>
<path d="M2335.19 319.053C2336.04 319.595 2349.43 323.693 2374.78 273.367C2378.76 265.467 2381.47 248.376 2372.19 233.276C2362.92 218.175 2330.03 206.302 2302.7 201.135C2275.38 195.968 2268.82 211.292 2262.38 226.692C2255.63 242.859 2236.12 256.169 2236.12 256.169C2259.68 269.287 2288.06 250.524 2297.9 253.61C2307.73 256.696 2311.2 272.139 2311.94 277.089C2312.67 282.039 2313.81 286.153 2326.17 281.732C2338.54 277.311 2331.76 299.193 2329.78 303.378C2329.78 303.379 2328.1 314.525 2335.19 319.053Z" fill="#A9453D"/>
<path d="M2110.27 684.606C2110.27 684.606 2100.58 701.111 2096.02 701.389C2085.7 702.018 2069.74 705.513 2066.67 707.494C2053.95 715.714 2035.6 730.615 2035.6 730.615L2047.55 729.862C2049.08 729.765 2050.57 729.32 2051.9 728.553C2056.51 725.902 2067.71 719.695 2069.9 720.658C2072.68 721.878 2080.15 723.346 2080.15 723.346L2059.86 724.993C2059.86 724.993 2058.56 728.912 2066.28 729.067C2073.99 729.223 2101.11 728.291 2105.97 723.985C2110.83 719.679 2123.94 695.038 2123.94 695.038L2110.27 684.606Z" fill="#FFB27D"/>
<path d="M2508.65 684.606C2508.65 684.606 2518.34 701.111 2522.89 701.389C2533.21 702.018 2549.18 705.513 2552.25 707.494C2564.97 715.714 2583.32 730.615 2583.32 730.615L2571.37 729.862C2569.83 729.765 2568.35 729.32 2567.02 728.553C2562.4 725.902 2551.2 719.695 2549.01 720.658C2546.24 721.878 2538.77 723.346 2538.77 723.346L2559.06 724.993C2559.06 724.993 2560.35 728.912 2552.64 729.067C2544.93 729.223 2517.8 728.291 2512.94 723.985C2508.08 719.679 2494.98 695.038 2494.98 695.038L2508.65 684.606Z" fill="#FFB27D"/>
<path d="M2216 391.114C2216 391.114 2184.49 407.813 2169.41 484.965C2154.33 562.117 2095.53 698.34 2095.53 698.34C2095.53 698.34 2095.53 704.5 2103.06 708.653C2109.51 712.212 2116.51 711.409 2116.51 711.409C2116.51 711.409 2192.12 614.307 2205.27 587.499C2218.42 560.691 2246.83 491.978 2246.83 491.978L2216 391.114Z" fill="#2A4E96"/>
<path d="M2419.21 391.114C2419.21 391.114 2450.71 407.813 2465.79 484.965C2480.87 562.117 2522.89 701.39 2522.89 701.39C2522.89 701.39 2520.16 705.048 2514.5 709.28C2511.86 711.255 2501.74 713.163 2501.74 713.163C2501.74 713.163 2443.09 614.308 2429.94 587.5C2416.78 560.692 2388.38 491.979 2388.38 491.979L2419.21 391.114Z" fill="#2A4E96"/>
<path d="M2263.71 308.315C2263.71 308.315 2264.21 315.329 2269.07 316.832C2273.93 318.335 2281.97 315.83 2283.31 314.327C2283.31 314.327 2274.43 307.355 2263.71 308.315Z" fill="white"/>
<path d="M2278.19 442.381H2236.12V463.923H2278.19V442.381Z" fill="white"/>
<path d="M2278.19 442.381H2236.12V446.723H2278.19V442.381Z" fill="#F99746"/>
<path d="M2558.8 806.898H1778.14V1282.89H2558.8V806.898Z" fill="#F99746"/>
<path d="M2702.26 726.061H2550.64V1282.9H2702.26V726.061Z" fill="#ED7D2B"/>
<path d="M2500.09 691.687H2292.59L2263.55 549.157H2471.05L2500.09 691.687Z" fill="#D6600F"/>
<path d="M2477.89 691.687H2270.39L2241.35 549.157H2448.85L2477.89 691.687Z" fill="#F99746"/>
<path d="M2451.28 691.687V726.062H2312.36V684.035H2424.39L2451.28 691.687Z" fill="#ED7D2B"/>
<path d="M2424.39 684.035H2312.36V726.061H2424.39V684.035Z" fill="#F99746"/>
<path d="M1915.18 694.797L1986.69 695.075L2011.17 574.255L1939.66 573.977L1915.18 694.797Z" fill="#D6600F"/>
<path d="M1906.07 694.762L1977.58 695.04L2002.05 574.22L1930.54 573.941L1906.07 694.762Z" fill="#F99746"/>
<path d="M1968.7 689.64H1939.61V726.061H1968.7V689.64Z" fill="#F99746"/>
<path d="M1936.57 643.525L1928.48 643.524C1926.49 643.524 1925.28 641.908 1925.8 639.915L1927.87 631.832C1928.38 629.839 1930.41 628.223 1932.41 628.223H1940.49C1942.49 628.223 1943.69 629.839 1943.18 631.832L1941.11 639.915C1940.6 641.909 1938.56 643.525 1936.57 643.525Z" fill="#D6600F"/>
<path d="M1956.03 643.525H1947.94C1945.95 643.525 1944.74 641.909 1945.25 639.916L1947.33 631.832C1947.84 629.839 1949.87 628.223 1951.87 628.223L1959.95 628.224C1961.95 628.224 1963.15 629.84 1962.64 631.833L1960.57 639.916C1960.06 641.909 1958.02 643.525 1956.03 643.525Z" fill="#D6600F"/>
<path d="M1975.49 643.526H1967.4C1965.41 643.526 1964.2 641.91 1964.71 639.916L1966.79 631.833C1967.3 629.84 1969.33 628.224 1971.33 628.224H1979.41C1981.41 628.224 1982.61 629.84 1982.1 631.834L1980.03 639.917C1979.52 641.91 1977.48 643.526 1975.49 643.526Z" fill="#D6600F"/>
<path d="M1931.82 662.016L1923.74 662.015C1921.74 662.015 1920.54 660.399 1921.05 658.406L1923.12 650.323C1923.63 648.329 1925.67 646.714 1927.66 646.714H1935.75C1937.74 646.714 1938.95 648.33 1938.44 650.323L1936.36 658.407C1935.85 660.399 1933.82 662.016 1931.82 662.016Z" fill="#D6600F"/>
<path d="M1951.29 662.016H1943.2C1941.2 662.016 1940 660.4 1940.51 658.407L1942.58 650.324C1943.09 648.33 1945.13 646.714 1947.12 646.714L1955.21 646.715C1957.2 646.715 1958.41 648.331 1957.9 650.324L1955.82 658.407C1955.31 660.4 1953.28 662.016 1951.29 662.016Z" fill="#D6600F"/>
<path d="M1970.74 662.017H1962.66C1960.66 662.016 1959.46 660.401 1959.97 658.407L1962.04 650.324C1962.55 648.331 1964.59 646.715 1966.58 646.715H1974.67C1976.66 646.715 1977.87 648.331 1977.36 650.325L1975.28 658.408C1974.77 660.4 1972.74 662.017 1970.74 662.017Z" fill="#D6600F"/>
<path d="M1927.08 680.506L1918.99 680.505C1917 680.505 1915.8 678.889 1916.31 676.896L1918.38 668.813C1918.89 666.82 1920.92 665.204 1922.92 665.204H1931.01C1933 665.204 1934.2 666.82 1933.69 668.813L1931.62 676.897C1931.11 678.89 1929.08 680.506 1927.08 680.506Z" fill="#D6600F"/>
<path d="M1946.54 680.506H1938.45C1936.46 680.506 1935.26 678.89 1935.77 676.897L1937.84 668.814C1938.35 666.82 1940.38 665.204 1942.38 665.204L1950.47 665.205C1952.46 665.205 1953.66 666.821 1953.15 668.814L1951.08 676.897C1950.57 678.891 1948.54 680.506 1946.54 680.506Z" fill="#D6600F"/>
<path d="M1966 680.507H1957.91C1955.92 680.507 1954.71 678.891 1955.23 676.897L1957.3 668.814C1957.81 666.821 1959.84 665.205 1961.84 665.205H1969.93C1971.92 665.205 1973.12 666.821 1972.61 668.815L1970.54 676.898C1970.03 678.891 1967.99 680.507 1966 680.507Z" fill="#D6600F"/>
<path d="M1977.9 619.089H1936.45C1933.61 619.089 1931.9 616.789 1932.64 613.953L1939.37 588.124C1940.11 585.288 1943.02 582.988 1945.86 582.988H1987.31C1990.15 582.988 1991.86 585.287 1991.12 588.124L1984.39 613.953C1983.65 616.79 1980.74 619.089 1977.9 619.089Z" fill="#D6600F"/>
<path d="M1769.98 806.898L1804.51 831.758H2550.64V806.898H1769.98Z" fill="#ED7D2B"/>
<path d="M2702.26 726.061H1842.6V806.899H2702.26V726.061Z" fill="#D6600F"/>
<path d="M2587.29 726.061H1719.47V806.899H2587.29V726.061Z" fill="#F99746"/>
<path d="M1990.65 1254.27C1988.7 1253.46 1987.76 1251.23 1988.56 1249.27L2004.66 1210C2005.93 1206.89 2004.44 1203.33 2001.34 1202.06L1914.9 1166.63C1907.89 1163.75 1904.52 1155.71 1907.4 1148.7L1919.52 1119.12C1922.39 1112.11 1930.43 1108.75 1937.45 1111.62L1973.33 1126.33C1975.28 1127.13 1976.22 1129.37 1975.42 1131.32C1974.62 1133.28 1972.38 1134.22 1970.42 1133.42L1934.54 1118.71C1931.44 1117.44 1927.88 1118.93 1926.61 1122.03L1914.48 1151.61C1913.21 1154.71 1914.7 1158.27 1917.8 1159.54L2004.24 1194.97C2011.25 1197.85 2014.62 1205.89 2011.75 1212.9L1995.65 1252.17C1994.85 1254.13 1992.61 1255.07 1990.65 1254.27Z" fill="#AED3FF"/>
<path d="M1988.85 1269.02L1980.06 1265.41C1976.77 1264.06 1975.18 1260.27 1976.53 1256.98L1994.85 1212.3C1996.2 1209.01 1999.99 1207.42 2003.28 1208.77L2012.07 1212.37C2015.36 1213.72 2016.95 1217.52 2015.6 1220.8L1997.29 1265.49C1995.94 1268.78 1992.14 1270.36 1988.85 1269.02Z" fill="#AED3FF"/>
<path d="M2121.81 1175.1L2110.42 1202.9C2107.45 1210.13 2099.18 1213.59 2091.94 1210.62L1948.1 1151.66C1940.87 1148.7 1937.4 1140.43 1940.37 1133.19L1951.76 1105.4C1954.73 1098.16 1963 1094.71 1970.23 1097.67L2114.07 1156.63C2121.31 1159.6 2124.78 1167.87 2121.81 1175.1Z" fill="#AED3FF"/>
<path d="M2121.81 1175.1L2117.89 1184.67C2114.92 1191.91 2106.65 1195.36 2099.41 1192.4L1955.57 1133.44C1948.34 1130.47 1944.87 1122.21 1947.84 1114.97L1951.76 1105.4C1954.73 1098.16 1963 1094.71 1970.23 1097.67L2114.07 1156.63C2121.31 1159.6 2124.78 1167.87 2121.81 1175.1Z" fill="#D2E4FF"/>
<path d="M1832.62 1145.6C1831.11 1145.6 1829.67 1144.75 1828.98 1143.3C1828.03 1141.29 1828.88 1138.89 1830.89 1137.94C1873.75 1117.65 1925.53 1093.35 1928.83 1092.86C1931.03 1092.54 1933.07 1094.05 1933.39 1096.25C1933.71 1098.35 1932.33 1100.32 1930.28 1100.77C1925.57 1102.27 1870.43 1128.12 1834.33 1145.21C1833.78 1145.47 1833.19 1145.6 1832.62 1145.6ZM1930.23 1100.78C1930.15 1100.79 1930.08 1100.8 1930.01 1100.82C1930.06 1100.81 1930.14 1100.8 1930.23 1100.78Z" fill="#233862"/>
<path d="M2142.31 1145.21C2106.21 1128.12 2051.07 1102.27 2046.36 1100.77C2044.31 1100.32 2042.93 1098.35 2043.25 1096.25C2043.57 1094.05 2045.61 1092.54 2047.81 1092.86C2051.11 1093.35 2102.89 1117.64 2145.75 1137.94C2147.76 1138.89 2148.61 1141.29 2147.66 1143.3C2146.98 1144.75 2145.53 1145.6 2144.03 1145.6C2143.45 1145.6 2142.86 1145.47 2142.31 1145.21ZM2046.64 1100.82C2046.56 1100.8 2046.49 1100.79 2046.42 1100.78C2046.51 1100.8 2046.58 1100.81 2046.64 1100.82Z" fill="#233862"/>
<path d="M1869.91 1283.44C1869.89 1283.45 1869.86 1283.45 1869.84 1283.46C1869.38 1283.56 1868.93 1283.61 1868.46 1283.61C1867.97 1283.61 1867.49 1283.55 1867.02 1283.44C1864.62 1282.89 1862.63 1281 1862.08 1278.44L1860.42 1270.7L1853.74 1239.61L1851.01 1226.88L1844.35 1195.79L1841.61 1183.05L1834.63 1150.53L1832.96 1142.75C1833.27 1142.14 1833.67 1141.58 1834.15 1141.1C1835.31 1139.95 1836.9 1139.23 1838.64 1139.23H1845.58L1848.32 1151.97L1854.99 1183.05L1857.73 1195.79L1864.39 1226.88L1867.13 1239.61L1873.79 1270.7L1874.87 1275.7C1875.61 1279.2 1873.4 1282.65 1869.91 1283.44Z" fill="#233862"/>
<path d="M2148.05 1142.74V1142.75L2146.38 1150.54L2139.4 1183.05L2136.67 1195.79L2130 1226.88L2127.27 1239.61L2120.59 1270.7L2118.94 1278.44C2118.39 1281 2116.41 1282.88 2114.01 1283.44C2113.54 1283.55 2113.05 1283.61 2112.55 1283.61C2112.1 1283.61 2111.64 1283.56 2111.17 1283.46C2111.15 1283.45 2111.12 1283.45 2111.1 1283.44C2107.62 1282.65 2105.41 1279.2 2106.16 1275.69L2107.23 1270.7L2113.9 1239.61L2116.63 1226.88L2123.3 1195.79L2126.03 1183.05L2132.71 1151.97L2135.44 1139.23H2142.37C2144.85 1139.23 2147 1140.66 2148.05 1142.74Z" fill="#233862"/>
<path d="M2161.7 1145.59C2161.7 1147.35 2160.93 1148.94 2159.68 1150.1C2159.51 1150.26 2159.34 1150.4 2159.15 1150.54C2157.97 1151.43 2156.46 1151.97 2154.83 1151.97H1827.74C1826.1 1151.97 1824.6 1151.43 1823.42 1150.53C1821.87 1149.36 1820.89 1147.58 1820.89 1145.59C1820.89 1144.57 1821.15 1143.6 1821.62 1142.75C1821.95 1142.13 1822.38 1141.58 1822.9 1141.1C1824.15 1139.94 1825.86 1139.23 1827.74 1139.23H2154.83C2157.51 1139.23 2159.83 1140.66 2160.95 1142.74V1142.75C2161.44 1143.6 2161.7 1144.57 2161.7 1145.59Z" fill="#233862"/>
<path d="M2139.4 1183.05L2136.67 1195.79H1844.35L1841.61 1183.05H2139.4Z" fill="#233862"/>
<path d="M2130 1226.88L2127.27 1239.61H1853.74L1851.01 1226.88H2130Z" fill="#233862"/>
<path d="M2120.59 1270.7L2114.01 1283.44H1867.02C1864.62 1282.89 1862.63 1281 1862.08 1278.44L1860.42 1270.7H2120.59Z" fill="#233862"/>
<path d="M1915.46 1283.44C1915.36 1283.47 1915.26 1283.49 1915.15 1283.51C1914.78 1283.57 1914.41 1283.61 1914.05 1283.61C1913.55 1283.61 1913.07 1283.55 1912.6 1283.44C1910.09 1282.87 1908.06 1280.85 1907.61 1278.18L1906.33 1270.7L1900.99 1239.61L1898.8 1226.88L1893.45 1195.79L1891.26 1183.05L1885.92 1151.97L1883.72 1139.23H1897L1899.19 1151.97L1904.53 1183.05L1906.72 1195.79L1912.06 1226.88L1914.25 1239.61L1919.59 1270.7L1920.49 1275.96C1921.08 1279.4 1918.85 1282.69 1915.46 1283.44Z" fill="#233862"/>
<path d="M1958.09 1283.44C1957.85 1283.5 1957.61 1283.54 1957.36 1283.57C1957.12 1283.59 1956.88 1283.61 1956.65 1283.61C1956.15 1283.61 1955.67 1283.55 1955.2 1283.44C1952.55 1282.83 1950.47 1280.6 1950.16 1277.76L1949.41 1270.7L1946.11 1239.61L1944.76 1226.88L1941.45 1195.79L1940.1 1183.05L1936.81 1151.97L1935.45 1139.23H1948.6L1949.95 1151.97L1953.26 1183.05L1954.6 1195.79L1957.9 1226.88L1959.26 1239.61L1962.55 1270.7L1963.16 1276.38C1963.51 1279.72 1961.29 1282.73 1958.09 1283.44Z" fill="#233862"/>
<path d="M2104.83 1139.23L2102.64 1151.97L2097.3 1183.05L2095.11 1195.79L2089.77 1226.88L2087.58 1239.61L2082.24 1270.7L2080.96 1278.18C2080.5 1280.85 2078.47 1282.87 2075.97 1283.44C2075.5 1283.55 2075.01 1283.61 2074.52 1283.61C2074.15 1283.61 2073.78 1283.57 2073.41 1283.51C2073.3 1283.49 2073.19 1283.47 2073.09 1283.44C2069.71 1282.69 2067.48 1279.4 2068.08 1275.96L2068.98 1270.7L2074.32 1239.61L2076.51 1226.88L2081.85 1195.79L2084.04 1183.05L2089.38 1151.97L2091.57 1139.23H2104.83Z" fill="#233862"/>
<path d="M2051.61 1139.23L2050.25 1151.97L2046.95 1183.05L2045.6 1195.79L2042.3 1226.88L2040.94 1239.61L2037.65 1270.7L2036.89 1277.76C2036.59 1280.6 2034.51 1282.83 2031.86 1283.44C2031.39 1283.55 2030.91 1283.61 2030.41 1283.61C2030.18 1283.61 2029.94 1283.59 2029.7 1283.57C2029.45 1283.54 2029.2 1283.5 2028.96 1283.44C2025.76 1282.73 2023.55 1279.72 2023.89 1276.38L2024.5 1270.7L2027.79 1239.61L2029.15 1226.88L2032.45 1195.79L2033.81 1183.05L2037.1 1151.97L2038.46 1139.23H2051.61Z" fill="#233862"/>
<path d="M2000.34 1139.23V1277.06C2000.34 1280.18 1998.16 1282.78 1995.25 1283.44C1994.78 1283.55 1994.3 1283.6 1993.81 1283.6C1993.32 1283.6 1992.83 1283.55 1992.37 1283.44C1989.46 1282.78 1987.27 1280.18 1987.27 1277.06V1139.23H2000.34Z" fill="#233862"/>
<path d="M317.394 1154.62C315.987 1154.62 314.637 1153.83 313.995 1152.47C313.107 1150.59 313.907 1148.35 315.783 1147.46C355.84 1128.49 404.236 1105.79 407.318 1105.33C409.375 1105.03 411.282 1106.44 411.586 1108.5C411.877 1110.46 410.59 1112.3 408.677 1112.72C404.273 1114.12 352.735 1138.28 319 1154.26C318.48 1154.5 317.933 1154.62 317.394 1154.62ZM408.622 1112.73C408.554 1112.74 408.486 1112.76 408.417 1112.77C408.469 1112.76 408.539 1112.75 408.622 1112.73Z" fill="#F99746"/>
<path d="M606.839 1154.26C573.105 1138.28 521.567 1114.12 517.162 1112.72C515.249 1112.3 513.962 1110.46 514.253 1108.5C514.556 1106.44 516.464 1105.03 518.521 1105.33C521.603 1105.79 569.999 1128.49 610.056 1147.46C611.932 1148.35 612.733 1150.59 611.845 1152.47C611.203 1153.83 609.853 1154.62 608.445 1154.62C607.906 1154.62 607.358 1154.5 606.839 1154.26ZM517.421 1112.77C517.352 1112.76 517.283 1112.75 517.216 1112.73C517.299 1112.75 517.369 1112.76 517.421 1112.77Z" fill="#F99746"/>
<path d="M352.251 1283.45C352.232 1283.46 352.204 1283.46 352.185 1283.47C351.753 1283.56 351.33 1283.61 350.898 1283.61C350.438 1283.61 349.986 1283.55 349.545 1283.45C347.309 1282.94 345.448 1281.17 344.931 1278.78L343.381 1271.54L337.142 1242.49L334.586 1230.58L328.357 1201.53L325.801 1189.63L319.28 1159.23L317.72 1151.96C318.002 1151.38 318.378 1150.87 318.829 1150.42C319.91 1149.34 321.394 1148.67 323.029 1148.67H329.512L332.068 1160.57L338.307 1189.63L340.863 1201.53L347.092 1230.59L349.648 1242.49L355.878 1271.54L356.883 1276.21C357.579 1279.49 355.511 1282.71 352.251 1283.45Z" fill="#F99746"/>
<path d="M612.206 1151.95V1151.96L610.646 1159.24L604.125 1189.63L601.569 1201.53L595.34 1230.58L592.784 1242.49L586.545 1271.54L584.995 1278.78C584.488 1281.17 582.637 1282.93 580.391 1283.45C579.95 1283.55 579.498 1283.61 579.029 1283.61C578.606 1283.61 578.174 1283.56 577.741 1283.46C577.722 1283.45 577.694 1283.46 577.676 1283.45C574.416 1282.71 572.358 1279.49 573.053 1276.21L574.058 1271.54L580.288 1242.49L582.844 1230.58L589.073 1201.53L591.629 1189.62L597.868 1160.57L600.424 1148.67H606.898C609.218 1148.67 611.229 1150 612.206 1151.95Z" fill="#F99746"/>
<path d="M624.963 1154.61C624.963 1156.26 624.245 1157.74 623.081 1158.83C622.919 1158.98 622.757 1159.11 622.585 1159.24C621.482 1160.08 620.065 1160.57 618.547 1160.57H312.838C311.31 1160.57 309.903 1160.08 308.8 1159.23C307.353 1158.14 306.432 1156.48 306.432 1154.61C306.432 1153.66 306.675 1152.76 307.12 1151.96C307.423 1151.38 307.828 1150.87 308.314 1150.42C309.478 1149.34 311.077 1148.67 312.837 1148.67H618.547C621.047 1148.67 623.212 1150 624.265 1151.95V1151.96C624.72 1152.76 624.963 1153.66 624.963 1154.61Z" fill="#F99746"/>
<path d="M604.126 1189.63L601.57 1201.53H328.357L325.801 1189.63H604.126Z" fill="#F99746"/>
<path d="M595.341 1230.58L592.784 1242.49H337.142L334.586 1230.58H595.341Z" fill="#F99746"/>
<path d="M586.545 1271.54L580.391 1283.45H349.545C347.309 1282.94 345.448 1281.17 344.931 1278.78L343.381 1271.54H586.545Z" fill="#F99746"/>
<path d="M394.825 1283.45C394.731 1283.47 394.637 1283.49 394.533 1283.51C394.185 1283.57 393.838 1283.61 393.5 1283.61C393.04 1283.61 392.588 1283.55 392.147 1283.45C389.807 1282.92 387.909 1281.03 387.486 1278.53L386.283 1271.54L381.294 1242.49L379.246 1230.58L374.247 1201.53L372.207 1189.63L367.208 1160.57L365.16 1148.67H377.563L379.611 1160.57L384.6 1189.63L386.648 1201.53L391.637 1230.58L393.685 1242.49L398.675 1271.54L399.52 1276.46C400.078 1279.68 397.991 1282.75 394.825 1283.45Z" fill="#F99746"/>
<path d="M434.665 1283.45C434.439 1283.5 434.214 1283.54 433.979 1283.57C433.753 1283.59 433.537 1283.61 433.321 1283.61C432.851 1283.61 432.4 1283.55 431.959 1283.45C429.487 1282.88 427.542 1280.8 427.251 1278.14L426.546 1271.54L423.464 1242.49L422.205 1230.58L419.114 1201.53L417.855 1189.62L414.773 1160.57L413.505 1148.67H425.795L427.054 1160.57L430.145 1189.62L431.404 1201.53L434.486 1230.58L435.755 1242.49L438.837 1271.54L439.4 1276.85C439.73 1279.97 437.653 1282.79 434.665 1283.45Z" fill="#F99746"/>
<path d="M571.812 1148.67L569.764 1160.57L564.774 1189.63L562.726 1201.53L557.737 1230.58L555.689 1242.49L550.7 1271.54L549.497 1278.53C549.074 1281.03 547.176 1282.92 544.836 1283.45C544.394 1283.55 543.943 1283.61 543.483 1283.61C543.135 1283.61 542.788 1283.57 542.44 1283.51C542.336 1283.49 542.243 1283.47 542.148 1283.45C538.981 1282.75 536.905 1279.68 537.46 1276.46L538.306 1271.54L543.295 1242.49L545.343 1230.58L550.332 1201.53L552.38 1189.63L557.37 1160.57L559.418 1148.67H571.812Z" fill="#F99746"/>
<path d="M522.069 1148.67L520.8 1160.57L517.718 1189.63L516.449 1201.53L513.367 1230.58L512.099 1242.49L509.017 1271.54L508.312 1278.14C508.03 1280.8 506.085 1282.88 503.614 1283.45C503.173 1283.55 502.721 1283.61 502.252 1283.61C502.036 1283.61 501.819 1283.59 501.594 1283.57C501.359 1283.54 501.124 1283.5 500.898 1283.45C497.91 1282.79 495.843 1279.97 496.163 1276.85L496.727 1271.54L499.809 1242.49L501.078 1230.58L504.16 1201.53L505.429 1189.63L508.511 1160.57L509.78 1148.67H522.069Z" fill="#F99746"/>
<path d="M474.157 1148.67V1277.49C474.157 1280.4 472.118 1282.84 469.393 1283.45C468.961 1283.55 468.509 1283.6 468.049 1283.6C467.589 1283.6 467.137 1283.55 466.705 1283.45C463.98 1282.84 461.941 1280.4 461.941 1277.49V1148.67H474.157Z" fill="#F99746"/>
<path d="M1853.2 676.52L1829.86 668.622C1826.53 667.494 1825.47 664.124 1827.49 661.095L1851.59 625.091C1853.61 622.062 1857.96 620.521 1861.29 621.649L1884.63 629.548C1887.96 630.676 1889.02 634.046 1886.99 637.075L1862.9 673.079C1860.87 676.107 1856.53 677.648 1853.2 676.52Z" fill="#FFA412"/>
<path d="M1837.13 671.083L1829.86 668.621L1861.29 621.648L1868.57 624.11L1837.13 671.083Z" fill="#2A4E96"/>
<path d="M1579.7 724.532C1585.22 728.205 1597.48 736.624 1595.96 737.893C1594.87 738.807 1592.5 739.022 1589.75 738.505C1595.01 744.432 1599.42 750.808 1602.65 768.669C1603.3 772.246 1602.57 775.996 1600.43 778.93C1598.44 781.644 1595.39 783.553 1591.11 780.329C1582.55 773.882 1586.67 775.121 1574.43 766.295C1562.19 757.47 1554.65 743.788 1556.71 733.079L1554.17 720.758L1572.66 711.967C1572.66 711.968 1575.99 718.262 1579.7 724.532Z" fill="#ED7D2B"/>
<path d="M1567.85 725.953C1579.19 722.454 1578.82 716.024 1578.82 716.024C1578.82 716.024 1555.8 595.875 1555.11 585.17C1554.43 574.464 1607.81 460.046 1607.81 460.046C1607.81 460.046 1631.01 415.132 1613.33 392.523C1597.96 372.877 1577.23 370.881 1559.55 374.309C1538.47 378.393 1522.15 395.14 1518.27 416.256C1509.56 463.653 1492.89 558.257 1494.57 578.371C1498.31 623.138 1550.88 726.992 1550.88 726.992C1550.88 726.992 1558.94 728.701 1567.85 725.953Z" fill="#ED7D2B"/>
<path d="M1684.44 1283.61H1584.69C1583.74 1283.42 1583.01 1283.21 1582.57 1282.99C1575.91 1279.66 1578 1254.16 1578.8 1246.28C1578.95 1244.82 1579.06 1243.97 1579.06 1243.97C1579.06 1243.97 1614.14 1215.91 1618.97 1237.4C1619.12 1238.07 1619.29 1238.73 1619.48 1239.37V1239.38C1625.57 1259.48 1652.79 1268.61 1668.51 1271.15C1680.52 1273.11 1683.64 1280.11 1684.44 1283.61Z" fill="#233862"/>
<path d="M1664.34 708.383C1664.34 708.383 1659.01 774.846 1652.74 854.741C1646.28 937.28 1638.81 1034.17 1635.15 1086.93C1634 1103.53 1633.23 1115.78 1632.99 1121.82C1631.24 1165.67 1624.22 1235.82 1624.22 1235.82C1624.22 1235.82 1607.56 1252.48 1574.24 1245.46C1574.24 1245.46 1544.54 1145.33 1536.05 1039.37C1535.92 1037.65 1535.79 1035.9 1535.66 1034.15C1533.04 998.295 1529.93 949.254 1526.94 899.761C1520.96 800.393 1515.49 699.184 1515.49 699.184L1664.34 708.383Z" fill="#233862"/>
<path d="M1819.74 1283.61H1719.99C1719.03 1283.42 1718.31 1283.21 1717.87 1282.99C1711.21 1279.66 1713.3 1254.16 1714.1 1246.28C1714.25 1244.82 1714.36 1243.97 1714.36 1243.97C1714.36 1243.97 1749.44 1215.91 1754.26 1237.4C1754.42 1238.07 1754.59 1238.73 1754.78 1239.37V1239.38C1760.87 1259.48 1788.09 1268.61 1803.81 1271.15C1815.82 1273.11 1818.94 1280.11 1819.74 1283.61Z" fill="#2C3A64"/>
<path d="M1684.12 705.791C1681.55 713.94 1754.26 1237.4 1754.26 1237.4C1754.26 1237.4 1738.45 1255.86 1709.63 1245.94C1709.63 1245.94 1611.46 1038.78 1623.23 992.877C1629.09 970.023 1497.67 784.058 1518.78 691.492C1539.89 598.928 1684.12 705.791 1684.12 705.791Z" fill="#2B478B"/>
<path d="M1548.49 375.342C1548.49 375.342 1582.21 405.744 1617.14 386.285C1617.14 386.285 1622.44 365.989 1620.61 351.817C1620.38 350.072 1620.17 348.381 1619.98 346.772C1617.98 330.803 1617.29 321.784 1617.29 321.784C1617.29 321.784 1617.28 321.782 1617.25 321.781C1615.48 321.312 1557.64 306.361 1557.94 308.221C1564.81 351.209 1548.49 375.342 1548.49 375.342Z" fill="#FFB27D"/>
<path d="M1564.85 317.748C1571.48 326.808 1592.22 343.462 1619.98 346.772C1617.98 330.803 1617.29 321.784 1617.29 321.784C1617.29 321.784 1617.28 321.782 1617.25 321.781C1615.68 321.583 1562.88 315.08 1564.85 317.748Z" fill="#ED975D"/>
<path d="M1628.53 318.552C1628.53 318.552 1568.95 341.49 1555.24 304.168C1541.52 266.846 1524.6 244.671 1562.06 228.448C1599.52 212.225 1612.18 223.735 1619.79 235.079C1627.39 246.423 1643.67 311.623 1628.53 318.552Z" fill="#FFB27D"/>
<path d="M1521.96 234.273C1521.34 233.757 1520.05 233.467 1517.35 233.751C1517.35 233.751 1519.28 232.066 1522.13 231.535C1522.1 227.713 1523.02 220.788 1529.19 218.154C1529.19 218.154 1526.03 220.547 1526.22 224.588C1532.43 215.755 1547.49 207.64 1592.19 204.055C1651.11 199.33 1637.9 239.653 1631.08 245.299C1624.26 250.946 1603.35 241.808 1589.49 245.169C1575.64 248.53 1576.22 269.236 1571.9 272.782C1567.59 276.327 1568.67 271.107 1561.76 269.227C1554.85 267.347 1555.95 278.119 1558.92 284.761C1561.89 291.403 1554.51 301.975 1554.51 301.975C1554.51 301.975 1554.51 301.975 1544.02 293.775C1533.54 285.575 1518.57 246.125 1521.25 236.777C1521.48 235.949 1521.71 235.114 1521.96 234.273Z" fill="#2C3A64"/>
<path d="M1698.7 736.502C1697.6 737.478 1696.3 738.07 1694.79 738.101C1680.7 738.262 1639.81 747.079 1604.98 744.374C1575.61 742.272 1549.46 734.24 1521.31 722.428C1517.57 720.859 1508.95 716.536 1509.04 712.405C1509.06 707.871 1509.33 701.286 1509.7 693.011C1510.97 664.218 1513.19 614.684 1508.44 557.732C1507.58 547.115 1507.01 536.599 1506.71 526.224C1505.95 499.18 1507.12 473.242 1510.28 449.908C1516.13 406.548 1536.14 373.315 1555.8 357.864C1555.8 357.864 1567.36 362.333 1582.38 369.29C1596.25 375.714 1607.38 372.216 1620.27 369.28L1636.11 384.32C1652.25 398.586 1670.02 418.08 1678.28 448.13C1678.89 450.352 1679.49 452.714 1680.05 455.238C1682.88 467.553 1685.33 483.297 1687.44 501.011C1689.87 521.449 1691.84 544.532 1693.44 568.037C1693.54 569.434 1693.63 570.822 1693.72 572.219C1694.43 582.926 1695.09 593.663 1695.65 604.26C1695.85 608.08 1696.05 611.881 1696.22 615.66C1696.5 621.381 1696.72 627.041 1696.91 632.61L1696.92 633.364C1697.16 635.426 1697.22 637.687 1697.27 639.748C1697.43 643.951 1697.58 648.083 1697.72 652.134C1699.37 699.676 1699.55 735.788 1698.7 736.502Z" fill="#F99746"/>
<path d="M1697.72 652.133C1626.37 634.529 1592.38 515.306 1592.38 515.306L1695.65 604.259C1695.85 608.079 1696.05 611.88 1696.22 615.659C1696.5 621.38 1696.72 627.04 1696.91 632.609L1696.92 633.363C1697.16 635.425 1697.22 637.686 1697.27 639.747C1697.43 643.95 1697.58 648.082 1697.72 652.133Z" fill="#ED7D2B"/>
<path d="M1824.43 641.844C1830.89 640.374 1845.44 637.28 1845.32 639.254C1845.23 640.674 1843.75 642.542 1841.48 644.183C1849.4 644.45 1857.07 645.639 1872.24 655.599C1875.28 657.594 1877.5 660.703 1878.15 664.279C1878.75 667.588 1878.03 671.117 1872.75 671.999C1862.18 673.761 1865.91 671.634 1851.08 674.43C1836.26 677.226 1821.14 673.27 1814.8 664.401L1804.11 657.759L1810.47 638.3C1810.47 638.299 1817.33 640.215 1824.43 641.844Z" fill="#FFB27D"/>
<path d="M1817.3 651.419C1822.57 640.786 1817.65 636.627 1817.65 636.627C1817.65 636.627 1714.68 570.578 1706.45 563.702C1698.21 556.826 1652.01 439.324 1652.01 439.324C1652.01 439.324 1635.42 391.572 1606.85 388.826C1582.02 386.441 1566.3 400.095 1556.61 415.279C1545.05 433.374 1545.95 456.745 1558.59 474.098C1586.97 513.049 1644.08 590.292 1659.82 602.924C1694.86 631.039 1806.37 664.437 1806.37 664.437C1806.37 664.437 1813.15 659.77 1817.3 651.419Z" fill="#F99746"/>
<path d="M1650.96 0H1639.25V58.945H1650.96V0Z" fill="#739AF0"/>
<path d="M2090.99 0H2079.27V58.945H2090.99V0Z" fill="#739AF0"/>
<path d="M2123.91 87.1811H1606.33C1599.58 87.1811 1594.06 81.6591 1594.06 74.9101V64.1741C1594.06 57.4241 1599.58 51.9031 1606.33 51.9031H2123.91C2130.66 51.9031 2136.18 57.4251 2136.18 64.1741V74.9101C2136.18 81.6591 2130.66 87.1811 2123.91 87.1811Z" fill="#D2E4FF"/>
<path d="M553.725 0H542.011V58.945H553.725V0Z" fill="#739AF0"/>
<path d="M993.747 0H982.033V58.945H993.747V0Z" fill="#739AF0"/>
<path d="M1026.67 87.1811H509.092C502.342 87.1811 496.821 81.6591 496.821 74.9101V64.1741C496.821 57.4241 502.343 51.9031 509.092 51.9031H1026.67C1033.42 51.9031 1038.94 57.4251 1038.94 64.1741V74.9101C1038.94 81.6591 1033.42 87.1811 1026.67 87.1811Z" fill="#D2E4FF"/>
</svg>
