<svg width="2891" height="1410" viewBox="0 0 2891 1410" fill="none" xmlns="http://www.w3.org/2000/svg">
<path d="M202.325 1403.72C202.454 1403.81 2723.83 1403.41 2723.83 1403.41C2806.84 1226.34 2806.7 1139.84 2816.15 1038.35C2868.3 477.4 2445.8 391.16 2322.02 367.769C1943.04 296.147 2115.53 -58.222 1127.94 8.264C1037.43 14.357 824.015 63.554 750.465 95.426C698.878 117.763 504.52 217.712 447.495 386.785C429.484 440.147 425.163 500.391 443.322 567.258C507.594 803.871 340.032 790.271 217.59 903.032C54.169 1053.52 71.252 1299.63 202.325 1403.72Z" fill="#EBF3FA"/>
<path d="M1704.25 1403.56H1704.6C1706.63 1403.56 1708.27 1401.89 1708.22 1399.85L1702.72 1161.45L1686.52 1159.55L1700.34 1399.87C1700.46 1401.94 1702.17 1403.56 1704.25 1403.56Z" fill="#B0D4FF"/>
<path d="M1798.67 1403.56H1799.01C1801.05 1403.56 1802.69 1401.89 1802.64 1399.85L1797.14 1161.45L1780.94 1159.55L1794.75 1399.87C1794.87 1401.94 1796.59 1403.56 1798.67 1403.56Z" fill="#95C0F4"/>
<path d="M1538.13 1403.56H1537.78C1535.74 1403.56 1534.11 1401.89 1534.15 1399.85L1539.65 1161.45L1555.86 1159.55L1542.04 1399.87C1541.92 1401.94 1540.2 1403.56 1538.13 1403.56Z" fill="#B0D4FF"/>
<path d="M1809.4 1146.66V983.294C1809.4 954.548 1786.1 931.245 1757.35 931.245H1639.65C1610.91 931.245 1587.6 954.548 1587.6 983.294V1152.9L1809.4 1146.66Z" fill="#B0D4FF"/>
<path d="M1566.52 1172.45H1793.78C1802.41 1172.45 1809.4 1165.45 1809.4 1156.82V1146.66H1566.52V1172.45Z" fill="#95C0F4"/>
<path d="M1539.28 1172.45H1711.21C1717.6 1172.45 1722.77 1167.28 1722.77 1160.9V1158.22C1722.77 1151.83 1717.6 1146.66 1711.21 1146.66H1539.28C1532.9 1146.66 1527.73 1151.83 1527.73 1158.22V1160.9C1527.73 1167.28 1532.9 1172.45 1539.28 1172.45Z" fill="#CAE5FF"/>
<path d="M1935.46 286.828H1256.93V872.563H1935.46V286.828Z" fill="#95C0F4"/>
<path d="M1922.26 296.586H1269.84V860.883H1922.26V296.586Z" fill="#DFEDFB"/>
<path d="M1497.87 542.107H1354.91V363.587L1379.15 341.734H1497.87V542.107Z" fill="white"/>
<path d="M1354.91 363.587H1378.37L1379.15 341.734L1354.91 363.587Z" fill="#B0D4FF"/>
<path d="M1449.28 359.11H1403.5V361.29H1449.28V359.11Z" fill="#B0D4FF"/>
<path d="M1460.05 365.65H1392.72V367.83H1460.05V365.65Z" fill="#B0D4FF"/>
<path d="M1483.62 407.649H1371.83V410.451H1483.62V407.649Z" fill="#B0D4FF"/>
<path d="M1483.62 416.161H1371.83V418.964H1483.62V416.161Z" fill="#B0D4FF"/>
<path d="M1483.62 424.672H1371.83V427.474H1483.62V424.672Z" fill="#B0D4FF"/>
<path d="M1483.62 433.184H1371.83V435.987H1483.62V433.184Z" fill="#B0D4FF"/>
<path d="M1483.62 524.267H1371.83V527.07H1483.62V524.267Z" fill="#B0D4FF"/>
<path d="M1662.95 789.787H1519.98V611.266L1544.23 589.413H1662.95V789.787Z" fill="white"/>
<path d="M1519.98 611.266H1543.45L1544.23 589.413L1519.98 611.266Z" fill="#B0D4FF"/>
<path d="M1614.35 606.79H1568.58V608.97H1614.35V606.79Z" fill="#B0D4FF"/>
<path d="M1625.13 613.329H1557.8V615.509H1625.13V613.329Z" fill="#B0D4FF"/>
<path d="M1648.7 655.328H1536.91V658.131H1648.7V655.328Z" fill="#B0D4FF"/>
<path d="M1648.7 663.839H1536.91V666.642H1648.7V663.839Z" fill="#B0D4FF"/>
<path d="M1648.7 672.351H1536.91V675.154H1648.7V672.351Z" fill="#B0D4FF"/>
<path d="M1648.7 680.863H1536.91V683.665H1648.7V680.863Z" fill="#B0D4FF"/>
<path d="M1648.7 707.052H1536.91V709.854H1648.7V707.052Z" fill="#B0D4FF"/>
<path d="M1648.7 715.563H1536.91V718.366H1648.7V715.563Z" fill="#B0D4FF"/>
<path d="M1648.7 725.433H1536.91V728.236H1648.7V725.433Z" fill="#B0D4FF"/>
<path d="M1743.62 341.734H1664.68V411.33H1743.62V341.734Z" fill="#B0D4FF"/>
<path d="M1704.15 353.476C1706.06 353.476 1707.61 351.929 1707.61 350.02C1707.61 348.111 1706.06 346.564 1704.15 346.564C1702.24 346.564 1700.7 348.111 1700.7 350.02C1700.7 351.929 1702.24 353.476 1704.15 353.476Z" fill="#FFA412"/>
<path d="M1667.18 508.028L1745.93 502.534L1741.09 433.104L1662.33 438.598L1667.18 508.028Z" fill="white"/>
<path d="M1702.61 451.975C1704.52 451.975 1706.06 450.428 1706.06 448.519C1706.06 446.611 1704.52 445.063 1702.61 445.063C1700.7 445.063 1699.15 446.611 1699.15 448.519C1699.15 450.428 1700.7 451.975 1702.61 451.975Z" fill="#B0D4FF"/>
<path d="M1404.86 764.432L1483.62 758.938L1478.77 689.509L1400.02 695.003L1404.86 764.432Z" fill="white"/>
<path d="M1440.28 708.375C1442.19 708.375 1443.73 706.828 1443.73 704.919C1443.73 703.011 1442.19 701.463 1440.28 701.463C1438.37 701.463 1436.82 703.011 1436.82 704.919C1436.82 706.828 1438.37 708.375 1440.28 708.375Z" fill="#B0D4FF"/>
<path d="M1301.49 810.068L1380.43 809.255L1379.71 739.666L1300.77 740.479L1301.49 810.068Z" fill="white"/>
<path d="M1340.35 756.009C1342.26 756.009 1343.81 754.462 1343.81 752.553C1343.81 750.644 1342.26 749.097 1340.35 749.097C1338.44 749.097 1336.89 750.644 1336.89 752.553C1336.89 754.462 1338.44 756.009 1340.35 756.009Z" fill="#B0D4FF"/>
<path d="M1770.65 543.808L1848.36 557.694L1860.6 489.182L1782.89 475.296L1770.65 543.808Z" fill="#EEF6FF"/>
<path d="M1820.11 494.468C1821.77 494.468 1823.11 493.123 1823.11 491.463C1823.11 489.804 1821.77 488.458 1820.11 488.458C1818.45 488.458 1817.1 489.804 1817.1 491.463C1817.1 493.123 1818.45 494.468 1820.11 494.468Z" fill="#78ACEA"/>
<path d="M1547.11 509.505L1625.6 501.011L1618.11 431.819L1539.62 440.313L1547.11 509.505Z" fill="#EEF6FF"/>
<path d="M1579.89 448.446C1581.55 448.446 1582.9 447.1 1582.9 445.44C1582.9 443.78 1581.55 442.434 1579.89 442.434C1578.23 442.434 1576.89 443.78 1576.89 445.44C1576.89 447.1 1578.23 448.446 1579.89 448.446Z" fill="#78ACEA"/>
<path d="M1350.58 680.811L1427.78 664.351L1413.27 596.286L1336.07 612.746L1350.58 680.811Z" fill="#BAE8E3"/>
<path d="M1376.57 616.765C1378.23 616.765 1379.57 615.42 1379.57 613.76C1379.57 612.101 1378.23 610.755 1376.57 610.755C1374.91 610.755 1373.56 612.101 1373.56 613.76C1373.56 615.42 1374.91 616.765 1376.57 616.765Z" fill="#FFA412"/>
<path d="M1620.19 411.331H1545.06V360.847L1565.86 341.734H1620.19V411.331Z" fill="white"/>
<path d="M1544.65 360.847H1565.18L1565.86 341.734L1544.65 360.847Z" fill="#B0D4FF"/>
<path d="M1585.37 350.642C1586.73 350.642 1587.84 349.536 1587.84 348.172C1587.84 346.808 1586.73 345.702 1585.37 345.702C1584.01 345.702 1582.9 346.808 1582.9 348.172C1582.9 349.536 1584.01 350.642 1585.37 350.642Z" fill="#B0D4FF"/>
<path d="M1839.73 824.585H1764.59V774.101L1785.39 754.988H1839.73V824.585Z" fill="white"/>
<path d="M1764.19 774.101H1784.71L1785.39 754.988L1764.19 774.101Z" fill="#B0D4FF"/>
<path d="M1804.9 763.896C1806.27 763.896 1807.37 762.79 1807.37 761.426C1807.37 760.062 1806.27 758.956 1804.9 758.956C1803.54 758.956 1802.43 760.062 1802.43 761.426C1802.43 762.79 1803.54 763.896 1804.9 763.896Z" fill="#B0D4FF"/>
<path d="M1874 724.398H1798.86V673.915L1819.67 654.801H1874V724.398Z" fill="white"/>
<path d="M1798.46 673.915H1818.99L1819.67 654.801L1798.46 673.915Z" fill="#B0D4FF"/>
<path d="M1839.18 663.71C1840.54 663.71 1841.65 662.604 1841.65 661.24C1841.65 659.876 1840.54 658.77 1839.18 658.77C1837.82 658.77 1836.71 659.876 1836.71 661.24C1836.71 662.604 1837.82 663.71 1839.18 663.71Z" fill="#B0D4FF"/>
<path d="M1774.85 724.398H1699.71V673.915L1720.51 654.801H1774.85V724.398Z" fill="#BAE8E3"/>
<path d="M1699.31 673.915H1719.83L1720.51 654.801L1699.31 673.915Z" fill="#A1D6CE"/>
<path d="M1740.02 663.71C1741.39 663.71 1742.49 662.604 1742.49 661.24C1742.49 659.876 1741.39 658.77 1740.02 658.77C1738.66 658.77 1737.55 659.876 1737.55 661.24C1737.55 662.604 1738.66 663.71 1740.02 663.71Z" fill="#F99746"/>
<path d="M1895.2 393.909H1820.07V343.425L1840.87 324.312H1895.2V393.909Z" fill="#BAE8E3"/>
<path d="M1819.67 343.425H1840.19L1840.87 324.312L1819.67 343.425Z" fill="#A1D6CE"/>
<path d="M1860.38 333.221C1861.75 333.221 1862.85 332.115 1862.85 330.751C1862.85 329.387 1861.75 328.281 1860.38 328.281C1859.02 328.281 1857.91 329.387 1857.91 330.751C1857.91 332.115 1859.02 333.221 1860.38 333.221Z" fill="#F99746"/>
<path d="M1152.19 272.66H1009.27C1002.71 272.66 997.341 267.292 997.341 260.731V122.786C997.341 116.225 1002.71 110.857 1009.27 110.857H1152.19C1158.75 110.857 1164.12 116.225 1164.12 122.786V260.73C1164.12 267.292 1158.75 272.66 1152.19 272.66Z" fill="#C0D8FB"/>
<path d="M1146 265.65H1015.46C1009.47 265.65 1004.56 260.747 1004.56 254.754V128.762C1004.56 122.769 1009.47 117.866 1015.46 117.866H1146C1151.99 117.866 1156.9 122.769 1156.9 128.762V254.754C1156.89 260.747 1151.99 265.65 1146 265.65Z" fill="#DFEBFD"/>
<path d="M1080.73 136.089C1082.64 136.089 1084.19 134.542 1084.19 132.634C1084.19 130.726 1082.64 129.179 1080.73 129.179C1078.82 129.179 1077.28 130.726 1077.28 132.634C1077.28 134.542 1078.82 136.089 1080.73 136.089Z" fill="#B7D3F3"/>
<path d="M1108.17 142.65C1110.08 142.65 1111.63 141.103 1111.63 139.195C1111.63 137.287 1110.08 135.74 1108.17 135.74C1106.26 135.74 1104.72 137.287 1104.72 139.195C1104.72 141.103 1106.26 142.65 1108.17 142.65Z" fill="#B7D3F3"/>
<path d="M1130.91 162.849C1132.82 162.849 1134.36 161.302 1134.36 159.394C1134.36 157.486 1132.82 155.939 1130.91 155.939C1129 155.939 1127.45 157.486 1127.45 159.394C1127.45 161.302 1129 162.849 1130.91 162.849Z" fill="#B7D3F3"/>
<path d="M1140.87 192.769C1142.77 192.769 1144.32 191.222 1144.32 189.314C1144.32 187.406 1142.77 185.859 1140.87 185.859C1138.96 185.859 1137.41 187.406 1137.41 189.314C1137.41 191.222 1138.96 192.769 1140.87 192.769Z" fill="#B7D3F3"/>
<path d="M1132.38 225.839C1134.29 225.839 1135.84 224.292 1135.84 222.384C1135.84 220.476 1134.29 218.929 1132.38 218.929C1130.47 218.929 1128.93 220.476 1128.93 222.384C1128.93 224.292 1130.47 225.839 1132.38 225.839Z" fill="#B7D3F3"/>
<path d="M1110.69 247.59C1112.6 247.59 1114.14 246.043 1114.14 244.135C1114.14 242.227 1112.6 240.68 1110.69 240.68C1108.78 240.68 1107.23 242.227 1107.23 244.135C1107.23 246.043 1108.78 247.59 1110.69 247.59Z" fill="#B7D3F3"/>
<path d="M1080.73 256.358C1082.64 256.358 1084.19 254.811 1084.19 252.903C1084.19 250.995 1082.64 249.448 1080.73 249.448C1078.82 249.448 1077.28 250.995 1077.28 252.903C1077.28 254.811 1078.82 256.358 1080.73 256.358Z" fill="#B7D3F3"/>
<path d="M1053.18 142.65C1055.09 142.65 1056.63 141.103 1056.63 139.195C1056.63 137.287 1055.09 135.74 1053.18 135.74C1051.27 135.74 1049.72 137.287 1049.72 139.195C1049.72 141.103 1051.27 142.65 1053.18 142.65Z" fill="#B7D3F3"/>
<path d="M1030.44 162.849C1032.35 162.849 1033.9 161.302 1033.9 159.394C1033.9 157.486 1032.35 155.939 1030.44 155.939C1028.54 155.939 1026.99 157.486 1026.99 159.394C1026.99 161.302 1028.54 162.849 1030.44 162.849Z" fill="#B7D3F3"/>
<path d="M1020.49 192.769C1022.39 192.769 1023.94 191.222 1023.94 189.314C1023.94 187.406 1022.39 185.859 1020.49 185.859C1018.58 185.859 1017.03 187.406 1017.03 189.314C1017.03 191.222 1018.58 192.769 1020.49 192.769Z" fill="#B7D3F3"/>
<path d="M1028.97 225.839C1030.88 225.839 1032.42 224.292 1032.42 222.384C1032.42 220.476 1030.88 218.929 1028.97 218.929C1027.06 218.929 1025.51 220.476 1025.51 222.384C1025.51 224.292 1027.06 225.839 1028.97 225.839Z" fill="#B7D3F3"/>
<path d="M1050.66 247.59C1052.57 247.59 1054.12 246.043 1054.12 244.135C1054.12 242.227 1052.57 240.68 1050.66 240.68C1048.76 240.68 1047.21 242.227 1047.21 244.135C1047.21 246.043 1048.76 247.59 1050.66 247.59Z" fill="#B7D3F3"/>
<path d="M1083.25 192.769C1085.16 192.769 1086.71 191.222 1086.71 189.314C1086.71 187.406 1085.16 185.859 1083.25 185.859C1081.35 185.859 1079.8 187.406 1079.8 189.314C1079.8 191.222 1081.35 192.769 1083.25 192.769Z" fill="#B7D3F3"/>
<path d="M1083.73 146.154H1082.78V189.313H1083.73V146.154Z" fill="#B7D3F3"/>
<path d="M1106.6 172.4L1104.86 170.174L1081.98 188.14L1083.73 190.365L1106.6 172.4Z" fill="#B7D3F3"/>
<path d="M2032.03 1395.03C2031.35 1404.32 2018.25 1404.42 2003.39 1402.69C1988.53 1400.97 1992.48 1404.73 1971.67 1405.02C1950.87 1405.31 1943.69 1398.43 1942.69 1395.46C1941.79 1392.82 1951.81 1390.6 1962.53 1387.99C1963.88 1387.66 1965.23 1387.32 1966.59 1386.98C1978.68 1383.91 1986.68 1374.86 1997.02 1366.96C2006.82 1359.48 2019.46 1332.39 2019.46 1332.39L2047.88 1331.11C2047.88 1331.11 2035.91 1355.39 2031.41 1365.85C2028.77 1372.01 2029.9 1379.57 2031.05 1385.38C2031.66 1388.54 2032.27 1391.76 2032.03 1395.03Z" fill="#FFB27D"/>
<path d="M2003.39 1402.69C1988.53 1400.97 1992.48 1404.73 1971.67 1405.02C1950.87 1405.31 1943.69 1398.43 1942.69 1395.46C1941.79 1392.82 1951.81 1390.6 1962.53 1387.99L1962.66 1388.18C1962.66 1388.18 1976.06 1395.37 1993.19 1393.65C2007.16 1392.25 2021.41 1386.42 2031.04 1385.38C2031.66 1388.54 2032.27 1391.76 2032.03 1395.03C2031.35 1404.32 2018.25 1404.42 2003.39 1402.69Z" fill="#233862"/>
<path d="M2228.34 1396.96C2227.67 1406.24 2214.57 1406.36 2199.71 1404.65C2184.85 1402.94 2188.8 1406.69 2167.99 1407C2147.19 1407.31 2140.01 1400.44 2139 1397.47C2138.1 1394.84 2148.12 1392.61 2158.84 1389.98C2160.18 1389.66 2161.54 1389.32 2162.89 1388.97C2174.98 1385.89 2182.97 1376.83 2193.31 1368.92C2203.1 1361.43 2193.31 1317.07 2193.31 1317.07L2224.58 1314.02C2224.58 1314.02 2223.08 1351.38 2223.1 1368.36C2223.11 1375.06 2226.19 1381.5 2227.35 1387.31C2227.96 1390.46 2228.58 1393.69 2228.34 1396.96Z" fill="#FFB27D"/>
<path d="M2199.71 1404.64C2184.85 1402.94 2188.8 1406.69 2167.99 1407C2147.19 1407.31 2140.01 1400.44 2139 1397.47C2138.1 1394.83 2148.12 1392.6 2158.84 1389.98L2158.96 1390.18C2158.96 1390.18 2172.37 1397.36 2189.5 1395.62C2203.47 1394.2 2217.71 1388.36 2227.35 1387.3C2227.96 1390.46 2228.58 1393.69 2228.34 1396.96C2227.67 1406.24 2214.57 1406.35 2199.71 1404.64Z" fill="#233862"/>
<path d="M2137.1 630.228C2131.72 608.092 2139.52 597.783 2146.56 592.294C2149.9 584.147 2153.71 578.274 2157.6 576.06C2164.71 572.021 2173.22 571.581 2179.18 571.933C2177.64 570.35 2174.63 569.773 2174.63 569.773C2178.32 569.224 2186.56 572.887 2186.56 572.887C2237.94 553.093 2246.01 628.733 2244.93 646.307C2243.86 663.878 2244 684.575 2270.73 698.42C2321.73 724.838 2253.78 824.393 2253.78 824.393C2255.08 810.193 2189.55 735.251 2155.37 712.808C2147.05 700.556 2144.09 678.914 2143.87 677.21C2145.31 694.37 2148.24 703.996 2150.86 709.416C2135.28 695.077 2132.98 660.642 2137.1 630.228Z" fill="#A9453D"/>
<path d="M2157.39 713.924C2157.22 714.001 2173.9 722.66 2186.44 719.23C2198.24 716.012 2205.95 700.713 2205.79 700.679C2200.79 699.687 2199.35 692.82 2199.46 663.312L2197.2 663.757L2159.22 671.278C2159.22 671.278 2160.08 683.232 2160.11 694.492C2160.13 703.948 2159.56 712.916 2157.39 713.924Z" fill="#FFB27D"/>
<path d="M2159.22 671.279C2159.22 671.279 2160.08 683.233 2160.11 694.493C2181.36 693.894 2192.6 674.505 2197.2 663.758L2159.22 671.279Z" fill="#ED975D"/>
<path d="M2004.68 1347.44C2002.82 1353.28 2007 1359.3 2013.12 1359.58L2027.96 1360.28L2043.66 1360.76C2047.59 1360.88 2051.34 1359.16 2053.82 1356.12C2066.36 1340.75 2104.93 1289.5 2128.33 1215.05C2128.99 1212.97 2129.68 1210.85 2130.42 1208.71C2145.87 1163.65 2177.91 1107.1 2194.79 1055.9C2197.48 1047.75 2199.89 1040.07 2202.05 1032.81C2202.75 1030.48 2203.42 1028.2 2204.07 1025.95C2216.51 982.718 2220.11 954.336 2223.43 924.011L2101.52 924.987C2101.52 924.988 2075.86 1124.46 2004.68 1347.44Z" fill="#2A4E96"/>
<path d="M2118.59 854.94C2118.9 912.95 2110.08 937.838 2110.08 937.838C2110.08 937.838 2162.27 964.357 2224.31 944.835C2225.04 944.606 2275.67 933.05 2275.67 933.05C2274.63 930.701 2265.4 891.607 2264.39 889.453C2251.29 861.327 2241.35 848.994 2239.8 840.347C2236.91 824.204 2236.85 807.5 2238.29 791.746C2242.07 750.043 2253.33 715.423 2253.33 715.423C2236.43 711.577 2220.6 704.82 2203 698.223C2198.96 703.262 2186.59 708.535 2175.86 708.293C2163.5 708.021 2159.49 702.73 2160.13 696.955C2146.97 704.282 2136.46 711.204 2136.46 711.204C2125.27 730.644 2102.57 749.523 2100.92 779.344C2100.52 786.677 2118.58 853.315 2118.59 854.94Z" fill="white"/>
<path d="M2223.43 861.406C2228.76 868.949 2238.97 914.789 2264.39 920.552C2251.29 887.88 2241.35 873.555 2239.8 863.51C2236.91 844.759 2236.85 825.356 2238.29 807.056C2229.78 792.144 2223.43 781.918 2223.43 781.918C2222.76 779.506 2209.91 739.763 2205.79 775.288C2201.68 810.823 2217.48 852.969 2223.43 861.406Z" fill="#5F9AA8"/>
<path d="M2152.12 681.941C2152.12 681.941 2202.41 682.771 2202.44 651.446C2202.47 620.121 2208.99 599.132 2176.88 597.278C2144.78 595.424 2138.53 607.37 2135.97 617.822C2133.42 628.276 2139.04 680.919 2152.12 681.941Z" fill="#FFB27D"/>
<path d="M2153.98 596.511C2153.98 596.511 2167.75 633.261 2188.88 638.695C2210.01 644.129 2219.17 638.467 2219.17 638.467C2219.17 638.467 2202.97 625.592 2199.6 603.115C2199.6 603.115 2164.37 579.02 2153.98 596.511Z" fill="#A9453D"/>
<path d="M2157.39 599.494C2157.39 599.494 2147.11 607.699 2144.6 615.676C2142.09 623.653 2140.97 640.073 2136.18 639.515C2136.18 639.515 2125.81 614.536 2137.47 600.406C2149.83 585.422 2157.39 599.494 2157.39 599.494Z" fill="#A9453D"/>
<path d="M2072.99 895.204L2049.24 967.618L2062.79 973.05L2102.06 909.072L2072.99 895.204Z" fill="#FFB27D"/>
<path d="M2137.03 706.94C2137.03 706.94 2109.02 718.054 2100.92 735.38C2092.81 752.706 2080.54 868.927 2075.65 880.862C2070.76 892.797 2067.09 902.247 2067.09 902.247C2067.09 902.247 2081.21 914.144 2095.41 915.02C2109.61 915.896 2137.03 706.94 2137.03 706.94Z" fill="#F99746"/>
<path d="M2160.13 696.956C2160.13 696.956 2131.04 768.832 2130.18 783.379C2129.33 797.925 2126.76 1021.25 2126.76 1021.25C2126.76 1021.25 2128.47 1031.52 2108.79 1027.24C2089.11 1022.96 2083.98 1018.68 2083.98 1018.68C2083.98 1018.68 2102.8 880.923 2097.67 833.006C2092.53 785.089 2137.03 706.94 2137.03 706.94L2160.13 696.956Z" fill="#F99746"/>
<path d="M2027.96 1360.28L2045.01 1360.8C2048.06 1360.89 2050.97 1359.58 2052.91 1357.23C2064.37 1343.36 2104.33 1291.41 2128.33 1215.06C2128.99 1212.97 2129.68 1210.85 2130.42 1208.71C2145.87 1163.66 2177.91 1107.1 2194.79 1055.9C2197.48 1047.75 2199.89 1040.07 2202.05 1032.81C2202.75 1030.48 2203.42 1028.2 2204.06 1025.95L2186.11 1012.32C2186.11 1012.32 2132.22 1099.6 2115.53 1181.74C2101.04 1253.08 2042.99 1338.93 2027.96 1360.28Z" fill="#1E3D70"/>
<path d="M2184.24 1189.39C2183.95 1227.17 2185.74 1311.39 2190.34 1352.56C2190.76 1356.33 2193.94 1359.17 2197.74 1359.17H2210.46C2215.82 1359.17 2219.83 1359.13 2222.49 1359.1C2224.8 1359.06 2226.77 1357.41 2227.21 1355.14C2239.86 1290.78 2248.91 1237.3 2255.54 1191.1C2261.09 1152.42 2266.01 1119.26 2269.8 1090.72C2273.62 1062 2276.27 1037.94 2277.22 1017.62C2277.37 1014.42 2277.48 1011.31 2277.54 1008.29C2277.6 1005.25 2277.62 1002.3 2277.59 999.43L2172.26 989.161C2173.59 1059.15 2184.41 1166.17 2184.24 1189.39Z" fill="#2A4E96"/>
<path d="M2210.46 1359.17C2215.27 1359.17 2219 1359.14 2221.64 1359.11C2224.44 1359.07 2226.83 1357.06 2227.38 1354.32C2239.94 1290.32 2248.94 1237.1 2255.54 1191.1C2261.09 1152.42 2266.01 1119.26 2269.8 1090.72C2273.62 1062 2276.27 1037.94 2277.22 1017.62L2238.57 1040.36C2238.57 1040.36 2263.24 1049.06 2253.83 1114.94C2244.42 1180.83 2223.56 1349.85 2210.46 1359.17Z" fill="#1E3D70"/>
<path d="M2205.48 1016.97C2205.48 1016.97 2212.9 1043.78 2238.57 1040.36C2264.24 1036.93 2300.74 1021.53 2300.74 1021.53C2300.74 1021.53 2289.77 986.871 2276.13 941.333C2259.62 886.203 2239.18 815.132 2229.54 770.305C2226.84 757.743 2224.99 747.253 2224.31 739.741L2203.01 698.422C2203.01 698.422 2171.26 769.69 2169.54 787.658C2167.83 805.626 2205.48 1016.97 2205.48 1016.97Z" fill="#F99746"/>
<path d="M2231.11 784.979L2203.01 698.42C2203.08 698.455 2238.51 708.96 2256.32 717.963C2256.32 717.963 2267.46 732.322 2274.35 765.45C2274.35 765.45 2281.63 844.985 2265.38 874.077C2265.38 874.077 2214.04 884.345 2131.9 856.108V837.284C2131.9 837.284 2221.74 841.99 2240.14 844.129L2231.11 784.979Z" fill="#FFB27D"/>
<path d="M2206.62 825.305C2207.77 854.398 2214.61 910.87 2275.65 941.101C2275.81 941.178 2275.97 941.264 2276.13 941.332C2259.62 886.202 2239.18 815.131 2229.54 770.304C2218.33 787.057 2206 809.288 2206.62 825.305Z" fill="#ED7D2B"/>
<path d="M2203.01 698.42C2203.01 698.42 2255.11 702.091 2267.66 730.042C2280.21 757.993 2284.2 850.975 2268.23 878.355C2268.23 878.355 2246.24 884.618 2207.35 877.345C2206.87 877.256 2206.39 877.164 2205.91 877.072C2205.91 877.072 2193.5 846.696 2204.63 840.707C2204.63 840.707 2237.43 842.418 2234 831.579C2230.58 820.742 2203.01 698.42 2203.01 698.42Z" fill="#F99746"/>
<path d="M2072.37 848.916L2073.9 853.849L2159.4 827.252C2159.4 827.252 2160.54 825.953 2159.98 824.229C2159.36 822.324 2157.87 822.32 2157.87 822.32L2072.37 848.916Z" fill="#A9453D"/>
<path d="M2066.19 853.577L2072.37 848.916L2073.9 853.848L2066.19 853.577Z" fill="#A9453D"/>
<path d="M2052.61 965.638C2052.61 965.638 2030.93 977.623 2028.07 986.755C2025.22 995.888 2027.18 1015.01 2030.62 1014.72C2034.07 1014.44 2039.2 994.175 2042.06 992.748C2044.91 991.321 2048.91 987.044 2048.91 990.182C2048.91 993.32 2046.05 999.027 2047.48 999.883C2048.91 1000.74 2053.47 991.896 2056.61 990.182C2059.75 988.468 2061.07 974.357 2064.12 970.568C2067.17 966.78 2052.61 965.638 2052.61 965.638Z" fill="#FFB27D"/>
<path d="M2131.9 837.285C2131.9 837.285 2112.5 825.34 2104.36 827.177C2096.22 829.015 2075.49 844.034 2085.46 847.286C2095.44 850.538 2103.52 847.126 2107.35 849.488C2111.19 851.85 2114.02 856.168 2131.9 856.109C2149.77 856.05 2131.9 837.285 2131.9 837.285Z" fill="#FFB27D"/>
<path d="M606.5 708.946C603.249 702.675 677.438 680.093 678.613 741.982C678.613 741.982 817.59 738.566 751.232 661.104C728.259 634.287 730.623 612.114 731.312 591.475C732.01 570.832 717.003 510.84 665.562 516.881C665.562 516.881 652.09 511.4 635.278 520.122C597.044 539.956 511.396 731.77 606.5 708.946Z" fill="#163560"/>
<path d="M833.71 778.136C833.71 778.136 842.756 764.365 850.047 764.095C857.338 763.824 870.839 760.044 869.759 762.744C868.679 765.444 860.308 765.715 859.498 767.335C858.688 768.955 871.919 771.386 875.7 771.655C879.481 771.925 888.392 771.655 888.122 773.546C887.852 775.436 872.061 783.267 860.919 782.187C849.777 781.107 836.005 785.427 836.005 785.427L833.71 778.136Z" fill="#FFB27D"/>
<path d="M702.88 782.592C702.88 782.592 707.797 792.329 716.716 803.517C727.466 816.981 744.041 832.535 764.852 835.605C774.791 837.071 784.513 834.932 793.448 830.963C793.472 830.954 793.48 830.954 793.48 830.954C818.755 819.734 837.76 793.933 837.76 793.933C842.216 781.782 834.925 773.543 834.925 773.543C834.925 773.543 783.889 785.022 779.028 782.592C774.168 780.161 745.814 698.48 739.066 688.216C732.31 677.952 709.303 672.622 709.303 672.622L702.88 782.592Z" fill="#B0D0FF"/>
<path d="M716.716 803.517C727.466 816.981 744.041 832.535 764.852 835.605C774.791 837.071 784.513 834.932 793.448 830.963C792.46 831.092 767.217 834.211 757.156 816.211C746.892 797.846 735.794 768.683 720.548 778.403C713.97 782.6 714.262 793.026 716.716 803.517Z" fill="#98BAF4"/>
<path d="M512.473 1333.5C512.473 1333.5 496.9 1347.71 499.939 1357.81C502.978 1367.91 517.031 1374.64 518.93 1386.98C520.829 1399.33 528.426 1406.06 535.263 1406.06C542.1 1406.06 567.858 1406.06 567.858 1406.06C567.858 1406.06 572.891 1397.37 560.736 1394.75C548.582 1392.14 543.999 1377.63 544.758 1364.17C545.518 1350.7 543.618 1332.75 543.618 1332.75L517.79 1326.77L512.473 1333.5Z" fill="#233862"/>
<path d="M644.283 1339.53C644.283 1339.53 638.68 1399.74 645.517 1403.11L733.014 1402.93C733.014 1402.93 733.014 1392.83 718.96 1390.58C704.906 1388.34 680.217 1380.11 676.039 1361.79C671.862 1343.46 644.283 1339.53 644.283 1339.53Z" fill="#233862"/>
<path d="M581.931 907.596C599.936 867.216 610.954 855.626 608.85 843.093C607.285 833.765 613.617 669.174 613.617 669.174C615.753 668.512 620.035 667.919 622.378 667.399C629.763 665.759 635.876 660.571 638.42 653.447C641.484 644.864 643.921 632.192 643.864 616.311L646.171 616.765L684.952 624.445C684.952 624.445 684.07 636.65 684.044 648.147C684.044 648.243 684.043 648.338 684.043 648.433C683.996 658.418 690.546 667.231 700.14 670.001C705.038 671.415 709.3 672.624 709.3 672.624C709.3 672.624 723.541 713.28 726.26 755.046C728.98 796.813 700.365 814.957 726.476 898.42C753.134 983.663 571.984 929.908 581.931 907.596Z" fill="#FFB27D"/>
<path d="M684.951 624.445C684.951 624.445 684.069 636.65 684.043 648.147C662.341 647.535 650.871 627.738 646.17 616.765L684.951 624.445Z" fill="#E8945B"/>
<path d="M692.199 635.332C692.199 635.332 640.854 636.179 640.819 604.196C640.784 572.213 634.133 550.782 666.914 548.889C699.695 546.996 706.078 559.194 708.686 569.866C711.294 580.538 705.554 634.287 692.199 635.332Z" fill="#FFB27D"/>
<path d="M690.299 548.105C690.299 548.105 676.241 585.627 654.666 591.175C633.091 596.723 623.732 590.943 623.732 590.943C623.732 590.943 640.281 577.797 643.715 554.848C643.716 554.848 679.694 530.246 690.299 548.105Z" fill="#163560"/>
<path d="M686.814 551.151C686.814 551.151 697.239 555.048 701.529 562.651C705.725 570.086 709.299 579.933 708.47 592.013C708.47 592.013 719.061 566.509 707.158 552.082C694.537 536.784 686.814 551.151 686.814 551.151Z" fill="#163560"/>
<path d="M681.027 615.491C681.027 615.491 684.57 620.152 691.658 619.817C697.367 619.546 699.57 614.593 699.57 614.593C699.57 614.593 689.082 612.071 681.027 615.491Z" fill="#EBF3FA"/>
<path d="M576.975 741.982C576.975 741.982 575.671 760.365 576.975 782.424C577.842 797.046 592.633 816.632 594.731 821.477C599.997 833.628 605.935 835.605 605.935 835.605L651.876 846.865L668.029 850.818L718.967 835.605C718.967 835.605 742.168 770.845 732.852 734.391C723.536 697.937 709.302 672.621 709.302 672.621C709.302 672.621 667.736 713.32 613.614 669.17L576.975 741.982Z" fill="#B0D0FF"/>
<path d="M590.422 788.392C591.289 803.014 592.633 816.632 594.732 821.477C599.998 833.628 605.936 835.605 605.936 835.605L651.877 846.865L671.83 841C671.83 841 605.224 830.906 612.604 773.601L590.422 788.392Z" fill="#F2CCAA"/>
<path d="M715.728 845.434C715.728 845.434 740.954 923.954 742.574 950.687C744.194 977.42 694.353 1330.46 692.348 1342.77C690.458 1354.39 676.039 1361.79 676.039 1361.79C676.039 1361.79 669.408 1365.7 659.944 1363.03C646.813 1359.32 642.662 1354.88 642.662 1354.88C642.662 1354.88 623.028 1103.1 635.179 1013.16C647.329 923.214 647.472 845.434 647.472 845.434H715.728V845.434Z" fill="#ED7D2B"/>
<path d="M608.85 843.093C608.85 843.093 570.371 894.723 566.783 929.624C563.196 964.525 561.155 1087.12 553.512 1121.14C545.87 1155.17 517.79 1220.65 517.79 1326.77C517.79 1326.77 520.708 1332.85 529.721 1336.09C532.603 1337.13 536.464 1338.13 540.213 1338.99C547.646 1340.69 555.271 1337.06 558.663 1330.23C577.647 1292.01 638.119 1168.73 641.219 1143.14C643.413 1125.03 662.507 1005.18 704.156 934.848C714.155 917.963 698.02 850.817 698.02 850.817L608.85 843.093Z" fill="#F99746"/>
<path d="M682.168 616.346C682.168 616.346 683.055 620.115 692.432 619.534C692.432 619.534 700.304 619.047 700.063 614.905C700.064 614.905 692.43 611.958 682.168 616.346Z" fill="white"/>
<path d="M719.758 833.313C719.758 833.313 709.631 841.324 689.513 841.729C665.483 842.213 605.938 835.603 605.938 835.603C605.938 835.603 603.292 842.995 603.4 850.8C603.4 850.8 676.124 869.144 718.26 853.479C718.261 853.479 723.695 843.253 719.758 833.313Z" fill="#233862"/>
<path d="M684.313 850.027C684.313 843.183 689.231 837.617 695.278 837.617C701.324 837.617 706.243 843.183 706.243 850.027C706.243 856.871 701.324 862.437 695.278 862.437C689.231 862.437 684.313 856.871 684.313 850.027ZM687.948 850.027C687.948 854.867 691.237 858.803 695.279 858.803C699.321 858.803 702.61 854.866 702.61 850.027C702.61 845.188 699.321 841.251 695.279 841.251C691.236 841.251 687.948 845.188 687.948 850.027Z" fill="white"/>
<path d="M527.627 847.468L602.138 912.347L690.948 810.352L616.436 745.473L527.627 847.468Z" fill="#B5453C"/>
<path d="M622.743 847.754C622.743 847.754 650.042 850.946 649.957 857.427C649.872 863.907 643.154 877.22 639.783 877.812C636.411 878.404 617.566 859.809 617.566 859.809L622.743 847.754Z" fill="#FFB27D"/>
<path d="M613.615 669.17C613.615 669.17 577.168 671.726 563.197 705.689C549.225 739.652 522.718 796.676 522.718 806.269C522.718 815.863 537.525 845.434 617.049 862.437C617.049 862.437 625.275 853.785 624.776 846.943C624.776 846.943 575.135 804.304 575.268 799.321C575.52 789.895 583.406 777.451 626.99 733.854C638.838 722.001 613.615 669.17 613.615 669.17Z" fill="#B0D0FF"/>
<path d="M1016.3 1404.2H1015.95C1013.92 1404.2 1012.28 1402.52 1012.33 1400.49L1017.83 1162.08L1034.03 1160.19L1020.21 1400.5C1020.09 1402.58 1018.38 1404.2 1016.3 1404.2Z" fill="#B0D4FF"/>
<path d="M921.88 1404.2H921.534C919.498 1404.2 917.86 1402.52 917.907 1400.49L923.408 1162.08L939.611 1160.19L925.794 1400.5C925.674 1402.58 923.957 1404.2 921.88 1404.2Z" fill="#95C0F4"/>
<path d="M1182.42 1404.2H1182.77C1184.8 1404.2 1186.44 1402.52 1186.4 1400.49L1180.89 1162.08L1164.69 1160.19L1178.51 1400.5C1178.63 1402.58 1180.34 1404.2 1182.42 1404.2Z" fill="#B0D4FF"/>
<path d="M911.144 1147.3V983.929C911.144 955.184 934.447 931.88 963.193 931.88H1080.9C1109.64 931.88 1132.94 955.184 1132.94 983.929V1153.54L911.144 1147.3Z" fill="#B0D4FF"/>
<path d="M1154.03 1173.09H926.773C918.142 1173.09 911.145 1166.09 911.145 1157.46V1147.3H1154.03V1173.09H1154.03Z" fill="#95C0F4"/>
<path d="M1181.27 1173.09H1009.33C1002.95 1173.09 997.778 1167.91 997.778 1161.53V1158.85C997.778 1152.47 1002.95 1147.29 1009.33 1147.29H1181.27C1187.65 1147.29 1192.82 1152.47 1192.82 1158.85V1161.53C1192.82 1167.91 1187.65 1173.09 1181.27 1173.09Z" fill="#B0D4FF"/>
<path d="M1174.59 1106.59C1157.73 1135.94 1136.52 1147.26 1136.52 1147.26H1048.29C1048.29 1147.26 1187.45 1084.2 1174.59 1106.59Z" fill="#233862"/>
<path d="M1106.83 1333.65C1104.53 1336.29 1104.23 1339.23 1105.37 1342.38C1105.37 1342.39 1105.38 1342.41 1105.39 1342.42C1107.5 1348.24 1114.45 1354.73 1122.53 1361.22C1123.56 1362.05 1124.48 1362.81 1125.28 1363.51C1125.49 1363.69 1125.7 1363.88 1125.89 1364.06C1126.06 1364.2 1126.21 1364.35 1126.37 1364.49C1133.9 1371.43 1131.07 1373.02 1144.59 1387.11C1160.02 1403.16 1170.64 1403.45 1173.66 1401.99C1176.22 1400.74 1171.03 1392.23 1165.27 1382.66C1164.99 1382.2 1164.72 1381.73 1164.43 1381.26C1163.67 1379.99 1162.91 1378.7 1162.15 1377.42C1155.4 1365.91 1157.13 1360.5 1158.73 1343.37C1160.03 1329.44 1180.4 1265.56 1180.4 1265.56L1150.83 1260.47C1150.83 1260.47 1141.93 1311.33 1132.12 1319.17C1126.87 1323.34 1121 1323.4 1115.96 1326.49C1115.61 1326.7 1115.26 1326.93 1114.91 1327.15C1112.05 1329.05 1109.13 1331.01 1106.83 1333.65Z" fill="#FFB27D"/>
<path d="M1106.83 1333.65C1104.53 1336.29 1104.23 1339.23 1105.37 1342.38C1105.37 1342.39 1105.38 1342.41 1105.39 1342.42C1107.97 1348.23 1114.75 1354.69 1122.55 1361.16C1123.57 1362 1124.47 1362.78 1125.28 1363.51C1125.49 1363.69 1125.7 1363.88 1125.89 1364.06C1126.06 1364.2 1126.21 1364.35 1126.37 1364.49C1133.9 1371.43 1131.07 1373.02 1144.59 1387.11C1160.02 1403.16 1170.64 1403.45 1173.66 1401.99C1176.22 1400.74 1171.03 1392.23 1165.27 1382.66C1162.27 1381.56 1148.32 1375.89 1137.77 1362.4C1128.48 1350.54 1122.29 1335.31 1115.96 1326.49C1115.61 1326.71 1115.26 1326.93 1114.91 1327.15C1112.05 1329.05 1109.13 1331.01 1106.83 1333.65Z" fill="#233862"/>
<path d="M1345.2 1315.19C1347.03 1324.32 1360.04 1322.79 1374.57 1319.24C1389.1 1315.69 1385.65 1319.91 1406.33 1317.62C1427.01 1315.33 1433.28 1307.62 1433.91 1304.55C1434.47 1301.82 1424.25 1300.86 1413.29 1299.59C1411.91 1299.44 1410.53 1299.27 1409.14 1299.1C1396.77 1297.54 1387.7 1289.56 1376.46 1283C1365.81 1276.79 1349.92 1251.47 1349.92 1251.47L1321.56 1253.72C1321.56 1253.72 1336.44 1276.33 1342.2 1286.16C1345.59 1291.94 1345.41 1299.59 1344.98 1305.49C1344.77 1308.7 1344.56 1311.98 1345.2 1315.19Z" fill="#FFB27D"/>
<path d="M1374.57 1319.24C1389.1 1315.69 1385.65 1319.91 1406.33 1317.62C1427.01 1315.33 1433.28 1307.62 1433.91 1304.55C1434.47 1301.82 1424.25 1300.85 1413.29 1299.59L1413.19 1299.8C1413.19 1299.8 1400.79 1308.6 1383.57 1309.01C1369.54 1309.35 1354.67 1305.33 1344.99 1305.49C1344.77 1308.7 1344.56 1311.98 1345.2 1315.19C1347.03 1324.31 1360.04 1322.79 1374.57 1319.24Z" fill="#233862"/>
<path d="M1236.5 1133.82L1209.99 1205.17L1175.37 1298.33C1175.37 1298.33 1165.97 1299.24 1156.98 1296.65C1148.69 1294.26 1139.19 1288 1139.19 1288C1139.19 1288 1148.8 1187.96 1166.73 1130.54C1171.33 1115.8 1176.48 1103.88 1182.16 1097.17C1209.96 1064.32 1236.5 1133.82 1236.5 1133.82Z" fill="#233862"/>
<path d="M1209.54 1020.5C1192.17 1014.9 1142.63 1022.1 1092.86 1031.84L1082.44 1014.65L974.934 1006.25C974.934 1006.25 939.46 1084.92 958.881 1135.05C961.735 1142.41 967.407 1147.14 977.075 1147.3C977.079 1147.3 978.641 1147.29 978.645 1147.3C978.645 1147.3 1042.63 1147.26 1063.4 1147.26C1116.87 1147.26 1176.55 1110.51 1184.27 1108.96C1196.91 1106.44 1201.96 1131.71 1214.6 1158.25C1227.23 1184.79 1333.39 1275.77 1333.39 1275.77C1333.39 1275.77 1349.7 1275.94 1356.44 1273.41C1363.69 1270.69 1366.34 1267.16 1366.34 1267.16C1366.34 1267.16 1248.72 1033.14 1209.54 1020.5Z" fill="#2B478B"/>
<path d="M1078.21 701.625C1064.43 694.393 1043.48 693.415 1040.08 692.958C999.34 687.484 974.823 746.678 973.381 764.614C970.723 797.675 953.234 802.715 928.617 823.42C879.258 864.935 893.732 913.175 920.722 931.1C936.916 941.855 965.46 931.099 965.46 931.099C965.863 931.381 1043.52 887.685 1081.8 866.607C1139.19 858.447 1113.3 720.052 1078.21 701.625Z" fill="#233862"/>
<path d="M1049.72 848.664C1049.89 848.773 1030.88 855.261 1018.18 849.634C1006.22 844.351 997.166 824.684 997.343 824.673C1002.78 824.422 1008.75 819.668 1013.35 788.472L1015.66 789.303L1054.6 803.313C1054.6 803.313 1051.78 815.805 1049.95 827.7C1048.42 837.685 1047.59 847.252 1049.72 848.664Z" fill="#FFB27D"/>
<path d="M1054.6 803.312C1054.6 803.312 1051.78 815.804 1049.95 827.699C1027.59 823.674 1018.81 801.392 1015.66 789.303L1054.6 803.312Z" fill="#ED975D"/>
<path d="M1060.4 815.711C1060.4 815.711 1007.13 808.561 1012.09 775.456C1017.05 742.352 1013.52 719.134 1047.74 722.299C1081.96 725.464 1086.66 739.085 1087.69 750.537C1088.72 761.991 1074.38 816.718 1060.4 815.711Z" fill="#FFB27D"/>
<path d="M1085.75 732.392C1085.75 732.392 1051.65 761.778 1028.46 764.147C1005.26 766.516 996.481 759.071 996.481 759.071C996.481 759.071 1010.15 747.719 1018.38 729.4C1020.81 724.001 1025.93 720.296 1031.82 719.787C1048.39 718.357 1079.78 717.705 1085.75 732.392Z" fill="#233862"/>
<path d="M1064.44 729.76C1064.44 729.76 1075.84 740.79 1079.44 748.971C1082.9 756.866 1083.94 775.747 1081.18 783.247C1081.18 783.247 1098.95 748.686 1088.89 731.895C1078.22 714.09 1064.44 729.76 1064.44 729.76Z" fill="#233862"/>
<path d="M1094.57 927.133C1092.96 1034.96 1094.13 1012.43 1082.34 1022.66C1079.49 1025.12 1071.5 1026.59 1060.99 1027.29C1027.92 1029.48 969.802 1024.04 967.591 1017.93C959.965 996.782 965.349 990.214 958.986 957.845C958.322 954.403 957.502 950.676 956.538 946.618C951.233 924.386 946.069 916.822 964.891 881.105C981.959 848.751 999.691 822.494 1001.29 823.441C1046.32 850.173 1049.95 827.704 1049.95 827.704C1049.95 827.704 1095.36 874.538 1094.57 927.133Z" fill="white"/>
<path d="M1209.99 1205.17L1175.37 1298.33C1175.37 1298.33 1165.97 1299.24 1156.98 1296.65C1148.69 1294.26 1139.19 1287.99 1139.19 1287.99C1139.19 1287.99 1148.8 1187.96 1166.73 1130.54L1209.99 1205.17Z" fill="#2B478B"/>
<path d="M1049.95 827.699C1049.95 827.699 1096.29 835.554 1101.73 855.506C1107.17 875.456 1139.19 992.741 1139.19 992.741C1139.19 992.741 1115.64 996.973 1104.75 986.092C1093.87 975.209 1066.89 885.129 1066.89 885.129L1049.95 827.699Z" fill="white"/>
<path d="M1060.99 1027.29C1027.92 1029.48 969.802 1024.04 967.591 1017.93C959.965 996.783 965.349 990.215 958.986 957.846L974.933 912.94C974.933 912.94 972.296 962.946 987.044 976.099C1001.78 989.251 1047.42 1001.49 1054.59 1012.48C1058.05 1017.75 1060.32 1023.04 1060.99 1027.29Z" fill="#EBF3FF"/>
<path d="M1023.1 1006.26C1023.1 1006.26 1055.72 998.992 1060.99 1001.89C1066.25 1004.78 1079.11 1015.33 1080.72 1018.99C1082.33 1022.66 1069.01 1016.21 1064.67 1015.05C1061.86 1014.29 1054.47 1016.86 1050.82 1018.08C1035.42 1023.21 1025.99 1020.57 1025.99 1020.57L1023.1 1006.26Z" fill="#FFB27D"/>
<path d="M1001.26 823.419C1001.26 823.419 957.46 826.116 942.298 847.264C920.954 877.034 878.613 1003.9 902.88 1020.82C930.207 1039.88 1027.25 1025.81 1027.25 1025.81C1027.25 1025.81 1030.48 1010.71 1025.99 1003.41C1021.49 996.109 948.477 984.314 945.107 980.944C941.737 977.574 987.233 915.227 987.233 905.118C987.232 895.006 1001.26 823.419 1001.26 823.419Z" fill="white"/>
<path d="M1062.57 1010.97C1062.57 1010.97 1069.4 1019.78 1071.64 1020.83C1073.88 1021.89 1075.33 1021.62 1075.33 1021.62L1070.72 1013.33L1062.57 1010.97Z" fill="#FFB27D"/>
<path d="M1060.99 1001.89L1080.86 1011.54C1080.86 1011.54 1080.01 1012.92 1077.57 1012.81C1075.12 1012.7 1068.95 1010.44 1068.95 1010.44L1060.99 1001.89Z" fill="#FFB27D"/>
<path d="M1071.64 1034.34H1228.83L1276.12 916.755H1119.17L1071.64 1034.34Z" fill="#F99746"/>
<path d="M1230.67 1029.76H1023.1V1034.34H1228.83L1230.67 1029.76Z" fill="#ED7D2B"/>
<path d="M1189.15 975.548C1190.34 971.414 1187.95 968.064 1183.81 968.064C1179.68 968.064 1175.37 971.415 1174.18 975.548C1173 979.681 1175.39 983.032 1179.52 983.032C1183.65 983.033 1187.97 979.681 1189.15 975.548Z" fill="white"/>
<path d="M1892.62 1408.55H1893.08C1895.77 1408.55 1897.94 1406.21 1897.88 1403.36L1890.6 1069.56L1869.18 1066.91L1887.45 1403.38C1887.61 1406.28 1889.88 1408.55 1892.62 1408.55Z" fill="#78ACEA"/>
<path d="M1023.89 1408.55H1023.43C1020.74 1408.55 1018.57 1406.21 1018.63 1403.36L1025.91 1069.56L1047.33 1066.91L1029.06 1403.38C1028.9 1406.28 1026.63 1408.55 1023.89 1408.55Z" fill="#78ACEA"/>
<path d="M1918.43 1075.7H1001.68C994.169 1075.7 988.081 1069.61 988.081 1062.1V1049.01C988.081 1041.5 994.169 1035.42 1001.68 1035.42H1918.43C1925.94 1035.42 1932.02 1041.5 1932.02 1049.01V1062.1C1932.02 1069.61 1925.94 1075.7 1918.43 1075.7Z" fill="#78ACEA"/>
<path d="M801.887 463.321C798.424 377.612 870.262 339.534 943.717 339.534C1017.17 339.534 1097.11 358.566 1104.03 472.534C1108.49 545.853 1069.4 590.968 956.855 590.968C918.898 590.968 889.398 584.981 866.803 574.304L810.544 624.295L838.191 555.195C813.7 532.426 803.382 500.307 801.887 463.321Z" fill="#DFEDFB"/>
<path d="M2471.39 1408.19C2471.39 1408.19 2473.45 1392.09 2478.24 1382.51C2483.03 1372.94 2513.49 1379.03 2513.49 1379.03C2513.49 1379.03 2519.58 1384.25 2520.89 1408.62L2471.39 1408.19Z" fill="#233862"/>
<path d="M2367.6 1407.97C2374.76 1403.6 2370.69 1371.01 2370.69 1371.01C2370.69 1371.01 2337.34 1344.33 2332.75 1364.76C2328.17 1385.18 2301.07 1394.36 2285.64 1396.86C2275 1398.58 2271.7 1404.48 2270.68 1407.97H2367.6V1407.97Z" fill="#233862"/>
<path d="M2436.69 1170.93C2435.33 1178.41 2434.47 1184.54 2434.24 1188.94C2431.14 1249.42 2383.33 1387.69 2374.78 1390.92C2361.55 1395.91 2340.72 1385.3 2329.82 1381.83C2325.3 1380.38 2322.25 1375.83 2323.25 1371.21C2346.93 1262.37 2355.63 1105.65 2358.8 1012.86C2360.4 966.126 2368.42 933.841 2368.42 933.841C2368.42 933.841 2485.02 902.732 2485.71 942.085C2486.32 976.909 2447.09 1113.48 2436.69 1170.93Z" fill="#213F7A"/>
<path d="M2436.69 1170.93L2358.8 1012.86C2360.4 966.126 2368.42 933.841 2368.42 933.841C2368.42 933.841 2485.02 902.732 2485.71 942.085C2486.32 976.909 2447.09 1113.48 2436.69 1170.93Z" fill="#233862"/>
<path d="M2410.75 942.223L2472.38 1388.96C2472.38 1388.96 2499.45 1395.49 2520.5 1390.26C2520.5 1390.26 2538.55 1152.67 2537.05 1095.23C2535.54 1037.79 2550 941.529 2533.75 930.914C2517.5 920.297 2410.75 942.223 2410.75 942.223Z" fill="#213F7A"/>
<path d="M2545.76 934.78C2546.06 938.816 2543.48 942.488 2539.59 943.616C2530.99 946.111 2521.08 947.847 2501.96 951.808C2484 955.538 2459.84 958.84 2430.16 959.023C2382.94 959.324 2365.07 943.05 2365.07 943.05C2363.03 943.087 2366.14 933.205 2368.94 886.222C2369.89 870.306 2370.8 850.133 2371.46 824.636C2372.06 801.694 2372.46 774.439 2372.5 742.104C2372.55 703.208 2432.75 661.362 2433.87 661.362L2433.88 661.381C2433.88 666.982 2442.71 677.316 2456.3 678.208C2472.44 679.263 2492.23 671.233 2492.23 661.94C2492.23 661.846 2521.4 708.603 2531.76 758.423C2537 783.499 2534.88 782.826 2545.76 934.78Z" fill="#B0D0FF"/>
<path d="M2433.87 661.365C2433.87 661.365 2377.88 660.89 2364.41 679.786C2350.94 698.682 2321.39 800.334 2336.81 834.159C2352.23 867.983 2381.07 820.167 2397.08 799.448C2413.09 778.73 2433.87 661.365 2433.87 661.365Z" fill="#B0D0FF"/>
<path d="M2433.3 652.82L2433.33 658.607C2433.33 658.607 2431.75 676.706 2454.04 679.349C2476.32 681.999 2492.87 675.969 2492.26 662.002C2490.25 651.188 2488.39 640.084 2488.24 631.136C2488.19 627.811 2488.42 624.282 2489.04 620.298L2445.85 619.436L2433.13 621.514L2433.3 652.82Z" fill="#FFB27D"/>
<path d="M2433.13 621.514L2433.3 652.82C2437.88 654.953 2443.06 656.255 2448.86 656.255C2468.71 656.255 2481.54 641.7 2488.24 631.137C2488.19 627.812 2488.42 624.283 2489.04 620.299L2445.85 619.437L2433.13 621.514Z" fill="#E2915A"/>
<path d="M2492.35 613.35C2487.34 640.316 2452.54 639.431 2437.5 637.736C2433.27 637.265 2430.61 636.725 2430.61 636.725C2425.84 635.451 2423.17 627.935 2421.94 618.09C2419.48 598.608 2422.58 570.008 2425.87 562.694C2430.83 551.688 2440.16 539.783 2475.2 548.373C2510.25 556.968 2498.78 578.798 2492.35 613.35Z" fill="#FFB27D"/>
<path d="M2376.62 737.121C2376.62 737.121 2354.97 784.939 2355.6 799.272C2355.6 799.272 2366.32 798.905 2376.62 801.975C2393.55 807.021 2376.62 737.121 2376.62 737.121Z" fill="#98BAF4"/>
<path d="M2415.12 537.026C2415.12 537.026 2430.54 535.839 2448.74 527.93C2463.5 521.51 2482.13 528.58 2488.18 531.766C2488.01 530.791 2487.62 529.461 2486.7 528.128C2486.7 528.128 2489.42 530.053 2489.82 532.744C2490.1 532.95 2490.22 533.092 2490.15 533.14C2490.15 533.14 2493.23 532.577 2495.2 533.467C2495.2 533.467 2493.82 533.269 2493.33 534.159C2493.27 534.253 2493.2 534.333 2493.1 534.404C2516.14 545.533 2518.26 581.934 2510.85 590.357C2501.93 600.491 2488.47 623.42 2488.47 623.42C2488.47 623.42 2487.34 617.92 2488.96 609.002C2490.58 600.085 2482.88 600.085 2473.15 596.031C2463.43 591.977 2471.53 580.628 2463.02 573.737C2454.51 566.846 2423.3 570.9 2423.7 565.631C2412.12 561.41 2415.12 538.212 2415.12 537.026Z" fill="#233862"/>
<path d="M2499.4 826.696C2490.26 863.4 2391.41 882.368 2368.94 886.222C2369.89 870.306 2370.8 850.133 2371.46 824.636L2499.4 826.696Z" fill="#98BAF4"/>
<path d="M2477.7 838.625C2478.65 838.625 2499.68 835.486 2503.45 833.603C2507.21 831.72 2524.44 807.233 2513.16 800.955C2501.88 794.676 2471.59 819.79 2471.59 819.79L2477.7 838.625Z" fill="#FFB27D"/>
<path d="M2349.77 845.901C2349.77 845.901 2431.12 850.314 2485.71 838.625C2485.71 838.625 2487.09 822.854 2469.93 815.849C2469.93 815.849 2384.85 797.815 2364.41 802.838C2343.97 807.86 2349.77 845.901 2349.77 845.901Z" fill="#B0D0FF"/>
<path d="M2536.59 782.061C2519.71 802.416 2497.64 819.036 2473.31 822.928L2473.3 822.922C2473.1 822.614 2465.94 811.739 2467.28 795.754C2467.9 788.358 2470.35 779.863 2476.14 770.816C2477.92 768.035 2479.51 764.783 2480.93 761.172C2494.21 727.274 2492.23 661.939 2492.23 661.939C2492.23 661.939 2548.65 667.847 2566.23 692.961C2577 708.344 2563.27 749.878 2536.59 782.061Z" fill="#B0D0FF"/>
<path d="M2437.5 637.735C2433.27 637.264 2430.61 636.724 2430.61 636.724C2425.84 635.45 2423.17 627.934 2421.94 618.089C2430.88 620.293 2434.98 627.205 2436.69 630.15C2437.46 631.476 2437.62 634.445 2437.5 637.735Z" fill="#E2915A"/>
<path d="M2414.77 652.988C2414.77 652.988 2395.29 620.835 2410.44 619.436C2425.59 618.037 2431.68 628.292 2433.87 632.059C2436.06 635.826 2433.3 652.819 2433.3 652.819L2414.77 652.988Z" fill="#FFB27D"/>
<path d="M2489.04 794.674C2488.44 798.749 2487.22 802.497 2485.72 805.838C2480.96 816.404 2473.31 822.928 2473.31 822.928L2473.3 822.922C2422.7 800.08 2412.46 721.642 2410.74 678.546C2410.05 661.223 2410.74 649.608 2410.74 649.608C2433.57 642.048 2439.99 655.183 2439.99 655.183C2439.99 655.183 2466.94 719.281 2480.92 761.172C2486.27 777.202 2489.72 789.985 2489.04 794.674Z" fill="#B0D0FF"/>
<path d="M2536.59 782.061C2519.71 802.416 2497.64 819.036 2473.31 822.928L2473.3 822.922C2422.7 800.08 2412.46 721.642 2410.74 678.546C2410.74 678.546 2434.69 765.398 2467.28 795.754C2473.17 801.248 2479.35 804.89 2485.72 805.838C2485.72 805.838 2526.82 794.223 2535.44 783.285C2536.05 782.501 2536.43 782.111 2536.59 782.061Z" fill="#98BAF4"/>
<path d="M1614.88 1035.42H1457.69L1410.4 917.831H1567.35L1614.88 1035.42Z" fill="#2B478B"/>
<path d="M1455.85 1030.84H1663.41V1035.42H1457.69L1455.85 1030.84Z" fill="#2B478B"/>
<path d="M1497.37 976.624C1496.18 972.49 1498.57 969.14 1502.71 969.14C1506.84 969.14 1511.15 972.491 1512.34 976.624C1513.52 980.757 1511.13 984.108 1507 984.108C1502.86 984.108 1498.55 980.757 1497.37 976.624Z" fill="white"/>
<path d="M2890.03 1405.57V1406.58C2890.03 1408.17 2888.55 1409.49 2886.76 1409.49H3.27501C1.47901 1409.49 0 1408.17 0 1406.58V1405.57C0 1403.98 1.47901 1402.66 3.27501 1402.66H2886.76C2888.55 1402.66 2890.03 1403.98 2890.03 1405.57Z" fill="#2E3552"/>
</svg>
