<svg width="276" height="276" viewBox="0 0 276 276" fill="none" xmlns="http://www.w3.org/2000/svg">
<circle cx="138" cy="138" r="138" fill="#3494CE"/>
<g filter="url(#filter0_d)">
<path d="M61.8389 73.5579L62.3945 68H77.3977V73.5579H61.8389Z" fill="black" stroke="black"/>
<path d="M59.0606 92.4546C58.616 88.0083 60.7276 79.8568 61.8389 76.3368V73.5579H77.398V77.4484L80.1764 80.2273L86.2888 71.8905L91.8455 70.2231L125.186 71.8905C125.186 71.8905 128.153 73.2533 129.631 74.6694C130.98 75.9608 132.41 78.5599 132.41 78.5599V99.6798C132.41 101.458 131.298 102.644 130.743 103.014V164.707H61.8389V100.236C61.098 99.4945 59.5051 96.9008 59.0606 92.4546Z" fill="#FFEE2D" stroke="black"/>
<path d="M119.628 78.5599L96.8458 76.8926C96.8458 76.8926 93.229 77.812 91.289 79.1157C89.5059 80.314 87.3993 83.0062 87.3993 83.0062C87.3993 83.0062 86.8436 85.1632 87.3993 86.3409C88.146 87.9235 91.289 88.5641 91.289 88.5641H116.294C116.294 88.5641 119.551 87.5754 121.295 86.3409C122.799 85.2774 124.629 83.0062 124.629 83.0062C124.629 83.0062 123.717 81.1196 122.962 80.2273C121.895 78.9654 119.628 78.5599 119.628 78.5599Z" fill="white" stroke="black"/>
<path d="M61.8389 98.5682V94.6777H130.187V99.124L129.075 102.459V163.595H63.5059V100.236L61.8389 98.5682Z" fill="white" stroke="black"/>
<rect x="70.1738" y="122.467" width="51.122" height="33.3471" rx="2" fill="#FFEE2D"/>
<path d="M82.845 130.449L84.4857 134.808L86.1224 130.449H87.3997V136.136H86.4153V134.261L86.513 131.754L84.8333 136.136H84.1263L82.4505 131.758L82.5482 134.261V136.136H81.5638V130.449H82.845ZM89.6146 136.136H88.6302V130.449H89.6146V136.136ZM95.3411 136.136H94.3528L91.8177 132.101V136.136H90.8294V130.449H91.8177L94.3607 134.5V130.449H95.3411V136.136ZM98.2552 133.144L99.5638 130.449H100.658L98.7513 134.043V136.136H97.7591V134.043L95.8489 130.449H96.9466L98.2552 133.144ZM103.872 134.812H101.669L101.208 136.136H100.181L102.329 130.449H103.216L105.368 136.136H104.337L103.872 134.812ZM101.947 134.015H103.595L102.771 131.656L101.947 134.015ZM107.65 133.679L107.005 134.363V136.136H106.017V130.449H107.005V133.117L107.552 132.441L109.216 130.449H110.411L108.298 132.969L110.533 136.136H109.361L107.65 133.679ZM84.8685 144.398C84.6627 144.666 84.3776 144.87 84.013 145.008C83.6484 145.146 83.2344 145.215 82.7708 145.215C82.2943 145.215 81.8724 145.107 81.5052 144.89C81.138 144.674 80.8541 144.366 80.6536 143.965C80.4557 143.561 80.3528 143.091 80.345 142.554V142.109C80.345 141.25 80.5508 140.579 80.9622 140.097C81.3737 139.613 81.9479 139.371 82.6849 139.371C83.3177 139.371 83.8203 139.527 84.1927 139.84C84.5651 140.152 84.789 140.603 84.8646 141.191H83.8958C83.7864 140.506 83.3893 140.164 82.7044 140.164C82.2617 140.164 81.9245 140.324 81.6927 140.644C81.4635 140.962 81.345 141.429 81.3372 142.047V142.484C81.3372 143.099 81.4661 143.577 81.7239 143.918C81.9844 144.256 82.345 144.426 82.806 144.426C83.3112 144.426 83.6706 144.311 83.8841 144.082V142.969H82.7122V142.219H84.8685V144.398ZM90.4935 142.441C90.4935 142.998 90.3971 143.488 90.2044 143.91C90.0117 144.329 89.7357 144.652 89.3763 144.879C89.0195 145.103 88.6081 145.215 88.1419 145.215C87.681 145.215 87.2695 145.103 86.9075 144.879C86.5482 144.652 86.2695 144.33 86.0716 143.914C85.8763 143.497 85.7773 143.017 85.7747 142.472V142.152C85.7747 141.597 85.8724 141.108 86.0677 140.683C86.2656 140.259 86.543 139.935 86.8997 139.711C87.2591 139.484 87.6706 139.371 88.1341 139.371C88.5976 139.371 89.0078 139.483 89.3646 139.707C89.7239 139.928 90.0013 140.248 90.1966 140.668C90.3919 141.084 90.4909 141.57 90.4935 142.125V142.441ZM89.5052 142.144C89.5052 141.514 89.3854 141.031 89.1458 140.695C88.9088 140.359 88.5716 140.191 88.1341 140.191C87.707 140.191 87.3724 140.359 87.1302 140.695C86.8906 141.028 86.7682 141.501 86.763 142.113V142.441C86.763 143.066 86.8841 143.549 87.1263 143.89C87.3711 144.232 87.7096 144.402 88.1419 144.402C88.5794 144.402 88.9153 144.235 89.1497 143.902C89.3867 143.569 89.5052 143.082 89.5052 142.441V142.144ZM93.5677 142.945H92.4661V145.136H91.4778V139.449H93.4778C94.1341 139.449 94.6406 139.596 94.9974 139.89C95.3541 140.185 95.5325 140.61 95.5325 141.168C95.5325 141.548 95.4401 141.867 95.2552 142.125C95.0729 142.38 94.8177 142.577 94.4896 142.715L95.7669 145.086V145.136H94.7083L93.5677 142.945ZM92.4661 142.152H93.4818C93.8151 142.152 94.0755 142.069 94.263 141.902C94.4505 141.733 94.5443 141.502 94.5443 141.211C94.5443 140.906 94.457 140.67 94.2825 140.504C94.1107 140.337 93.8528 140.251 93.5091 140.246H92.4661V142.152ZM99.7943 142.597H97.4583V144.347H100.189V145.136H96.47V139.449H100.161V140.246H97.4583V141.816H99.7943V142.597ZM105.505 145.136H104.517L101.982 141.101V145.136H100.993V139.449H101.982L104.525 143.5V139.449H105.505V145.136ZM111.033 144.398C110.827 144.666 110.542 144.87 110.177 145.008C109.812 145.146 109.398 145.215 108.935 145.215C108.458 145.215 108.036 145.107 107.669 144.89C107.302 144.674 107.018 144.366 106.818 143.965C106.62 143.561 106.517 143.091 106.509 142.554V142.109C106.509 141.25 106.715 140.579 107.126 140.097C107.538 139.613 108.112 139.371 108.849 139.371C109.482 139.371 109.984 139.527 110.357 139.84C110.729 140.152 110.953 140.603 111.029 141.191H110.06C109.951 140.506 109.553 140.164 108.868 140.164C108.426 140.164 108.089 140.324 107.857 140.644C107.628 140.962 107.509 141.429 107.501 142.047V142.484C107.501 143.099 107.63 143.577 107.888 143.918C108.148 144.256 108.509 144.426 108.97 144.426C109.475 144.426 109.835 144.311 110.048 144.082V142.969H108.876V142.219H111.033V144.398Z" fill="black"/>
<path d="M82.9552 159.765C86.5115 157.542 91.8459 156.06 94.0686 156.431C109.072 142.536 123.519 123.639 154.637 122.528C184.088 121.476 193.719 134.384 204.648 140.869C204.648 140.869 214.127 142.558 219.095 145.871C220.762 146.982 222.487 148.475 221.874 150.317C221.26 152.159 217.428 152.54 217.428 152.54C217.428 152.54 213.271 153.577 211.871 155.319C210.71 156.764 210.76 159.765 210.76 159.765C210.76 163.1 205.203 183.664 164.639 197.003C154.444 200.355 152.97 197.559 154.637 199.226C156.304 200.893 154.637 202.561 152.97 205.895C151.303 209.23 145.746 208.119 142.968 205.895C140.19 203.672 140.745 200.893 135.744 199.226C130.743 197.559 131.299 195.336 130.743 190.889C130.299 187.332 117.963 174.772 95.7357 173.104C95.7357 172.548 95.4023 171.437 94.0686 171.437H89.6232C89.438 170.696 88.623 168.769 86.8449 166.99C85.0667 165.212 80.1768 164.397 77.9541 164.212C78.1393 163.656 79.3989 161.988 82.9552 159.765Z" fill="white" stroke="black"/>
<path d="M174.086 175.327C174.53 175.772 179.457 179.218 181.865 180.885" stroke="black"/>
<path d="M167.974 164.767L170.752 170.325" stroke="black"/>
<path d="M161.86 169.214C161.86 169.658 164.454 171.622 165.75 172.548" stroke="black"/>
<path d="M172.975 177.551V180.329" stroke="black"/>
<path d="M175.197 148.094L180.754 153.652" stroke="black"/>
<path d="M182.421 141.424L188.533 143.092" stroke="black"/>
<path d="M186.866 155.875L189.089 158.098" stroke="black"/>
<path d="M191.867 153.096V157.542" stroke="black"/>
<path d="M195.757 162.544L199.647 164.767" stroke="black"/>
<path d="M196.314 155.875C202.426 149.761 206.872 151.984 206.872 151.984C206.872 151.984 204.328 156.234 201.871 158.098C199.938 159.564 196.314 160.877 196.314 160.877C196.314 160.877 194.091 158.098 196.314 155.875Z" fill="white" stroke="black"/>
<path d="M149.635 184.22C155.748 180.329 172.293 172.24 170.75 175.327C168.528 179.774 164.941 182.451 160.193 184.22C155.923 185.811 145.79 186.667 149.635 184.22Z" fill="white" stroke="black"/>
<path d="M183.533 171.437C188.64 169.768 191.87 162.544 191.87 162.544C191.87 162.544 182.207 165.152 177.975 168.102C175.58 169.772 174.089 172.548 174.089 172.548C174.089 172.548 180.637 172.383 183.533 171.437Z" fill="white" stroke="black"/>
<path d="M128.473 166.252L122.441 160.219L124.508 158.152C125.19 157.469 125.846 157.087 126.476 157.004C127.105 156.921 127.691 157.15 128.232 157.692C128.508 157.968 128.682 158.291 128.754 158.661C128.826 159.031 128.779 159.421 128.613 159.83C129.028 159.592 129.446 159.508 129.869 159.577C130.291 159.64 130.674 159.843 131.016 160.186C131.582 160.752 131.835 161.37 131.774 162.038C131.716 162.704 131.349 163.375 130.672 164.052L128.473 166.252ZM126.799 162.482L128.684 164.367L129.848 163.203C130.177 162.874 130.352 162.535 130.374 162.187C130.396 161.839 130.262 161.52 129.972 161.23C129.345 160.603 128.705 160.603 128.05 161.23L126.799 162.482ZM126.028 161.711L127.056 160.683C127.382 160.357 127.562 160.03 127.598 159.701C127.634 159.367 127.517 159.064 127.246 158.794C126.948 158.495 126.647 158.366 126.343 158.404C126.042 158.44 125.712 158.638 125.353 158.997L124.334 160.016L126.028 161.711ZM134.658 154.679L132.18 157.157L134.036 159.013L136.932 156.117L137.769 156.954L133.825 160.899L127.793 154.866L131.708 150.95L132.553 151.795L129.686 154.663L131.352 156.328L133.829 153.85L134.658 154.679ZM138.515 151.559L137.346 152.728L139.67 155.052L138.622 156.1L132.59 150.067L134.712 147.946C135.408 147.25 136.101 146.868 136.791 146.802C137.482 146.736 138.122 146.998 138.713 147.589C139.117 147.993 139.357 148.429 139.434 148.899C139.512 149.363 139.45 149.842 139.248 150.337L143.117 151.497L143.171 151.551L142.048 152.674L138.515 151.559ZM136.505 151.886L137.583 150.809C137.936 150.455 138.124 150.091 138.146 149.715C138.165 149.337 138.02 148.993 137.711 148.683C137.388 148.36 137.045 148.203 136.684 148.211C136.324 148.216 135.96 148.399 135.59 148.758L134.484 149.864L136.505 151.886ZM145.889 146.023L143.552 148.36L144.468 150.254L143.378 151.344L139.625 143.031L140.565 142.091L148.88 145.841L147.786 146.935L145.889 146.023ZM143.001 147.221L144.75 145.472L141.373 143.844L143.001 147.221ZM151.167 140.446C150.902 140.181 150.603 140.07 150.272 140.114C149.943 140.156 149.463 140.346 148.83 140.686C148.198 141.026 147.648 141.25 147.181 141.357C146.287 141.562 145.562 141.386 145.006 140.831C144.52 140.345 144.317 139.747 144.397 139.037C144.48 138.324 144.838 137.652 145.47 137.019C145.89 136.599 146.342 136.302 146.825 136.128C147.308 135.954 147.788 135.917 148.263 136.016C148.735 136.113 149.145 136.335 149.493 136.683L148.449 137.728C148.134 137.413 147.789 137.266 147.413 137.288C147.038 137.305 146.666 137.497 146.299 137.864C145.956 138.207 145.763 138.547 145.719 138.884C145.678 139.218 145.788 139.516 146.05 139.779C146.271 140 146.559 140.083 146.912 140.027C147.263 139.969 147.743 139.776 148.354 139.447C148.961 139.116 149.497 138.897 149.961 138.793C150.422 138.685 150.835 138.681 151.2 138.78C151.562 138.877 151.897 139.08 152.207 139.389C152.709 139.892 152.916 140.486 152.828 141.171C152.74 141.851 152.365 142.52 151.705 143.181C151.269 143.617 150.787 143.939 150.259 144.146C149.732 144.348 149.224 144.409 148.735 144.328C148.249 144.246 147.817 144.015 147.438 143.636L148.486 142.588C148.829 142.931 149.207 143.083 149.621 143.044C150.036 143.005 150.454 142.775 150.877 142.352C151.241 141.987 151.442 141.641 151.477 141.312C151.513 140.978 151.41 140.689 151.167 140.446Z" fill="black"/>
</g>
<defs>
<filter id="filter0_d" x="58.5" y="67.5" width="166.001" height="143" filterUnits="userSpaceOnUse" color-interpolation-filters="sRGB">
<feFlood flood-opacity="0" result="BackgroundImageFix"/>
<feColorMatrix in="SourceAlpha" type="matrix" values="0 0 0 0 0 0 0 0 0 0 0 0 0 0 0 0 0 0 127 0"/>
<feOffset dx="2" dy="2"/>
<feColorMatrix type="matrix" values="0 0 0 0 0 0 0 0 0 0 0 0 0 0 0 0 0 0 0.4 0"/>
<feBlend mode="normal" in2="BackgroundImageFix" result="effect1_dropShadow"/>
<feBlend mode="normal" in="SourceGraphic" in2="effect1_dropShadow" result="shape"/>
</filter>
</defs>
</svg>
