<svg width="276" height="276" viewBox="0 0 276 276" fill="none" xmlns="http://www.w3.org/2000/svg">
<circle cx="138" cy="138" r="138" fill="#3494CE"/>
<g filter="url(#filter0_d)">
<path d="M158.159 130.489H75L86.8301 207H142.849L158.159 130.489Z" fill="#FF826E" stroke="black" stroke-width="3"/>
<path d="M95.1803 104.286L88.5693 103.238V130.139H95.1803V104.286Z" fill="#FCD76F"/>
<path d="M97.6159 130.139V83.3241L106.662 84.0228V130.139H97.6159Z" fill="#FCD76F"/>
<path d="M114.665 92.757H107.358V130.139H117.797L114.665 92.757Z" fill="#FCD76F"/>
<path d="M118.841 130.139L112.926 74.9392L124.207 73.321L124.06 69H134.15L133.106 130.139H126.147L125.104 99.5697V130.139H118.841Z" fill="#FCD76F"/>
<path d="M146.328 89.6127L135.194 92.757V130.139H143.197L146.328 89.6127Z" fill="#FCD76F"/>
<path d="M144.241 130.139L149.46 78.4329L157.115 81.5772L152.939 130.139H144.241Z" fill="#FCD76F"/>
<path d="M95.1803 104.286L88.5693 103.238V130.139H95.1803V104.286Z" stroke="black" stroke-width="3"/>
<path d="M97.6159 130.139V83.3241L106.662 84.0228V130.139H97.6159Z" stroke="black" stroke-width="3"/>
<path d="M114.665 92.757H107.358V130.139H117.797L114.665 92.757Z" stroke="black" stroke-width="3"/>
<path d="M118.841 130.139L112.926 74.9392L124.207 73.321L124.06 69H134.15L133.106 130.139H126.147L125.104 99.5697V130.139H118.841Z" stroke="black" stroke-width="3"/>
<path d="M146.328 89.6127L135.194 92.757V130.139H143.197L146.328 89.6127Z" stroke="black" stroke-width="3"/>
<path d="M144.241 130.139L149.46 78.4329L157.115 81.5772L152.939 130.139H144.241Z" stroke="black" stroke-width="3"/>
<path d="M82.6547 128.742L77.4355 69.3494H86.8301L91.3534 128.742H82.6547Z" fill="#FCD76F" stroke="black" stroke-width="3"/>
<path d="M139.718 194.423V184.291H202V194.423L195.737 207H145.285L139.718 194.423Z" fill="#E6E9ED"/>
<path d="M139.718 194.423V184.291H202V194.423M139.718 194.423L145.285 207H195.737L202 194.423M139.718 194.423H183.559M202 194.423H192.257" stroke="black" stroke-width="3"/>
<path d="M196.432 181.846H143.892C143.892 181.846 141.806 180.565 142.501 178.003C143.545 174.16 150.503 175.557 150.503 175.557C150.503 175.557 147.024 173.461 147.024 171.015C147.024 168.211 150.503 167.172 150.503 167.172C150.503 167.172 157.262 166.59 161.638 164.377C166.519 161.909 172.772 154.944 172.772 154.944C172.772 154.944 177.614 154.091 182.514 158.089C188.081 162.63 185.298 168.22 185.298 168.22C185.298 168.22 190.432 164.221 192.605 168.22C195.449 173.456 191.512 175.125 188.712 175.657C191.563 175.473 196.096 175.585 197.128 178.003C198.172 180.448 196.432 181.846 196.432 181.846Z" fill="#FFEAA7"/>
<path d="M157.81 175.557H150.503M150.503 175.557C150.503 175.557 147.024 173.461 147.024 171.015C147.024 168.211 150.503 167.172 150.503 167.172C150.503 167.172 157.262 166.59 161.638 164.377C166.519 161.909 172.772 154.944 172.772 154.944C172.772 154.944 177.614 154.091 182.514 158.089C188.081 162.63 185.298 168.22 185.298 168.22C185.298 168.22 190.432 164.221 192.605 168.22C196.78 175.906 186.342 175.906 186.342 175.906C186.342 175.906 195.596 174.412 197.128 178.003C198.172 180.448 196.432 181.846 196.432 181.846H143.892C143.892 181.846 141.806 180.565 142.501 178.003C143.545 174.16 150.503 175.557 150.503 175.557Z" stroke="black" stroke-width="3"/>
</g>
<defs>
<filter id="filter0_d" x="73.25" y="67.5" width="132.25" height="143" filterUnits="userSpaceOnUse" color-interpolation-filters="sRGB">
<feFlood flood-opacity="0" result="BackgroundImageFix"/>
<feColorMatrix in="SourceAlpha" type="matrix" values="0 0 0 0 0 0 0 0 0 0 0 0 0 0 0 0 0 0 127 0"/>
<feOffset dx="2" dy="2"/>
<feColorMatrix type="matrix" values="0 0 0 0 0 0 0 0 0 0 0 0 0 0 0 0 0 0 0.4 0"/>
<feBlend mode="normal" in2="BackgroundImageFix" result="effect1_dropShadow"/>
<feBlend mode="normal" in="SourceGraphic" in2="effect1_dropShadow" result="shape"/>
</filter>
</defs>
</svg>
